<svg xmlns="http://www.w3.org/2000/svg" viewBox="0 0 2100 2100"><defs><style>.cls-1{fill:#dff3f4;}.cls-2{fill:#1c3b4f;}.cls-3{fill:#a3cddb;}.cls-4{fill:#c06a51;}.cls-5{fill:#65a092;}.cls-6{fill:#79bbaa;}.cls-7{fill:#c5dedf;}.cls-8{fill:#528a7c;}.cls-9{fill:#fefefe;}.cls-10{fill:#f5a281;}.cls-11{fill:#c78268;}.cls-12{fill:#15687f;}.cls-13{fill:#1a7891;}.cls-14{fill:#b4ccce;}.cls-15{fill:#edd7c3;}.cls-16{fill:#dec4ab;}</style></defs><title>mom</title><g id="Layer_1" data-name="Layer 1"><path class="cls-1" d="M239.11,1181.16c-7.59-23.35-4.4-47.89-6-71.66-4.3-64.16,1.63-127.91,14.18-191.38,13.49-68.23,37.65-132.28,68.86-193.68,23.49-46.23,53.41-88.51,85.82-129.35,39.2-49.41,83.38-94.08,129.31-136.46a749.86,749.86,0,0,1,136.08-100c47-26.85,95.13-52.21,147.19-69.59,59.47-19.85,119.81-32,182.23-37.76,81.51-7.58,161.15,1.3,240.07,19.72,45.34,10.58,89.06,26.57,132.25,44.27,68.69,28.15,132.35,65.27,192.19,108.39,35.55,25.61,70.66,52.18,102,83.68,29.83,29.94,61.23,58.49,88.43,90.8,33,39.23,62.84,81,91.58,123.55,18.39,27.22,32.07,56.92,47,85.94,17.33,33.72,33.33,68.13,44,104.7,7.16,24.56,15.42,48.88,21,73.8,14.43,64.47,20.95,129.9,17.59,195.94-3.16,62.22-12.27,123.72-36,181.68-4.24,10.35-4.77,23.71-15,31.6,0-2.86-.36-5.77,0-8.58,10.59-75.65,17-151.66,15.64-228-.69-37.74-3.21-75.7-16.65-111.79-9.69-26-25.61-38.95-48-38.71-11.61-1.78-21.35,3.09-30.7,8.9-27.59,17.13-38.36,45.06-45.18,74.38-19.18,82.41-10.8,165.32-1.53,247.95,6.89,61.42,19.6,122,30.42,182.79-4.41,1-10.2.43-13,3.08-29.22,27.45-67.2,37.5-102.29,53.63-18.3,8.41-37.73,7.29-55.91,13.4L1605.53,1401c1.5-6.59,5.49-9.62,12.35-9.14,33.63,2.37,60.14-15,86.75-31.75,8.48-5.34,13.22-11.1,10.5-23.87a896,896,0,0,1-14.56-94.71c-6.1-59.09-18-117.27-25.93-176.06-6.17-45.76-16.1-91-22-136.79-1.84-14.28-6.12-27.81-7.82-42-5.49-45.93-12.25-91.87-25.11-136.23-7.69-26.52-24.43-47.94-51.6-61-18.61-9-38.39-10.18-57.26-16.18L1508.11,663c2.61-11.17,3.72-23.16,16-29l1.37.94,2.39,1.72c9,9.79,19.49,11.47,31,5,14.54-8.1,23.22-28.25,20.26-47.93-2.08-13.83-8.35-28.15-22.74-28.92-17-.91-16.32-10.72-18.07-21.71-6.26-39.45-29.88-56-69.11-50.53-21.93,3-41,14.13-62.13,19-12.55,2.92-24.16,7-24,22.16s9.89,22.29,24.33,23.71q2.36,18.29,4.71,36.57c-4.08,21.31-.45,41.94,5.49,62.37,6.23,15,18.44,24,31.71,32-12.94,11.07-26,22.05-35.27,36.62-14.7,23.07-15.16,49.76-17.11,75.5-1.32,17.35,2.58,35.09,4.14,52.65-14.41,28.35-33.82,53.21-55.36,76.24-38.34,41-80.82,76.35-135.81,93.3-15.75-7.21-32.35-8.21-49.28-6.79-12.63-1-21-6.46-21.17-20.42l-.1-12.36.94-12.48c6.86-.25,13.84-1.39,20.57-.55,13.64,1.69,17.8-3.3,17.37-17.09-1-32.06-.67-64.19-.12-96.28.19-10.93-2.81-15.09-14.48-14.87-40.68.78-81.37.51-122.06.64-1.61-8.4-2.82-16.91-4.91-25.19-12.35-49-35-90.47-83.56-112.59a9,9,0,0,1,5.68-7.8c20.49-8.74,32.54-25.48,42.25-44.46,31.54-27.32,30.67-69.3-2.11-94.54-17.23-13.27-36.06-24.19-53.28-37.65-16.33-12.77-37-15.4-57.47-12.22-29.21,4.54-50.68,32-48,61.29,1.11,12-2.39,20.72-10.87,29.09-11.42,11.28-11.91,25.41-6.76,40,4.6,13,13.6,22.94,27.33,22.59,18-.47,25.51,9.15,31.13,23.61,2.24,5.77,6.27,10.86,9.49,16.25-37.12,9.89-60.74,34.39-74.85,69.17-31.8,49.22-44.06,104.12-44,161.66.05,37.71,4,75.41,6.22,113.11l.39,4.28c1.12,16.48,1.57,33,3.5,49.43,5.29,44.74,11.18,89.41,28.37,131.61-7.11,22.93-21.2,43.28-25.62,67.12-4.84,26.15-12.65,49.24-42.77,56.11-6.88,1.57-10.2,7.33-8.71,14.63,1.73,8.52,8.22,10.06,15.66,10,8.67-.08,17.35,0,30,0-9.43,6.32-15.08,10-20.65,13.86-5.13,3.51-8.23,8.17-6.2,14.54,2.11,6.63,8,8.28,13.83,7.7,7.92-.78,15.72-2.74,23.58-4.19,6.88,9.07,2.56,18.75,1.14,28.05q-9.22,60.12-19.11,120.14c-9.3,56.36-18.88,112.67-28.33,169-3.63,1.8-7.21,1.45-11.29,1.31-20.37-.69-37.19-14-57.22-15.33-.08-5.75-.22-11.5-.22-17.25q0-247.67.29-495.34c0-14.59-2.88-20.83-18.87-19.6-18.87,1.46-37.94.45-56.93.28-6-.05-13.37,2.07-14.8-7.37,2.43-6.42-2.55-11.17-3.8-16.76,11.83-.44,22.77-4.55,25.8-16.4,7.62-29.85,13.92-60.06,20-90.27,2-9.71-.62-19.71-12.44-20.66-9.94-.8-16.79,5.14-19,15.86-4.3,20.71-9.59,41.21-13.68,62-3.08,15.59-11.61,22-27.52,21.91q-108.63-.61-217.26,0c-16,.1-24.3-6.41-27.63-21.78-4.59-21.22-9.69-42.36-15.46-63.28-2.55-9.26-8.49-18.2-19.76-14.16-10,3.58-14.33,12.25-11.46,23.72,6,23.85,13,47.58,16.64,71.81,2.89,19.09,12,28.74,30.29,31.26-5.22,6-4.66,13.07-3.46,20.21-4,5.82-10.12,3.87-15.47,3.93C272.84,1181.39,256,1181.2,239.11,1181.16Z"/><path class="cls-2" d="M1605.53,1401l49.13,191.4c17.8,71,35.72,142,53.27,213.11,2.18,8.85,8.11,7.92,14.39,7.9q53.31-.16,106.62-.26l101.92,0c25.32.1,50.66.67,76,.08,10.26-.24,14,2.24,13.86,13.25-.24,25,.4,25-24.37,25H105.3c-22.49,0-30.25-10.77-23.78-32.3,2.54-8.45,9.15-5.5,14.2-5.55,38.56-.35,77.13-.34,115.69-.44,35.56.08,71.13.26,106.7.22q178.19-.2,356.38-.54l55.14.07,23.81-.14,25.28.05,23.69,0h225.54c-38.3-20.68-61.06-52.67-74.78-95.53-2.83,9.59-4.33,15.11-6.1,20.53-2,6-3.68,13.06-11.79,12.56-7.2-.45-10.52-6.32-12.45-12.64-2.15-7.06-4-14.22-6-21.33-1.42-21-3.53-41.88-4.07-62.86-.67-26,.92-27.26,26.29-32.39,2.18,2,2.89,3.81,2.29,7.2-4.15,23.49.21,30.92,22.63,40.11.2,11.92-7.1,22.89-5.74,36.36,7.12-3,10.4-9.67,17.22-9.61.72,29.66,12.82,37.8,43.72,29.43,10.53,26.06,22.31,51.73,30.86,78.43,2.71,8.46,4.43,10.56,12.38,10.47,34.53-.39,69.06-.32,103.59-.42l23.49-.46,26.62-.11,3.53.55,273.92,0c62.67.1,125.34-.08,188,.56,11.38.12,14-2.73,11-13.54-6.24-22.11-11.63-44.45-17.36-66.7l-34.59-134.21-51.08-204C1596,1394,1602.29,1393.24,1605.53,1401Z"/><path class="cls-3" d="M674.49,1812.77q-178.19.28-356.37.54c-35.57,0-71.13-.14-106.7-.22,5.38-7.15,3.45-15.48,3.45-23.36q.14-292.17.09-584.34c0-23.65.08-23.65,24.15-24.21,16.87,0,33.73.23,50.6,0,5.35-.06,11.47,1.89,15.46-3.93a65.51,65.51,0,0,0,23.41,4.15q116.79-.31,233.59,0c8.54,0,15.72-1.57,21.74-7.63,1.44,9.44,8.85,7.32,14.81,7.38,19,.17,38.06,1.18,56.93-.28,16-1.24,18.91,5,18.87,19.6q-.71,247.67-.29,495.34c0,5.75.14,11.5.22,17.25Q674.46,1762.94,674.49,1812.77ZM369,1584.91l80.69.16c14.94-1.45,30.4,4.25,44.91-3.25,12.75,3.51,25.51,6,38.3.15,1.93,1.08,3.86,3.09,5.79,3.1,32.74.22,65.48.08,98.21.28,9.17.06,9.84-5.56,9.82-12.49-.1-40.78-.17-81.56,0-122.34,0-9.26-3.57-13.75-13.19-13.71q-149,.52-298.06.81c-27-.22-54-.21-80.92-.8-8.94-.19-12.23,3.11-12.17,12,.25,41.34.3,82.68-.06,124-.09,9.88,3.79,12.89,13.26,12.68,27-.6,54-.5,80.94-.68Zm160,72.79c6.65,2.15,12.39,9.74,20.45,3.38-.31,14.47,6.8,29-1.86,43.53-3.11,5.23,4,6.91,7.69,9.22,15.92,10,17.54,17.11,6.65,32.58-1.86,2.64-4.06,4.3-.65,6.45,13.78,8.71,7.8,20.57,4.06,33.1,24.18,0,47-.27,69.89.13,9.53.16,11.52-4.55,11.4-12.76-.37-24.64-.34-49.28-.47-73.92.15-27,.18-54,.51-81,.11-9.16-1.61-15.86-12.92-15.76-51.09.45-102.19.69-153.28,1-56-3.74-111.84,2.89-167.79,1.87-22.29-.4-44.59.07-66.88.15l-3.25,3.73c-.06,53.91.12,107.81-.37,161.71-.1,11,3,15.39,14.54,15,22.92-.7,45.87-.18,68.8-.17,8,3.87,16.08,3.46,24.13.08l14,1c2.56,2.17,4.82,1.72,6.84-.78q1.5-.22,3-.51l6.82.12h106c-7.79-14.19-8.26-25.91,3.53-35.7-16.38-10.2-15.77-25.05.45-36.56,3.71-2.63,13.33-3.31,9.34-9.38-9-13.75-2.76-26.58-1-39.85,7.75,1.17,13.42-3.87,19.86-6.62Zm-280-448c-4.76-.8-6.45,1.74-6.54,6q0,6.87,0,13.74c0,58.37.17,116.75-.23,175.12-.08,10.79,2.65,15.57,14.38,15,19.42-.9,38.9-.44,58.36-.55,27.8-1.09,55.82,4.25,83.42-2.79,30.89,3.85,62.09-2.25,92.94,3,46.57.08,93.14-.16,139.7.45,11.73.15,16-3,15.89-15.44q-.87-89.68,0-179.37c.14-13.2-4.2-16.5-16.82-16.31-44.83.67-89.68.13-134.53.25Q372.33,1209.11,249,1209.66Zm275,506.77c-3.68,0-6,.12-8.29,0-14.5-.9-15.5,10.7-19.18,20.2-4,10.38,2.78,12.17,10,15.79,8.46,4.22,15,11.14,10.72,22.35-1.51,3.91-3,8.39,2.37,10a22.84,22.84,0,0,0,11.85-.07c5.61-1.53,3.63-6,2.56-9.92-2.93-10.82-.15-19.08,10.71-23.9,6.92-3.07,8.22-8.19,6.07-15.52C546.66,1720.82,537.64,1714.44,524.06,1716.43Z"/><path class="cls-4" d="M1930.86,1813.09l-101.93,0c-1.66-5.45-6.93-7.45-10.64-10.86-40.33-37.06-52-93.06-30-143.25,10.12-23.12,23.2-41,52.56-35.1,2.69.54,5.69-.42,8.54-.69h47.75l18.65.22c12.76,3.53,27.94-5.43,38.86,7.47,17.65,20.84,26.57,45.29,28.22,72.23C1985.68,1749.16,1965.9,1784.81,1930.86,1813.09Z"/><path class="cls-5" d="M1886.71,1623.22h-17.19c1.84-81.44.1-162.88,2.42-244.39,3.52-123.43.93-247,.93-370.58,22.41-.24,38.33,12.69,48,38.71,13.44,36.09,16,74,16.65,111.79,1.41,76.38-5.05,152.4-15.64,228-.39,2.81,0,5.71,0,8.58l-11.42,83C1902.62,1526.71,1891.52,1574.45,1886.71,1623.22Z"/><path class="cls-5" d="M1915.77,1623.44l-18.65-.22,66.1-197.92,6.88.48a5.65,5.65,0,0,0,1.77.89c12.33,3.77,11.95,14.21,11.72,23.82-.75,31.71-13.7,60-26.37,88.14C1944.28,1567.29,1929.66,1595.2,1915.77,1623.44Z"/><path class="cls-6" d="M1963.22,1425.3l-66.1,197.92h-10.42c4.81-48.77,15.92-96.52,23.72-144.8,5.64-9.65,10.83-19.6,17-28.87C1936,1436.79,1945.31,1424.52,1963.22,1425.3Z"/><path class="cls-6" d="M1971.87,1426.66a5.65,5.65,0,0,1-1.77-.89s1.23-.44,1.23-.44Z"/><path class="cls-7" d="M1605.53,1401c-3.24-7.74-9.55-7-16-5.76-26.37,0-26.31,0-31.6-26.35-.39-1.94-2.5-3.53-3.8-5.29q-6.74-82.38-13.48-164.76-3.22-58.78-6.44-117.56c.25-5.92,4.72-8.29,8.67-11.8,11-9.8,22.94-18.72,29.93-32.57,19.75-39.15,31.56-80.2,34.89-124.13,3.69-48.64,4.58-97.08-.36-145.67-1.9-18.62-16.61-24.23-29.61-29.83-12.61-5.43-24.13,1.44-33.72,11-11.41,11.38-11.51,25.84-10.71,39.88,2.61,45.86,1.3,91.58-2.41,137.29-.33,4.06-2.3,6.27-6.29,6.77-1.24-17.15-2.85-34.28-3.65-51.45-2.65-56.74-5-113.49-7.45-170.24-.18-4.12-.63-8-3.38-11.3,5-8.52-1.5-17.39.79-26,18.87,6,38.65,7.22,57.26,16.18,27.17,13.07,43.91,34.49,51.6,61,12.86,44.36,19.61,90.3,25.11,136.23,1.7,14.19,6,27.73,7.82,42,5.89,45.78,15.81,91,22,136.79,7.93,58.8,19.83,117,25.93,176.06a896,896,0,0,0,14.56,94.71c2.72,12.78-2,18.53-10.5,23.87-26.6,16.76-53.12,34.12-86.75,31.75C1611,1391.36,1607,1394.4,1605.53,1401Z"/><path class="cls-4" d="M802.41,1812.77l-23.7,0q5.73-36,11.48-71.94l62.18-384.74-5.19-1.15c-13.56,16.17-16.62,38.57-31,54.23l-26.89.78c-7.85,1.45-15.66,3.41-23.58,4.19-5.88.58-11.72-1.07-13.83-7.7-2-6.38,1.08-11,6.2-14.54,5.58-3.82,11.22-7.54,20.65-13.86-12.68,0-21.36-.06-30,0-7.44.07-13.94-1.46-15.66-10-1.48-7.31,1.83-13.07,8.71-14.63,30.12-6.87,37.93-30,42.77-56.11,4.41-23.84,18.51-44.19,25.61-67.12,19.81-21.74,40.43-41.69,69.94-50.87,23.11-7.19,46.15-13.53,70.23-15.74,7.06-.65,14.46-.14,14.3-10.41a7.89,7.89,0,0,0,3-.61c47.31,7.08,93,3.28,135.69-20.38,4.36,2.48,5.36,6.92,7.19,11.16,12.28,28.52,15.56,58.26,12.89,88.9-7.08,9.81-15.32,18.05-26.9,22.72a204.49,204.49,0,0,1-52.72,13.49c-53.89-1.32-105.22,10.43-155,30.3l-3.86,2.67-.46.48c-11,12.83-23.17,24.9-29.79,41l22.64,1.37c-12.48,77.65-25.11,155.27-37.39,233-8.42,53.29-16.36,106.65-24.51,160C808.87,1762,806.38,1787.52,802.41,1812.77Z"/><path class="cls-8" d="M953,704.79c48.61,22.12,71.22,63.59,83.57,112.59,2.09,8.28,3.29,16.79,4.9,25.18q-.53,2.11-1,4.24c-9.73-.31-19.57-1.67-29.18-.71-20.3,2-39.4,8.24-53.36,24-11,12.5-9.13,16.84,7.28,21.41-11.43,37.3-1,68.34,30.1,88.06,12.76,8.1,10.8,18.34,2.76,27-7.77,8.38-14.18,17.61-15.19,28.18-2.36,24.7-19.77,31.16-39.28,35.89-6.63,1.61-13.55,2.05-20.34,3,.55-7.4-3.91-8.76-10.19-10.79-23.42-7.57-41.45-23.06-51.58-45.09-21.26-46.25-7.85-91.66,8.12-135.81,8.85-24.47,22-47.39,32.93-71.11,6.52-14.09,2.94-26.8-6.38-38.32-10.62-13.13-23.24-19.52-41.29-17.66-15,1.55-24.58,14.55-39.26,15.2,14.11-34.78,37.73-59.29,74.85-69.17l18.25-3.25c-1,8.38-2.92,16.76-2.93,25.14,0,14.31,8.38,22.34,22.27,22.44,12.93.1,20.95-7.19,22.54-20.63C951.36,718,948.72,711,953,704.79Z"/><path class="cls-6" d="M1872.87,1008.26c0,123.53,2.59,247.14-.93,370.58-2.33,81.51-.58,162.95-2.42,244.39h-20.15q-11.75-50.48-23.49-101c-10.82-60.82-23.52-121.37-30.42-182.79-9.27-82.63-17.65-165.53,1.53-247.95,6.82-29.32,17.59-57.25,45.18-74.38C1851.52,1011.35,1861.26,1006.48,1872.87,1008.26Z"/><path class="cls-9" d="M1825.87,1522.28q11.74,50.48,23.49,101c-2.85.26-5.85,1.23-8.54.69-29.36-5.89-42.45,12-52.56,35.1-22,50.18-10.3,106.18,30,143.25,3.71,3.41,9,5.42,10.64,10.86q-53.3.12-106.61.26c-6.28,0-12.2,1-14.39-7.9-17.55-71.09-35.47-142.08-53.27-213.11,18.18-6.11,37.6-5,55.91-13.4,35.09-16.13,73.07-26.18,102.29-53.63C1815.67,1522.71,1821.46,1523.23,1825.87,1522.28Z"/><path class="cls-5" d="M815.6,770.12c14.69-.65,24.22-13.65,39.26-15.2,18-1.86,30.67,4.53,41.29,17.66,9.32,11.53,12.9,24.23,6.38,38.32-11,23.72-24.08,46.64-32.93,71.11-16,44.15-29.38,89.56-8.12,135.81,10.12,22,28.16,37.52,51.58,45.09,6.28,2,10.74,3.39,10.19,10.79-23.76,3.76-46.36-1.71-64.34-16.18-25.46-20.5-51.5-24.75-81.08-12.62-2.21-37.7-6.16-75.4-6.22-113.11C771.54,874.24,783.8,819.34,815.6,770.12Z"/><path class="cls-10" d="M777.84,1044.89c29.58-12.13,55.61-7.88,81.08,12.62,18,14.48,40.58,19.94,64.34,16.18,6.79-1,13.71-1.43,20.34-3,19.51-4.73,36.92-11.19,39.28-35.89,1-10.57,7.42-19.8,15.19-28.18,8-8.67,10-18.91-2.76-27-31.07-19.72-41.53-50.76-30.11-88.06,13.94-5.21,26.37-5.25,34.88,9.61,1.85,3.24,5,3.22,8.87,3.08,18-.65,26.52,12.14,19.82,28.8-7.79,19.36-5.59,25.9,12.54,37.25-6.9,11.87-6.47,21.12,8,27.14,7.84,3.26,14.86,8.47,16.37,18.05-11.25,9.7-15,21.07-8.28,35.11,5.14,10.81,13,15.57,25,12.46,11.5,21.68,15.62,45.59,20.93,69.15-42.7,23.67-88.38,27.46-135.69,20.4-1.47-12.59,3.75-18.2,16.72-17,8,.71,16.15-.39,24.15.31,14,1.22,24.21-.13,17.46-18.44-.9-2.45.38-5.66.44-8.53.11-5.18,10.72-8.34,3.49-14.56-7.64-6.57-12.65,2.05-18.08,4.93-60.82,32.25-117,27.8-169.12-16.91a130.8,130.8,0,0,0-41-23.83l-23.39-9.33Z"/><path class="cls-2" d="M908.7,697.7l-18.25,3.25c-3.21-5.4-7.24-10.48-9.48-16.25-5.62-14.46-13.11-24.08-31.13-23.61-13.73.36-22.73-9.56-27.33-22.59-5.15-14.59-4.65-28.72,6.76-40,8.48-8.38,12-17.14,10.87-29.09-2.73-29.31,18.75-56.75,48-61.29,20.49-3.19,41.13-.55,57.47,12.22,17.22,13.46,36.05,24.39,53.28,37.65,32.77,25.24,33.64,67.22,2.12,94.54,11.11-21.28-4.13-38.37-8.92-57.17-2.76-10.83-6.71-9.53-13.6-3-11.81,11.13-26.33,18.37-40.44,26.15-5.37,3-9.58,5.73-13.39-2.78-4.62-10.33-13.25-14.88-23.9-8.27-10.3,6.39-14.56,19.49-7.55,26.79,13.86,14.43,7.06,34.5,17.74,49C914.34,687.87,911.57,693.17,908.7,697.7ZM895.2,522.22c-10.24,2.52-20.9,7.11-23.61,21-.7,3.58-2.17,8.52,2.69,10.41,4,1.54,5.78-2.68,7.83-5.12,5.09-6.09,10.14-12,17.78-15.25,2.86-1.2,7.65-1.82,6.89-6.18C905.91,522.17,901.21,522.29,895.2,522.22Z"/><path class="cls-3" d="M308.63,1157.05c-18.26-2.53-27.4-12.17-30.29-31.26-3.66-24.22-10.67-48-16.64-71.81-2.87-11.48,1.47-20.15,11.46-23.72,11.27-4,17.21,4.89,19.76,14.16,5.77,20.93,10.87,42.06,15.46,63.28,3.32,15.37,11.62,21.88,27.63,21.78q108.63-.69,217.26,0c15.91.09,24.44-6.33,27.52-21.91,4.1-20.74,9.38-41.25,13.68-62,2.23-10.72,9.07-16.66,19-15.86,11.83.95,14.4,10.95,12.44,20.66-6.09,30.21-12.4,60.42-20,90.27-3,11.85-14,16-25.79,16.4Z"/><path class="cls-8" d="M778.23,1049.17l23.39,9.32c.46,5.71,1.56,10.77,5.56,15.69,13,16,29.94,25.76,48.08,34.4,29.23,13.93,60.55,20.24,92.24,23,16.38,1.43,18.68,8.63,17.06,21.6.17,10.27-7.24,9.77-14.3,10.41-24.08,2.2-47.12,8.55-70.23,15.74-29.51,9.18-50.13,29.12-69.94,50.87-17.18-42.19-23.07-86.86-28.36-131.6C779.8,1082.21,779.35,1065.65,778.23,1049.17Z"/><path class="cls-11" d="M1040.45,846.8q.52-2.12,1-4.24c40.7-.12,81.39.14,122.07-.63,11.67-.22,14.67,3.94,14.48,14.87-.55,32.09-.89,64.21.12,96.28.43,13.79-3.73,18.78-17.37,17.09-6.73-.83-13.7.31-20.56.55a4.49,4.49,0,0,0-2.41.33l-19.23-.21-43.25-.26c-2.22-6.16-2.59-13.17-8.18-17.79,5.24-11.85,12.63-22.52,14.83-36C1087.78,881.42,1063,865,1040.45,846.8Zm89,48.44c-5.32,1.82-10,3.85-9.45,10.44.61,7.11,5,9.82,11.62,9.27,5.1-.43,8.88-3.35,8.46-8.7C1139.62,900,1135.61,896.21,1129.48,895.24Z"/><path class="cls-12" d="M1407.36,557.56c-14.45-1.42-24.22-8.58-24.33-23.71s11.5-19.25,24-22.16c21.11-4.91,40.2-16,62.13-19,39.22-5.43,62.84,11.08,69.11,50.53,1.75,11,1.07,20.8,18.07,21.71,14.39.77,20.66,15.09,22.74,28.92,3,19.69-5.72,39.83-20.26,47.93-11.53,6.42-22,4.75-31-5a2.24,2.24,0,0,0-2.39-1.72l-1.37-.94c-1-2.6-5.86-2.32-5-6,3.43-14.66.26-29.57,1.93-44.28,6.6-13.6,7.73-26.78-6.62-35.89-12.07-7.66-18.66,1.37-24.4,10.51l-10,5c-4.61-7.06-11.22-10.39-19.42-12.27-10.42-2.39-21.25-4.5-30.11-11.07-10.13-7.52-14.95-3.5-18,7C1411.45,550.68,1409.11,554,1407.36,557.56Z"/><path class="cls-10" d="M908.7,697.7c2.87-4.53,5.64-9.83,2.21-14.48-10.68-14.51-3.88-34.58-17.74-49-7-7.3-2.74-20.4,7.55-26.79,10.65-6.61,19.28-2.06,23.9,8.27,3.81,8.51,8,5.74,13.39,2.78,14.1-7.77,28.63-15,40.44-26.15,6.89-6.49,10.84-7.8,13.6,3,4.79,18.79,20,35.89,8.92,57.17-9.72,19-21.77,35.72-42.26,44.46a9,9,0,0,0-5.68,7.8c-4.3,6.18-1.66,13.23-2.44,19.85C949,738.09,941,745.37,928,745.27c-13.89-.1-22.28-8.13-22.27-22.44C905.78,714.45,907.66,706.08,908.7,697.7Z"/><path class="cls-11" d="M789.25,1409.94l26.89-.78c-5.94,58.27-18,115.62-26.28,173.54C783,1630.93,775.31,1679,768,1727.2c-7.33,28.08-10.12,56.93-14.55,85.5l-23.81.14c6.57-28.24,10.1-56.95,13.33-85.7,9.46-56.33,19-112.64,28.33-169q9.9-60,19.11-120.14C791.81,1428.69,796.13,1419,789.25,1409.94Z"/><path class="cls-6" d="M308.63,1157.05l271.49,0c1.25,5.59,6.22,10.34,3.8,16.76-6,6.05-13.21,7.65-21.75,7.62q-116.79-.42-233.59,0a65.51,65.51,0,0,1-23.41-4.15C304,1170.12,303.41,1163.09,308.63,1157.05Z"/><path class="cls-9" d="M742.95,1727.14c-3.23,28.76-6.76,57.47-13.33,85.7l-55.13-.07q0-49.83,0-99.65c20,1.35,36.85,14.64,57.22,15.33C735.74,1728.58,739.32,1728.93,742.95,1727.14Z"/><path class="cls-7" d="M1401,853.22c-1.56-17.56-5.46-35.31-4.14-52.65,2-25.74,2.41-52.42,17.11-75.5,9.28-14.57,22.32-25.56,35.27-36.62,5.81.81,9.27,2.81,8,10-4.84,26.8-8.54,53.87-20.76,78.71-6.74,5.35-20.91-1.83-22.28,10.22-1.27,11.17-4.45,23.52,2.74,34.44-.13,10.68-9,17.68-11.48,27.38Z"/><path class="cls-13" d="M1401,853.22l4.44-4,7.51.21L1399.14,876l-2.81,4.64a6.25,6.25,0,0,0-1.78,2.87c-4,2.76-7.34,6-8.45,11-11.68,13.92-23.17,28-35.09,41.72-26,29.86-58.38,52.11-89.8,75.51l.21-.24c-4.38.64-7.16,3.22-8.81,7.2-6.37-2.56-10.76,2.28-15.86,4.31-24.42,9.74-48.22,21.54-75.31,22.22q-.19-1.38-.24-2.77c.81-7,7.41-5.55,11.46-7.84,12.87-2.46,26.28-3.22,37.2-11.81,55-16.94,97.47-52.32,135.81-93.3C1367.2,906.43,1386.61,881.57,1401,853.22Z"/><path class="cls-10" d="M1407.36,557.56c1.76-3.52,4.09-6.88,5.16-10.6,3-10.5,7.84-14.52,18-7,8.86,6.57,19.69,8.68,30.11,11.07,8.21,1.88,14.81,5.21,19.41,12.27-18.05,16.58-36.3,32.87-60,41.23l-7.93-10.4Z"/><path class="cls-12" d="M1413,849.4l-7.51-.21c2.46-9.7,11.34-16.71,11.48-27.38,8.87-13.85,16.81-28.12,19.54-44.66,12.22-24.84,15.92-51.91,20.76-78.71,1.3-7.18-2.16-9.19-8-10-13.27-8-25.48-17-31.71-32l9.92-.64c13.52,7,21.38,25.32,40.86,20.27,14.6-.25,20.15-14.94,31.8-19.9,4.2.16,6.33,2.26,6.16,6.54-8.21,14.85-21.56,22.94-37,28.25-7.06,12.92-5.76,27.87-10.05,41.47l-1,13.39.1-.19c-7.45,8.83-7.68,20.27-11,30.58l-17.86,45.3Z"/><path class="cls-10" d="M1172.64,1034.57c-4,2.29-10.65.82-11.46,7.84-4.88-4.27-10.69-3.11-16.33-2.73-20.08,1.35-39.89-1.52-59.73-3.75-11.34-1.28-17.12-5.78-8.13-17l10.68-4.25c10.82-.49,20.22-7.76,31.39-6.57,10.1,1.23,19.65,1.58,20.32-12.51.16,14,8.54,19.39,21.18,20.41C1165.06,1021.87,1172,1026.15,1172.64,1034.57Z"/><path class="cls-10" d="M1469.25,691c15.48-5.32,28.83-13.41,37-28.26a3.38,3.38,0,0,0,1.82.29l2.76,10.19c-2.28,8.61,4.26,17.48-.78,26C1487.69,711.6,1479.82,710,1469.25,691Z"/><path class="cls-5" d="M1508.11,663a3.38,3.38,0,0,1-1.82-.29c.17-4.27-2-6.38-6.17-6.54,9.17-7.67-1.89-19.67,6.17-27.87,7.76-7.89,8.89-17.84,6.67-28.34.61-4.09.74-8.09-2.37-11.41L1506,563c11.36,3.83,8,15.76,15,20.67-1.67,14.71,1.5,29.62-1.93,44.28-.87,3.73,4,3.45,5,6C1511.84,639.89,1510.72,651.88,1508.11,663Z"/><path class="cls-4" d="M1139.39,995.56c-.67,14.09-10.22,13.74-20.32,12.51q-.24-18.61-.48-37.23l19.23.2c.1,4.1-1.21,8.37,1.47,12.16Z"/><path class="cls-6" d="M1427.47,655.85l-9.92.64c-5.94-20.43-9.57-41.06-5.49-62.37l7.94,10.4C1418.7,622.18,1420.77,639.35,1427.47,655.85Z"/><path class="cls-14" d="M1172.64,1034.57c-.6-8.42-7.58-12.71-12.08-18.6,16.93-1.42,33.53-.42,49.27,6.79C1198.92,1031.35,1185.51,1032.12,1172.64,1034.57Z"/><path class="cls-10" d="M1139.29,983.2c-2.68-3.79-1.38-8.07-1.47-12.16a4.57,4.57,0,0,1,2.41-.32Q1139.75,977,1139.29,983.2Z"/><path class="cls-5" d="M1525.46,635a2.24,2.24,0,0,1,2.39,1.72Z"/><path class="cls-15" d="M888.77,1298.76c49.74-19.87,101.08-31.63,155-30.31l53.09,99.73,2.41,3-.16-.16c1.08,22.89,9.26,45,7.63,68.19-1.26,49.42-7.81,97.92-24.71,144.68-1.36,3.77-5.42,8.29.35,12.13-8.87,13.93-20.88,26.39-21,44.46l-42.15,84.12c-30.9,8.37-43,.22-43.72-29.43,6.44-9.16,6.47-19.64,6.2-30.18,8-23.92,6.78-49.49,13.34-73.68,1.39-5.14-.61-9-6.54-9.75,8.93-8.48,11.2-18.86,10.71-31-.78-19.44-.1-38.93-.19-58.4-.06-12.59,2.13-25.85-1-37.65-12.69-47.55-43.63-82.4-81.92-111.52-2.47-10.29-11.42-14.8-18.58-21-6.28-5.4-14.27-9.85-13-20.17l.46-.47Z"/><path class="cls-1" d="M916.06,1343c38.29,29.12,69.24,64,81.92,111.52,3.15,11.8,1,25.06,1,37.65.09,19.47-.59,39,.19,58.4.49,12.11-1.78,22.49-10.71,31-16.61,13-30.47,29.44-49.4,39.55-25.37,5.13-27,6.4-26.29,32.39.54,21,2.66,41.91,4.07,62.86-8.89-.08-16.45,4.79-24.72,6.72-25.34,5.91-49.55,18.36-76.76,14.12,8.15-53.33,16.09-106.7,24.51-160,12.28-77.68,24.91-155.31,37.38-233Z"/><path class="cls-9" d="M1640.6,1599.19l34.59,134.21c5.73,22.25,11.12,44.6,17.36,66.7,3.05,10.81.41,13.65-11,13.54-62.66-.64-125.33-.46-188-.56-1.21-5.73,1.16-12.32-4.08-17.09,1.67-20.68-14.82-29.57-26.84-41.37-1.53-11.34,1.19-23.22-4.32-34.05,7.94-9.38,9.07-20.06,8.64-32.16-.82-22.93-6.39-45.51-4.69-68.57,5.3-5.64.15-18,15.48-17.77C1532,1603,1586.39,1603.75,1640.6,1599.19Z"/><path class="cls-1" d="M1640.6,1599.19c-54.21,4.56-108.56,3.83-162.84,2.88-15.33-.27-10.18,12.13-15.48,17.77a1458.94,1458.94,0,0,1-4.79-149.54c.76-37.47,19.05-63.84,48.53-84.13,14.75-10.15,31.17-17,48.09-22.58,1.31,1.76,3.42,3.35,3.8,5.29,5.29,26.38,5.23,26.4,31.6,26.35Z"/><path class="cls-9" d="M1019.2,1724.61l42.15-84.12c24-11.2,49.25-19.58,71.6-34.15L1166,1813.09c-34.53.1-69.06,0-103.59.42-7.94.09-9.67-2-12.38-10.47C1041.5,1776.34,1029.73,1750.67,1019.2,1724.61Z"/><path class="cls-9" d="M815.39,1737.21c27.21,4.24,51.42-8.21,76.76-14.12,8.27-1.93,15.83-6.8,24.72-6.72,2,7.12,3.81,14.27,6,21.33,1.93,6.32,5.24,12.19,12.45,12.64,8.11.5,9.83-6.55,11.79-12.56,1.77-5.43,3.27-10.94,6.1-20.53,13.71,42.86,36.47,74.85,74.78,95.53H802.41C806.38,1787.52,808.87,1762,815.39,1737.21Z"/><path class="cls-11" d="M1219.66,1813.06l-3.53-.55-38.24-230.31-7.94-58.05c6.13-7,8.5-17.18,18-21.3q7.32,39.5,14.62,79c.35,5.14.29,10.34,1.11,15.41q15.21,94.15,30.63,188.27c-1,5.61-8.17,7.67-8,14C1221.21,1802.56,1220.59,1807.89,1219.66,1813.06Z"/><path class="cls-4" d="M1166,1813.09l-33.08-206.75-6-38.59c3.69-9.63,10.19-15.92,20.71-17.44l9.11,49c1.09,9.06,1.91,18.17,3.33,27.18q14.6,93.1,29.4,186.17Z"/><path class="cls-9" d="M1189.51,1812.63q-14.72-93.08-29.4-186.17c-1.41-9-2.23-18.12-3.32-27.19,12.5,1.07,18.36-6.07,21.1-17.06l38.24,230.3Z"/><path class="cls-12" d="M1219.66,1813.06c.93-5.18,1.56-10.5,6.73-13.58,40.16-.2,80.31-.81,120.46-.49,47.59.38,95.16,1.11,142.65-3,5.24,4.77,2.87,11.36,4.08,17.09Z"/><path class="cls-16" d="M939.08,1621.12c18.93-10.11,32.79-26.54,49.4-39.55,5.92.73,7.93,4.61,6.54,9.74-6.56,24.19-5.38,49.76-13.34,73.68L964,1668.42c-22.41-9.18-26.78-16.61-22.63-40.11C942,1624.93,941.26,1623.08,939.08,1621.12Z"/><path class="cls-9" d="M753.43,1812.7c4.43-28.57,7.22-57.42,14.55-85.5,3,11.75,10.82,15.57,22.2,13.62q-5.74,36-11.48,71.94Z"/><path class="cls-1" d="M964,1668.42l17.68-3.43c.27,10.54.25,21-6.2,30.19-6.82-.07-10.1,6.62-17.22,9.6C956.9,1691.31,964.2,1680.35,964,1668.42Z"/><path class="cls-1" d="M398.41,1416.23c-27.6,7-55.62,1.7-83.42,2.79,1.94-3.53,3.45-6.51.83-11-30.27-51.85-50.13-107.73-64.06-165.93-1.17-4.9-1.13-12.2-9.27-12.67q0-6.87,0-13.74c3.84-.21,6.52-1.67,6.54-6q123.29-.45,246.58-.88c44.84-.12,89.69.43,134.53-.25,12.62-.19,17,3.11,16.82,16.31q-1,89.68,0,179.37c.12,12.41-4.16,15.59-15.89,15.44-46.56-.61-93.13-.37-139.7-.45,25.57-16.29,25.24-40.54-2.5-55.53,13.23-3.46,23-9.88,19.29-24-4.78-18-16.29-29.42-40.43-28.47,19.1-16.13,15.39-38,25.33-54.66a19.92,19.92,0,0,0-4.09-25.44c-9.11-8-21.09-8.64-30.51-2-11.21,7.86-19.67,8-30.87.08-10.54-7.4-22.23-4.53-31.55,4.15-7.85,7.31-8.39,19.06-3.34,25.43,12.49,15.74,8.44,38.12,26.24,51.84-26.67,3.58-34.07,11.23-39.71,31.63-5.36,19.39,13.14,15.78,20.58,22.83C375.41,1383,375.17,1402.48,398.41,1416.23Z"/><path class="cls-9" d="M498.66,1664.41c-1.73,13.27-8,26.1,1,39.85,4,6.08-5.62,6.75-9.34,9.38-16.21,11.51-16.83,26.36-.45,36.56-11.79,9.79-11.32,21.51-3.53,35.7h-106q.37-1.62.59-3.26c3-1.62,6.19-3,9-4.88,46.55-30.89,37-94.85,1.88-111.43-2.19-7.64-8.35-8.22-14.78-8.33-32-12.22-62.81-2.64-80.77,25.06-18.51,28.54-15.57,70.46,22,96.32l7.26,6.67c-22.94,0-45.89-.54-68.81.16-11.54.35-14.64-4.07-14.54-15,.48-53.9.31-107.81.36-161.71l3.25-3.73c22.29-.08,44.6-.55,66.88-.15,56,1,111.82-5.62,167.79-1.88,1.63,6.9,12,8.07,10.94,16.75C476.58,1637.93,494.65,1650,498.66,1664.41Z"/><path class="cls-1" d="M335.46,1437.62q149-.37,298.06-.81c9.62,0,13.22,4.45,13.19,13.71-.15,40.78-.08,81.56,0,122.34,0,6.93-.65,12.55-9.82,12.49-32.74-.2-65.48-.06-98.21-.28-1.94,0-3.86-2-5.79-3.1,26-9.25,41.19-44.75,25.32-66-15.42-30.47-44.23-40.42-70.37-24.29-25.12,15.5-31.29,48.37-13.79,73.49,1.59,9.28,7.33,13.31,16.49,13l4.05,3.69c-14.51,7.5-30,1.8-44.91,3.25-.64-2.17-.64-4.95-2-6.42-16.47-17.48-34.67-33.33-49.24-52.62-2.73-3.62-7.21-3-11.26-2.61l.15,0c.49-4.6.36-9-4.39-11.57,1.44-7.59-3.89-13.94-3.1-21.86,3.2-32.23-12.21-44.3-43.4-34.94Z"/><path class="cls-16" d="M398.41,1416.23c-23.24-13.76-23-33.24,1.37-51.24-7.44-7.05-25.94-3.44-20.58-22.83,5.64-20.4,13-28.05,39.71-31.63-17.8-13.72-13.75-36.09-26.24-51.84-5-6.36-4.51-18.12,3.34-25.43,9.32-8.68,21-11.55,31.55-4.15,11.21,7.87,19.66,7.78,30.87-.08,9.41-6.6,21.4-5.91,30.51,2a19.92,19.92,0,0,1,4.09,25.44c-9.94,16.69-6.23,38.52-25.33,54.66,24.15-1,35.65,10.43,40.43,28.47,3.75,14.15-6.07,20.57-19.29,24,27.75,15,28.08,39.24,2.5,55.53C460.5,1414,429.3,1420.09,398.41,1416.23Z"/><path class="cls-9" d="M335.46,1437.62q.48,8.7,1,17.4c-13.26,12.84-16,27.42-7.31,43.92-13.67,3.61-2.42,11.57-3,17.46-19.6,26.15-16.79,44.55,10.44,68.43-27,.18-54,.08-80.94.68-9.47.21-13.34-2.8-13.26-12.68.36-41.34.3-82.68.06-124-.05-8.88,3.24-12.18,12.17-12C281.5,1437.4,308.48,1437.39,335.46,1437.62Z"/><path class="cls-10" d="M391.87,1666.33c35.12,16.57,44.66,80.54-1.88,111.43-2.84,1.88-6,3.27-9,4.88-3.07-.36-5.67.36-7.41,3.15q-1.49.3-3,.51l-6.84.79-14-1c-2.65-3-4.81-6.69-8-8.74-23.56-15-26.67-38.26-22.66-62.16,3.87-23.12,19.35-38,42.25-45.35C371.5,1666.56,381.91,1669.31,391.87,1666.33Z"/><path class="cls-9" d="M646.21,1699.43c.13,24.64.1,49.28.47,73.92.12,8.21-1.87,12.92-11.4,12.76-22.85-.4-45.71-.13-69.89-.13,3.74-12.53,9.72-24.4-4.06-33.1-3.41-2.16-1.21-3.82.65-6.45,10.89-15.48,9.27-22.62-6.65-32.58-3.7-2.32-10.8-4-7.69-9.22,8.65-14.54,1.54-29.06,1.86-43.53a13,13,0,0,0,1.36-3.11c7.46,2.74,15.61,4.35,22.24,8.44A324.14,324.14,0,0,0,646.21,1699.43Z"/><path class="cls-1" d="M646.21,1699.43a324.14,324.14,0,0,1-73.1-33c-6.63-4.08-14.79-5.69-22.25-8.44,3-5.46,6.06-10.84,8.83-16.38,4.64-9.28,3.14-17.65-7.05-21-9.53-3.12-17.08,1.18-19.32,11.64-1.8,8.41-2.87,17-4.27,25.46l-10.52.08c-1.1-6-3.08-12.07-3.14-18.12-.16-16.58-8.65-21.88-23.91-19.23,1.08-8.68-9.32-9.85-10.94-16.75,51.09-.3,102.19-.54,153.28-1,11.3-.1,13,6.6,12.92,15.76C646.39,1645.45,646.36,1672.44,646.21,1699.43Z"/><path class="cls-9" d="M242.48,1229.42c8.14.47,8.09,7.76,9.27,12.67,13.93,58.21,33.8,114.09,64.06,165.93,2.62,4.49,1.11,7.47-.83,11-19.46.11-38.94-.36-58.36.54-11.73.54-14.45-4.24-14.38-15C242.66,1346.17,242.47,1287.79,242.48,1229.42Z"/><path class="cls-10" d="M336.5,1584.82c-27.24-23.88-30-42.28-10.45-68.43,8-.39,14.7-3.62,22.37-10.32-9.42,1.87-12.4-6.73-19.32-7.15-8.73-16.5-5.94-31.08,7.31-43.92,31.19-9.36,46.6,2.72,43.4,34.94-.79,7.91,4.53,14.27,3.11,21.87-5,6.31-.93,9.17,4.39,11.56l-.15,0c9.91,25.21,3.61,45.64-18.17,61.49Zm17.72-85.72c10.63.52,18.26-7.12,17.93-17.06s-4.44-22.55-19.18-21c-11.34,1.2-19.42,9.06-20.13,20.07C332.05,1493.5,340.87,1498.93,354.22,1499.1Z"/><path class="cls-6" d="M558.22,1515.94c15.87,21.29.68,56.79-25.32,66-12.79,5.83-25.55,3.36-38.3-.15l-4-3.68c-.9-2.69-1.64-5.45-2.74-8.05-14.37-34.17,5.12-64.43,42-65.27,4.42-.1,9.27,1.46,13-2.41C549.57,1505.08,548,1517.19,558.22,1515.94Z"/><path class="cls-6" d="M524.06,1716.43c13.58-2,22.6,4.39,26.85,18.9,2.15,7.32.85,12.45-6.07,15.52-10.87,4.82-13.65,13.08-10.71,23.9,1.07,4,3.05,8.39-2.56,9.92a22.84,22.84,0,0,1-11.85.07c-5.41-1.58-3.87-6.07-2.37-10,4.32-11.21-2.26-18.13-10.72-22.35-7.26-3.62-14.06-5.41-10-15.79,3.68-9.5,4.68-21.1,19.18-20.2C518.07,1716.55,520.38,1716.43,524.06,1716.43Z"/><path class="cls-9" d="M369,1584.91c21.78-15.85,28.08-36.28,18.17-61.49,4-.36,8.52-1,11.25,2.61,14.57,19.29,32.77,35.14,49.24,52.62,1.39,1.47,1.38,4.25,2,6.42Z"/><path class="cls-15" d="M391.87,1666.33c-10,3-20.37.22-30.61,3.52-22.9,7.39-38.38,22.23-42.25,45.35-4,23.9-.9,47.19,22.66,62.16,3.23,2,5.38,5.79,8,8.74-8.06,3.38-16.1,3.8-24.13-.07l-7.26-6.66c8.2-6.6.17-11.22-2.35-16-16.17-30.66-10.25-62.18,14.75-86.15,13.35-12.8,30.61-13.61,46.37-19.22C383.52,1658.11,389.68,1658.7,391.87,1666.33Z"/><path class="cls-6" d="M491.47,1620.44c15.26-2.66,23.75,2.65,23.91,19.23.06,6,2,12.08,3.14,18.12-6.44,2.75-12.12,7.79-19.86,6.62C494.65,1650,476.58,1637.93,491.47,1620.44Z"/><path class="cls-6" d="M529,1657.71c1.39-8.49,2.47-17.05,4.27-25.46,2.24-10.46,9.79-14.76,19.32-11.64,10.19,3.34,11.69,11.71,7.05,21-2.77,5.55-5.87,10.93-8.83,16.38a12.88,12.88,0,0,1-1.36,3.11C541.44,1667.45,535.69,1659.86,529,1657.71Z"/><path class="cls-9" d="M249,1209.66c0,4.35-2.7,5.81-6.54,6C242.59,1211.4,244.28,1208.86,249,1209.66Z"/><path class="cls-15" d="M373.55,1785.79c1.73-2.78,4.34-3.51,7.41-3.15q-.22,1.65-.59,3.27Z"/><path class="cls-15" d="M363.72,1787.08l6.84-.79C368.53,1788.8,366.28,1789.25,363.72,1787.08Z"/><path class="cls-1" d="M245.85,1605.73l-3.25,3.73Z"/><path class="cls-13" d="M1554.12,1363.59c-16.93,5.62-33.35,12.43-48.09,22.58-29.48,20.29-47.77,46.66-48.53,84.13a1458.94,1458.94,0,0,0,4.79,149.54c-1.7,23.06,3.87,45.64,4.69,68.57.43,12.1-.69,22.78-8.64,32.15-10.28,4.25-20.91,4.53-31.72,2.8-7.25-6.93-11.21-15.46-13.79-25.15-8.84-33.1-18.19-66.07-27.34-99.09-1.12-6.69-1.76-13.51-3.43-20.06-8.55-33.68-8.64-68.66-16.11-102.49.89-9.05,2.94-18.16,2.48-27.14-1.9-36.58,9-71.26,19.16-105.09,10-33.11,31.24-62,53.75-88.51,20.72-24.36,44.37-46.15,72.92-61.7l26.39,4.69Z"/><path class="cls-14" d="M1524.57,932.23c4-.5,6-2.72,6.29-6.77,3.71-45.71,5-91.44,2.41-137.29-.8-14-.7-28.5,10.71-39.88,9.6-9.57,21.11-16.44,33.72-11,13,5.6,27.71,11.21,29.61,29.83,4.95,48.59,4.06,97,.36,145.67-3.33,43.94-15.14,85-34.89,124.13-7,13.84-18.92,22.77-29.93,32.57-3.95,3.51-8.41,5.88-8.66,11.79-5.63-1-9.4,2.41-14,4.91-28,15.28-56.1,30.69-89,32.83-7.28-.72-11,7.42-18,7.24-3.38.48-6.78.88-10.14,1.46-34,5.87-67.93,11-101.34-2.88-5.37-11.31-4.35-22.38,1.23-33.28,34.36-7.87,70-9.29,103.58-21.11,11.28-1.31,19.8-10.83,31.6-10.58,6.25-4,12.91-7.21,19.48-10.62,26.11-13.59,49.74-30,63.1-58C1529.94,971.73,1522.25,951.79,1524.57,932.23Z"/><path class="cls-6" d="M1524.57,932.23c-2.32,19.56,5.37,39.5-3.91,59-13.36,28-37,44.46-63.1,58-6.57,3.42-13.23,6.61-19.48,10.63-2.73-18.95,2.25-37.51,2.77-56.29q2.55-92.37,11.58-184.32c5.12-.86,12.84,1.53,12.38-7.33-.54-10.41,3.57-21.3-2.64-31.23l-3.89.1-.28-.09c-.07-11.68,2.6-23.33.28-35l-.1.19c5-4.1,4.92-8.6,1-13.39,4.29-13.59,3-28.55,10.05-41.47,10.57,19,18.45,20.59,40.84,8.23,2.75,3.28,3.21,7.17,3.38,11.29,2.42,56.75,4.8,113.5,7.45,170.24C1521.72,897.95,1523.33,915.08,1524.57,932.23Z"/><path class="cls-6" d="M1431.2,1119c32.9-2.14,61-17.55,89-32.83,4.59-2.5,8.37-5.92,14-4.91q3.22,58.79,6.44,117.57l-26.39-4.69c-2.63-1-5.19-2.26-7.9-2.85-29.62-6.41-59.19-2.71-88.77.52l-.59-10.68c3-2.33,3.09-5.8,3.74-9.15C1424.14,1154.31,1427.69,1136.66,1431.2,1119Z"/><path class="cls-16" d="M1147.67,1550.3c-10.52,1.52-17,7.81-20.71,17.44-17.3,5.59-27.83,21.87-44.62,28.29-5.77-3.84-1.71-8.36-.35-12.13,16.9-46.77,23.45-95.27,24.71-144.68,17.65-16.56,13.9-50-7.63-68.19l.16.16-2.41-3-53.09-99.73a204.37,204.37,0,0,0,52.72-13.49c11.58-4.67,19.82-12.91,26.9-22.71,14.42,15.72,23.16,36.32,41.7,48.5.36,5.53-1.87,11.62,2.27,16.38,13.2,15.17,22.78,32.7,32.44,50.11,4.94,8.9,10.9,10.29,19.31,6.13,8.68,37.88,6.15,74.65-9.51,110.6-6,13.75-17.46,24.24-21.58,38.88-9.53,4.12-11.9,14.3-18,21.29C1162.92,1533.19,1148.85,1536.25,1147.67,1550.3Z"/><path class="cls-1" d="M790.19,1740.82c-11.38,2-19.23-1.87-22.2-13.62,7.32-48.16,15-96.27,21.87-144.5,8.27-57.92,20.34-115.27,26.28-173.54,14.41-15.67,17.48-38.06,31-54.23l5.19,1.15Z"/><path class="cls-5" d="M1165.05,1280.76c-18.53-12.18-27.28-32.78-41.7-48.5,2.67-30.65-.61-60.39-12.89-88.9-1.83-4.24-2.83-8.69-7.19-11.16-5.31-23.56-9.42-47.47-20.93-69.15,7.93-3.09,6.09-16.57,17.25-16.24a235.44,235.44,0,0,0,19.19,52.8c6.65,15.69,8.45,33.58,21.1,46.55,9.74,35,29,65.66,45.27,97.64,3.69,7.24,7.76,13.94,7.39,22.34C1185.69,1275.35,1177.1,1281.3,1165.05,1280.76Z"/><path class="cls-5" d="M964.56,1153.18c1.62-13-.68-20.17-17.06-21.6-31.69-2.76-63-9.08-92.24-23-18.13-8.64-35.11-18.45-48.08-34.4-4-4.92-5.09-10-5.56-15.69a130.94,130.94,0,0,1,41,23.84c52.11,44.71,108.3,49.16,169.12,16.91,5.43-2.88,10.44-11.5,18.08-4.93,7.24,6.22-3.37,9.39-3.49,14.56-.06,2.86-1.34,6.07-.44,8.53,6.75,18.31-3.48,19.66-17.46,18.44-8-.7-16.15.4-24.15-.31-13-1.15-18.2,4.46-16.72,17A8.11,8.11,0,0,1,964.56,1153.18Z"/><path class="cls-11" d="M916.06,1343l-38.77,1.23-22.63-1.37c6.62-16.09,18.75-28.16,29.79-41-1.23,10.32,6.76,14.76,13,20.17C904.64,1328.24,913.59,1332.75,916.06,1343Z"/><path class="cls-11" d="M888.77,1298.76l-3.86,2.68Z"/><path class="cls-2" d="M1040.45,846.8c22.52,18.17,47.33,34.63,41.54,70-2.2,13.43-9.59,24.11-14.83,36-8.59,5.88-14,16.5-25.86,17.48-18.13-11.35-20.33-17.88-12.54-37.25,6.7-16.66-1.87-29.45-19.82-28.8-3.84.14-7,.15-8.87-3.08-8.51-14.86-20.94-14.82-34.88-9.61-16.41-4.58-18.31-8.92-7.28-21.41,14-15.8,33.06-22,53.36-24C1020.88,845.13,1030.72,846.49,1040.45,846.8Z"/><path class="cls-5" d="M1041.3,970.27c11.9-1,17.28-11.6,25.86-17.48,5.58,4.61,6,11.62,8.17,17.79l12.34,44.07-10.68,4.25-11.31-3.43c-1.51-9.58-8.53-14.79-16.37-18.05C1034.83,991.39,1034.4,982.14,1041.3,970.27Z"/><path class="cls-12" d="M1065.69,1015.46l11.31,3.43c-9,11.26-3.21,15.76,8.13,17,19.84,2.24,39.66,5.1,59.73,3.75,5.64-.38,11.45-1.54,16.33,2.73q.06,1.39.24,2.77a2.78,2.78,0,0,1-1.38,1l-12.58,1.73-6.15.39-21.77-.62a42.27,42.27,0,0,0-20-.89c-11.16-.33-9.32,13.15-17.25,16.24-11.94,3.11-19.8-1.65-24.94-12.47C1050.73,1036.53,1054.43,1025.16,1065.69,1015.46Z"/><path class="cls-4" d="M895.2,522.22c6,.06,10.71-.06,11.57,4.84.77,4.36-4,5-6.89,6.18-7.64,3.21-12.68,9.17-17.78,15.25-2,2.44-3.87,6.66-7.83,5.12-4.86-1.88-3.39-6.83-2.69-10.41C874.3,529.33,885,524.74,895.2,522.22Z"/><path class="cls-1" d="M1087.67,1014.64l-12.34-44.07,43.25.26q.24,18.62.48,37.23C1107.89,1006.88,1098.49,1014.15,1087.67,1014.64Z"/><path class="cls-4" d="M1129.48,895.24c6.12,1,10.14,4.75,10.62,11,.42,5.36-3.36,8.27-8.46,8.7-6.57.56-11-2.16-11.62-9.27C1119.47,899.09,1124.16,897.06,1129.48,895.24Z"/><path class="cls-1" d="M1427.47,655.85c-6.7-16.5-8.77-33.67-7.46-51.32,23.69-8.36,41.94-24.65,60-41.23l10-5c.73,3.78,3,8.08,1.94,11.25-6.42,19.18,6.12,18.94,18.66,19,3.11,3.32,3,7.32,2.37,11.42-8.48,4.14-10.39,15.38-19.91,18.4.49-2.22.31-5,1.57-6.57,15.6-19.84-12.3-15.37-14.24-25.49-.64-3.36-3.14-6.64-7.27-5.74a17.06,17.06,0,0,0-7.23,4.17c-10.16,9.15-20.94,17.43-33.4,23.17-4.75,2.19-5.56,5.44-4.3,9.66,4.86,16.22,30.5,24.18,43.25,13.18,5.69-4.91,10.51-10.78,19.16-9.11-18.1,13.77-28.44,30.73-22.28,54.43C1448.84,681.17,1441,662.81,1427.47,655.85Z"/><path class="cls-10" d="M1510.6,588.6c-12.54-.09-25.08.16-18.66-19,1.06-3.18-1.21-7.47-1.94-11.25,5.75-9.14,12.33-18.17,24.41-10.51,14.35,9.11,13.23,22.28,6.62,35.89-7-4.91-3.62-16.83-15-20.67Z"/><path class="cls-1" d="M1436.47,777.15c-2.73,16.54-10.67,30.8-19.54,44.66-7.19-10.92-4-23.27-2.74-34.44C1415.56,775.32,1429.73,782.5,1436.47,777.15Z"/><path class="cls-14" d="M1161.43,1045.18c27.09-.68,50.89-12.48,75.31-22.22,5.1-2,9.49-6.87,15.86-4.31,4.68-.26,8.52-1.56,8.81-7.19l-.21.24c11.61-2.85,23.24-5.61,34.81-8.56,53.38-13.64,80.09-57.4,90.08-108.67,1.11-5,4.45-8.24,8.45-11,7.1,4.33,6.18,10.86,5.83,17.93-.86,17-1.83,34.12.78,51.18,3.2,20.92,4,41.88-1.52,62.63-8.86,7-16.06,15.59-26.39,21.26-59,32.44-122,40.24-187.5,30-13.37-2.08-30.59-.28-38.31-17.07,4.11-1.4,9.31,1.39,12.59-3.25A2.76,2.76,0,0,0,1161.43,1045.18Z"/><path class="cls-7" d="M1399.64,1015.21c5.53-20.75,4.72-41.71,1.52-62.63-2.61-17.06-1.64-34.14-.78-51.18.36-7.07,1.27-13.59-5.83-17.93a6.2,6.2,0,0,1,1.78-2.87l2.81-4.64L1413,849.4l16.42-27.85,23-2.3q-9,92-11.58,184.32c-.52,18.78-5.49,37.35-2.77,56.29-11.8-.26-20.32,9.27-31.6,10.58,0-9.09,1.65-18.54-.35-27.16C1404,1034,1409,1022.79,1399.64,1015.21Z"/><path class="cls-1" d="M1386.1,894.46c-10,51.27-36.7,95-90.08,108.67-11.58,3-23.21,5.71-34.81,8.56,31.42-23.4,63.84-45.65,89.8-75.51C1362.92,922.47,1374.41,908.38,1386.1,894.46Z"/><path class="cls-1" d="M1261.41,1011.46c-.29,5.64-4.13,6.93-8.81,7.19C1254.25,1014.67,1257,1012.09,1261.41,1011.46Z"/><path class="cls-14" d="M1399.14,876l-2.81,4.64Z"/><path class="cls-10" d="M1493.06,618.42c9.52-3,11.43-14.26,19.91-18.4,2.22,10.49,1.08,20.44-6.67,28.33-8.07,8.2,3,20.2-6.17,27.87-11.65,5-17.2,19.66-31.8,19.9-6.16-23.7,4.18-40.66,22.27-54.43Z"/><path class="cls-1" d="M1452.43,819.25l-23,2.3,17.85-45.3L1458,780.7l.28.09c1.35,2.22,2.64,1.81,3.89-.1,6.21,9.93,2.1,20.82,2.64,31.23C1465.26,820.77,1457.54,818.39,1452.43,819.25Z"/><path class="cls-3" d="M1458,780.7l-10.76-4.45c3.36-10.31,3.59-21.74,11-30.58C1460.6,757.37,1457.93,769,1458,780.7Z"/><path class="cls-3" d="M1459.19,732.48c3.9,4.78,4,9.28-1,13.39Z"/><path class="cls-1" d="M1082.34,1596c16.78-6.41,27.31-22.69,44.62-28.29l6,38.59c-22.35,14.57-47.65,23-71.6,34.16C1061.46,1622.42,1073.47,1610,1082.34,1596Z"/><path class="cls-4" d="M1099.07,1371c21.53,18.15,25.28,51.63,7.63,68.19C1108.33,1416,1100.16,1393.92,1099.07,1371Z"/><path class="cls-4" d="M1096.82,1368.19l2.41,3Z"/><path class="cls-7" d="M1489.5,1796c-47.49,4.11-95.06,3.39-142.65,3-40.15-.32-80.31.29-120.46.49-.21-6.28,7-8.34,8-14,12.18-3.72,25.84-3.59,35.58-13.66,6.77.13,12.57-1.92,16.86-7.43,8.21-.36,16.14-1.72,23.09-6.53,9.92-6,22.45.77,32.08-6.61,1,2.6,1.36,6.12,3.27,7.66,9.17,7.4,12.35,25.49,27.09,21.89,19.61-4.78,39.51-10.84,56.27-23.37l34.05-2.86C1474.68,1766.41,1491.17,1775.31,1489.5,1796Z"/><path class="cls-10" d="M1462.66,1754.62l-34.06,2.86q-1-17.06-2-34.12c10.81,1.73,21.44,1.45,31.72-2.8C1463.85,1731.4,1461.13,1743.28,1462.66,1754.62Z"/><path class="cls-1" d="M1399.64,1015.21c9.38,7.57,4.33,18.74,6.5,28.07,2,8.62.38,18.07.35,27.16-33.55,11.82-69.23,13.24-103.59,21.1-32.54-14.31-60.14-3.9-85.67,17-3.7,3-7.18,6.73-5.66,11.56,1.67,5.29,7.24,5.6,11.66,4.78,26.18-4.91,52.31.74,78.45-.1,33.41,13.9,67.37,8.75,101.34,2.88,3.36-.58,6.76-1,10.15-1.46-.73,18.43-2.19,36.92,3.82,54.89q.3,5.34.59,10.68l-.24.32c-2.13-.16-3.05,1-3.33,3-19.93,19.8-40.43,39.08-59.69,59.51-51.89,55-83.6,117.89-80.61,196.32,1.7,44.69,3.09,89.37,6.24,134-21.43,2.05-43.22-2.92-64.43,3.4-6.27,1.87-8.93-3.65-12.91-6.47q-7.31-39.5-14.62-79c4.11-14.64,15.59-25.13,21.57-38.88,15.66-35.95,18.18-72.72,9.51-110.6q.06-10.14.1-20.27c.7-4.85,2.25-9.87-2.6-13.67l-.09-.19c.49-2.9,0-5.46-2.48-7.35-1.54-17.88-2.32-36.12-21.45-45.75.37-8.4-3.71-15.1-7.39-22.34-16.28-32-35.53-62.62-45.27-97.64q.72-48.92,1.44-97.85l6.14-.39s0,1.53,0,1.53c7.72,16.78,24.94,15,38.31,17.07,65.47,10.2,128.46,2.4,187.5-30C1383.58,1030.8,1390.78,1022.2,1399.64,1015.21Z"/><path class="cls-9" d="M1202.61,1581.85c4,2.81,6.64,8.34,12.91,6.47,21.21-6.32,43-1.35,64.43-3.4a1.33,1.33,0,0,1-.2,1.68c-.63,5.56-2.83,11.38,2.62,15.94l11.52,76.36-23.95,93c-9.75,10.07-23.4,9.94-35.58,13.66q-15.35-94.13-30.63-188.27C1202.9,1592.2,1203,1587,1202.61,1581.85Z"/><path class="cls-1" d="M1147.67,1550.3c1.18-14.05,15.25-17.11,22.3-26.15q4,29,7.93,58.06c-2.74,11-8.6,18.13-21.1,17.07Q1152.22,1574.79,1147.67,1550.3Z"/><path class="cls-4" d="M377.09,1658c-15.75,5.61-33,6.42-46.37,19.22-25,24-30.92,55.5-14.75,86.15,2.52,4.78,10.55,9.4,2.35,16-37.57-25.86-40.51-67.78-22-96.32C314.29,1655.36,345.12,1645.78,377.09,1658Z"/><path class="cls-5" d="M558.22,1515.94c-10.2,1.25-8.65-10.85-15.39-13.53-30-11-58.63,3.67-66.73,33.76-2.6,9.67-.54,19.38-2,29-17.5-25.12-11.33-58,13.79-73.49C514,1475.52,542.8,1485.47,558.22,1515.94Z"/><path class="cls-15" d="M474.06,1565.14c1.5-9.59-.56-19.31,2-29,8.1-30.09,36.75-44.8,66.73-33.76-3.77,3.87-8.62,2.31-13,2.41-36.86.84-56.35,31.1-42,65.27,1.1,2.61,1.84,5.37,2.74,8.05C481.39,1578.45,475.65,1574.42,474.06,1565.14Z"/><path class="cls-9" d="M387.32,1523.39c-5.31-2.39-9.38-5.26-4.39-11.56C387.68,1514.43,387.81,1518.79,387.32,1523.39Z"/><path class="cls-16" d="M329.11,1498.93c6.92.42,9.91,9,19.32,7.15-7.67,6.7-14.39,9.92-22.37,10.32C326.69,1510.51,315.44,1502.55,329.11,1498.93Z"/><path class="cls-16" d="M354.22,1499.1c-13.35-.17-22.17-5.6-21.37-18,.71-11,8.79-18.87,20.13-20.07,14.74-1.55,18.85,11,19.18,21S364.85,1499.62,354.22,1499.1Z"/><path class="cls-12" d="M1293.88,1678.9l-11.52-76.36c.36-5.52,1.25-11.12-2.62-15.94a1.33,1.33,0,0,0,.2-1.68c-3.15-44.61-4.54-89.29-6.24-134-3-78.44,28.72-141.3,80.61-196.32,19.27-20.43,39.76-39.71,59.69-59.51l3.33-3,.24-.32c29.57-3.23,59.15-6.93,88.77-.52,2.71.59,5.27,1.88,7.9,2.85-28.54,15.54-52.2,37.33-72.91,61.69-22.51,26.47-43.77,55.41-53.75,88.51-10.19,33.83-21.06,68.51-19.16,105.09.47,9-1.58,18.09-2.48,27.14-4.36,38.47-10.61,76.78-10.58,115.65-1.42,16.6-2.05,33.32-4.45,49.78-3.61,24.81.91,50.85-11,74.43-11,6.36-22.17,6.37-33.42.64l-3.6-6Z"/><path class="cls-9" d="M1339.94,1716.43c11.88-23.58,7.36-49.62,11-74.43,2.4-16.46,3-33.18,4.45-49.78l30.12,6.9c9.16,33,18.51,66,27.34,99.09,2.58,9.69,6.54,18.22,13.79,25.15q1,17.05,2,34.11c-16.76,12.53-36.65,18.59-56.26,23.37-14.74,3.6-17.92-14.49-27.09-21.89-1.91-1.54-2.22-5.05-3.27-7.66Q1340.95,1733.86,1339.94,1716.43Z"/><path class="cls-1" d="M1385.48,1599.13l-30.12-6.9c0-38.88,6.23-77.18,10.58-115.65,7.48,33.83,7.56,68.82,16.11,102.5C1383.72,1585.62,1384.37,1592.43,1385.48,1599.13Z"/><path class="cls-10" d="M1301.67,1124.83c-26.14.84-52.28-4.81-78.45.1-4.42.83-10,.52-11.66-4.78-1.52-4.83,2-8.52,5.66-11.56,25.53-20.95,53.14-31.35,85.67-17C1297.32,1102.45,1296.3,1113.52,1301.67,1124.83Z"/><path class="cls-7" d="M1417,1181.13c-6-18-4.55-36.46-3.82-54.89,7,.18,10.76-8,18-7.24-3.5,17.66-7.05,35.3-10.47,53C1420.08,1175.33,1420,1178.8,1417,1181.13Z"/><path class="cls-3" d="M1462.17,780.69c-1.25,1.91-2.54,2.33-3.89.1Z"/><path class="cls-10" d="M1192.55,1266.14c19.13,9.63,19.92,27.87,21.45,45.75-.76,3-.44,5.61,2.49,7.35l.09.19c0,4.73-1.29,9.69,2.6,13.67q0,10.14-.1,20.27c-8.41,4.16-14.38,2.76-19.32-6.13-9.66-17.4-19.24-34.93-32.44-50.11-4.14-4.76-1.91-10.85-2.27-16.38C1177.1,1281.3,1185.69,1275.35,1192.55,1266.14Z"/><path class="cls-4" d="M1141.33,1048.31q-.72,48.92-1.44,97.85c-12.65-13-14.45-30.86-21.1-46.55q.39-26,.77-51.92Z"/><path class="cls-7" d="M1119.55,1047.69q-.38,26-.77,51.92a235.53,235.53,0,0,1-19.19-52.81A42.28,42.28,0,0,1,1119.55,1047.69Z"/><path class="cls-4" d="M1147.45,1049.44s0-1.53,0-1.53l12.59-1.73C1156.76,1050.84,1151.56,1048,1147.45,1049.44Z"/><path class="cls-7" d="M1493.06,618.42l-2.46,3.27c-8.64-1.67-13.46,4.2-19.15,9.11-12.75,11-38.38,3-43.25-13.18-1.27-4.22-.45-7.47,4.3-9.66,12.45-5.74,23.23-14,33.4-23.17a17.06,17.06,0,0,1,7.23-4.17c4.14-.9,6.63,2.38,7.27,5.74,1.94,10.11,29.84,5.65,14.24,25.49C1493.37,613.45,1493.55,616.2,1493.06,618.42Z"/><path class="cls-2" d="M1293.88,1678.9l9,32.23c-10.69,16.16-11,35.48-16.13,53.31-4.28,5.51-10.09,7.56-16.85,7.43Z"/><path class="cls-10" d="M1339.94,1716.43q1,17.43,2,34.86c-9.63,7.38-22.16.65-32.08,6.61-5.48-13.25-2.36-27.21-3.36-40.83C1317.78,1722.81,1328.92,1722.8,1339.94,1716.43Z"/><path class="cls-1" d="M1306.52,1717.08c1,13.62-2.12,27.58,3.36,40.83-7,4.81-14.88,6.17-23.09,6.53,5.16-17.83,5.43-37.15,16.13-53.31Z"/><path class="cls-16" d="M1219.18,1333.11c-3.89-4-2.63-8.94-2.6-13.67C1221.43,1323.24,1219.88,1328.25,1219.18,1333.11Z"/><path class="cls-16" d="M1216.48,1319.24c-2.93-1.74-3.25-4.36-2.49-7.35C1216.48,1313.78,1217,1316.34,1216.48,1319.24Z"/><path class="cls-6" d="M1417.33,1192.13l-3.33,3C1414.28,1193.18,1415.2,1192,1417.33,1192.13Z"/><path class="cls-1" d="M1279.74,1586.6c3.87,4.82,3,10.42,2.62,15.94C1276.91,1598,1279.11,1592.16,1279.74,1586.6Z"/></g></svg>