<svg xmlns="http://www.w3.org/2000/svg" viewBox="0 0 2100 2100"><defs><style>.cls-1{fill:#d1f2f8;}.cls-2{fill:#88c9de;}.cls-3{fill:#e0f6fa;}.cls-4{fill:#a5d9e7;}.cls-5{fill:#2b2f4e;}.cls-6{fill:#95cddf;}.cls-7{fill:#f8c4b8;}.cls-8{fill:#fdfdfd;}.cls-9{fill:#5698b5;}.cls-10{fill:#f4f5f5;}.cls-11{fill:#db8c74;}.cls-12{fill:#f09c7f;}.cls-13{fill:#ec9a80;}.cls-14{fill:#ea6d52;}.cls-15{fill:#d4523f;}</style></defs><title>mom1</title><g id="Layer_1" data-name="Layer 1"><path class="cls-1" d="M356.68,1069.44q0-24-.08-48.05c13.07,13.75,19.84,31.15,27.34,48,1.59,3.57,1.62,9.24,6.27,8.42,6.58-1.16,3.34-6.86,2.78-11-2.61-19.35-11-37.2-15.08-56-3-13.69-8.24-18.8-21.36-17-1.23-54.83,5.66-109,18.48-162,8.48-35.05,20.83-69.26,33.89-103.12,4.43-11.48,10.46-22.43,13.63-34.41,5.16,2.29,10.32,4.61,15.51,6.86,46.05,20,90.66,20.08,133.54-9,10.92-7.39,9.24-11.51-2.19-14.91.5-5.86,5.61-8.44,9-11.95,14-14.33,26.28-30.4,31.37-49.56,13.75-51.71-8.93-121-69.64-139.57-37.57-11.5-71.45-12.66-103.81,11.61-5.35,4-11.51,4.61-17.9,4.28a11.48,11.48,0,0,1-7-7.07c15.86-21,39.11-30.26,63.31-33.45,31.89-4.2,64-1.49,92.53,16.36,6.06,3.79,9.28,1.78,13.14-2.21,28.74-29.72,62.44-53.33,98.2-73.13,39-21.6,80.07-39.58,120.32-59,35.7-17.19,71.62-33.91,107.18-51.38,6.75-3.31,13.15-6.53,20.74-6.71,1.12,21.59,2.15,43.19,3.45,64.77.27,4.45.59,14.06,7.43,7.34,19.78-19.45,45-12,67.74-16.66l.22,34c-17.28-.49-33.37.4-48.08,12.89-13,11.08-9.16,25.08-11.29,37.92a209.91,209.91,0,0,0,1.08,74.87c1.53,7.87,6.4,11.07,11.55,6.18,13.12-12.47,29-11.44,44.68-11.55,38.37-.28,76.74,0,115.11-.13,16.31-.05,33.85-11.84,34.67-24.46,1-14.77,5.89-29.21,3.71-44.21,20.52,0,41,.3,61.56-.07,12.95-.23,24.89,2.53,35.6,9.69,11.69,7.81,16.38,4.46,16.31-9.05-.16-32.49-1.65-65.09.55-97.44,1.76-25.83-21.36-47.74-46.87-47.51-9.69.09-19.38-.18-29.06-.29-.08-11.91-.18-23.81-.23-35.72-.11-25.75-10.56-39.42-35.29-47.26-14.5-4.6-29.33-.91-43.9-2.78,8.59-13.32,24.44-13.7,36.81-17.33,45.24-13.26,90.59-26.3,139-24.08,64.3,2.95,122.94,20.35,177.38,55.42C1519.74,232.85,1559,275.87,1593.6,324c31.87,44.39,56.66,92.91,78,142.91A545.7,545.7,0,0,1,1711,614.27c5.8,46.71.77,91.64-10.33,136.85-13.53,55.1-26.11,110.6-30.76,167.24-1.94,23.63,1.33,47.79,3.32,71.62,3.22,38.54,9.11,76.75,20,113.91,8.41,28.63,16.51,57.52,27.55,85.17,23.15,58,55,111.68,86.06,165.64.81,1.4,2.42,2.33,3.65,3.48-3.82,12.88-7.54,25.79-11.54,38.61-.83,2.64-2.68,5.52-6.18,4.44-3.67-1.14-3.09-4.54-2.17-7.12,3.16-8.89,2.22-18.09,2.4-27.2.09-4.83-1.23-9.25-6.27-11.11-5.25-1.94-8.43,1.82-11.9,4.83-6.07,5.26-6.64,13.06-9.51,19.8-3.49,8.2-25.43,22.59-30.77,20.26-8.45-3.68-14.38-22.86-10.21-34.93,4.08-11.81,7.42-23.83,14-34.83a45.48,45.48,0,0,0,6-28.05c-2.07-20.05-20.14-29.26-35.24-17.61-11.53,8.89-15.36,22.15-15.77,36.14-.47,16,0,32-.28,48.06-.08,4,2.42,10.82-4.5,10.68-5.51-.11-5.5-6.31-5.68-10.94s.33-9.31-.71-13.67c-1.43-6-2.87-13.25-10.58-13.93-7.53-.66-10.61,5.43-12.93,11.57a51.11,51.11,0,0,0,1.17,40.11c5.61,12.36.5,20.53-7.16,29.13-3.64,4.08-7.7,5.75-12,3.43-10.22-5.48-12.62-15.08-13.07-26.07-.66-16.28,5.38-31.4,6.89-47.23,2-21.1-4.85-34.34-17.71-35.81-15.15-1.73-28,12.41-29.88,32.85-.25,2.84-.07,5.72-.1,8.58-.23,20.26,7.88,38.81,12,58.18.69,3.27,2.76,7.19-1.5,8.83s-5.88-2.55-7.24-5.53c-2.37-5.18-4.22-10.59-6.4-15.86s-5.94-8.51-11.94-7.62c-5.44.8-7.59,5.46-8.28,9.83a72.49,72.49,0,0,0,1.31,28.76c3.95,16.44,17.61,26.45,24.62,40.73,3.94,8,12,17,5,24.76-6.55,7.33-14.43-2.06-21.42-4.84-13.4-5.33-30-.24-33.67,10.84-4.2,12.5,4.51,28.82,18.11,32.59,5.39,1.49,11.31,1.1,17,1.46,10.3.64,20.6,1.69,29.09,8.17,4.46,3.4,9.35,7.65,5.76,14.4s-9,3.36-13.46,1.46c-13.32-5.69-22.13-1.7-26.88,11.71-3.7,10.44,3.39,27.53,14.91,28.5,27.94,2.35,53.66,15.83,82,14.93,10.63,3.77,15.7,11.77,18.42,22.37,2.26,8.8,6,17.22,9.07,25.81-22.44,12.94-46.78,24.17-52.61,53.31a194.16,194.16,0,0,0-.6,74.91c5,25.48,25.34,41.5,47.63,56.88h-259.5c1.23-7-1.56-13.28-3.57-19.7-5.57-34-.15-66.34,12.15-98.41,9.17-23.9,20.09-47.2,26.25-72.27,15-60.82,11.44-122.3,7.51-183.84,7.1-.68,8.76-5.49,10.1-11.68,5.89-27.21,12.78-54.2,18.38-81.47,10.66-51.86,17-104.59,17.78-157.26.66-44-3-88.61-16.12-131.47,47.68-49.39,77.76-108.24,93.13-174.76,13.9-60.19,5.37-117-27.94-169.48-9.18-14.48-18.1-29.15-27.86-43.24-27.49-39.71-48.35-81.3-46.27-131.71.87-21.24-4.35-42.11-17.36-60-21.87-30-50.81-46.81-88.42-41.14-43.33,6.53-74.4,30.77-90.61,72.11-3.52,9-3.89,18.82-1.59,28.73,5.22,22.53,10.83,25.52,31.62,15.7.33,5.62.71,11.23,1,16.85,1,19.47,12,30.58,32.7,32.78l1.9,1.9c-4.64,13.85,1.23,27.23,10,23.2,23.31-10.77,22.46,6.26,27.33,19.46,3.08,8.33,2.38,16.68,3.81,25-10,19.85-30.17,26-47.77,35.69-9.33-11.52-17.39-25.08-35.75-22.12-.76.12-1.89-1.21-2.64-2.05-18-20.11-40.48,1.18-59.84-6.51-.69-.27-2.15.78-3,1.52-15.62,14.25-30.85,28.68-21.3,53-1.87,6.78-8.73,14.8-.9,20.25,12.14,8.44,15.06,22.2,22.74,33.11-10.85,7.73-10.22,21.77-17.37,31.54-7.63-.86-12.55,4.62-18.22,8.07-8,4.9-16.44,7.95-25.82,5.87-6.56-1.46-12.9-5.28-16.94,4.29-4.32,10.23-5.49,18.65,4.52,27,6.58,5.48,12.21,10,20.27,4.89,10.91-6.88,23.28-8.29,35.43-10.67,5.42,19.28-7.15,23.84-21.84,28.49-33.94,10.74-48.35,57.47-27.53,87.11-3.06,7.11-4.21,15.19-11.47,20.07-3.61,2.42-8.09,5.3-5.72,10.84s7.57,6.28,12.83,6c12.23-.61,22.24-7.55,33.17-11.86,3.08,11.29-2.6,25.69,11.7,33,1,8.39-5.56,13-9.46,18.92-5.66,8.61-2.71,11.47,7,12,8.53.47,14.37-6,22.22-6.63-4.18,29.13-6.77,58.6-12.88,87.32-12.36,58.09-19,116.52-17.91,175.93.29,16.53,5.76,32.62,3.24,49.26-4.32,5.53-5.86,10.52,2.65,13.54q.4,10.41.81,20.82c-12.26,40.84-8.49,80.14,12.28,118.15-2.51-15.56,12-28,6.57-44.22-1.51-4.47,3.27-5.07,6.59-5.79,3,6.74,6.57,13.35,5.43,21.16-8.1,17.91-12.6,36.71-14.68,56.52a69.76,69.76,0,0,1,26.53-26.2c2.76,1.28,2.92,3.62,2.53,6.18.31,8.3-2.38,15-8,21.58-6.9,8.15-12.84,17.45-15.91,28-.93,3.2-1.22,7,2.7,8.9,3.09,1.48,5-.88,7.35-2.58,9-6.48,16.39-14.71,24.36-24,5.79,11.79.8,19.12-5.14,25-12.81,12.71-15.54,31.56-28.06,44.34a5.69,5.69,0,0,0,.05,7.83c2.34,2.53,6,2.36,7.64.28,12.51-15.93,35.23-23.49,38.68-46.79,1.12-7.55,6.11-2.08,9.2-3,2.32,3.91,4.69,7.8,7,11.74,19.87,34.53,33.25,72.09,50.34,107.93,14.66,30.74,9.13,47.31-18.93,66.63-5,3.46-11.5,5.28-14.65,11.25-5.12-2.06-9.79-4.21-15.28.31-10,8.26-22.26,12.31-34.55,16-6.11-1.6-12.21-3.22-18.33-4.81-8.6-2.24-11.64-10.57-17.38-15.94-13.64-12.77-21.79-10.74-26.61,6.67-2.46,8.89-3.94,17.79-3.35,27l-13.65,0c3.19-12.69-14.72-8.62-15.44-18.22,6.19-6.22,17.36,6.33,20.63-6.34,2.38-9.23,9.72-16.43,8.83-27.21-1-11.76,7.6-13.11,14.1-6.66,10.8,10.73,28.65,12.39,35.17,28.41,1.37,3.38,7.44,3.79,9,1.4,8.67-13.15,20.74-24.46,23.69-40.86.48-2.66.64-6.19-2.47-7.5-4-1.69-6.65,1.63-8.3,4.35-4.14,6.83-7.53,14.1-11.44,21.07-1.55,2.77-5.6,8.05-6.84,5-5.07-12.52-21.22-11.54-26.25-23.95-6.83-16.83-21.15-19.75-37.86-18.93-15.23.75-13.69,12.66-16.8,21.75-.79,2.31-1.52,4.22-5.51,3.65-1.48-13.14,2.76-25.74,8.08-37,6-12.68,19-15,29.28-5.29,7.39,7,16.17,10.32,24.53,14.41,9.49,4.64,21.49,8.95,30.54,1,12.15-10.73,24.69-22.39,23.2-41.36-.62-7.92-3.7-9.06-9.48-3.94a61.78,61.78,0,0,0-18.12,28.06c-1.52,4.81-3.78,9.35-9.25,7.69-6.81-2.07-5.28-8.85-3.44-13a66.4,66.4,0,0,1,22.47-27.62c8.69-6.13,11.6-15.28,16-23.77,2.14-4.16,3.49-9.26-1.33-12.28-4.29-2.68-8.73-.81-12.52,2.49-7.87,6.86-15.54,14.71-18,24.53-4.37,17.3-12.7,11.58-21.4,5.16-3-2.21-4.24-6.67-6.91-9.5-11.91-12.6-21.39-27.65-36.49-37-4.41-2.74-9-5.1-13.82,0-4.44,4.75-6.07,10-2.72,15.55,2.59,4.31,6.27,8,9.78,11.7a96.64,96.64,0,0,0,46.12,27.52c6.67,1.76,10.83,6.43,10.86,13.64,0,2.68-.64,7.35-1.94,7.71-7,2-11.57-3.14-16-7.45-9.77-9.42-20.35-16.57-34.89-14.42-11.63,1.72-17.26-2.65-15.82-15.08.41-3.54,2-8.88-3.05-10.45-4.6-1.43-6.62,3.23-9.16,6.18-2,2.27-.42,7.45-6.87,6.94-1.66-8.13-3.46-16.25,2.3-23.86,3.71-4.9,3.61-9.33-.64-13.77-3.94-4.11-8.39-6.61-13.51-2.52-7.44,5.95-8.91,1.82-11.07-5-1.64-5.17-5-9.85-7.16-15.05-2.52-6-7.23-16.36-15.66-10.09-5.35,4-14.09,10.19-6.41,22.72,7.93,12.94,16.15,25.93,23.33,39.36,3.13,5.85,15.29,11.31,7.73,18-6.32,5.56-13-5-19.1-9-6.46-4.22-14.08-9.54-19.71-2.17s4.38,11.93,8.34,16.07c8.35,8.74,19.43,13.62,31.74,15.33,5.08.7,9.12,4.16,7.08,9.48-2.23,5.81-7,1.45-10.16.32-3.61-1.28-6.47-5-10.08-5.9-9.05-2.16-18.53-.17-22,8.64-3.65,9.34,7.32,8.22,12,10.63,10.19,5.26,21.79,5.95,33.06,7.33,10.14,1.25,16.69-1.2,15.68-13.55-.43-5.22,1.38-10.64,9.12-12.47-.95,9.15-1.73,16.91-2.56,24.66-1.74,16.14-7.67,20.24-24.15,16.8-5.9-1.23-13.21-5.1-16.18,3.22-3.29,9.21,6.71,9,11.23,12.06,10.34,7,24.91,5,35.18,14.58-7.76,5.34-13.12.69-18.62-1.75-4.4-1.95-7.86-1.57-10.05,2.86-1.78,3.6-1,7,3.1,8.23,18,5.37,18.3,15.13,7.53,28.2-1.3,1.58-1.17,4.33-1.7,6.54l-179.49-.43c.5-9.75-3.58-16.69-12.92-19.87a108.67,108.67,0,0,1-35.62-20.08c-4.78-4.05-9.62-6.6-14.55-.17q-2.3-4.41-4.58-8.83c-.76-3.9-3.31-5.56-7.1-5.64l0,0c-.5-5.33,1.75-9.51,4.6-13.92,3.48-5.42,2.25-11.17-5.27-9.1-13.1,3.6-8.68-5.7-9.64-11.3,4.4-10.27,11.34-15.89,23.29-13.87,6.95,1.18,13.28-2.24,19.54-4.64,3.6-1.38,7.35-4.17,7.07-8.59-.3-4.85-5.22-6.21-8.75-6.51-8.78-.75-17.59-2.39-26.42,1.53-7,3.12-14.53,3.79-18.16-5.73l.72-6.94c10.73-5.59,6.69-13.1,2.67-20.6l1-14,5.93-3.15v32.79c8.12-1.72,12.95-5.57,19.56-5.61,13-.08,26-1.66,38.9-3.35,8.52-1.11,16.1-6.14,15.53-15.05-.64-9.95-9.92-8.83-17.4-8.8-12.32,0-23.24,5.53-33.72,10.48-13.21,6.24-16.62,2.16-16-10.46,4-4,8.14-6.66,14.55-7.18,19.67-1.58,39.26-4.25,58.83-6.88,6.35-.85,12.32-3,12.46-11.32.16-9.22-6.27-11.46-13.37-12.13A41.35,41.35,0,0,0,962,1645c-16.77,4.1-30.9,15.25-48.56,17.6-9.76,1.3-11.33,9.89-10.49,18.57h-6.88l-.28-38.72,11.49-135.61c19.85,3.12,27.55-5.64,28.89-25.41,2-28.86,5.88-57.59,5.11-86.62,13.27-1.31,19.24-7.71,16.77-21.73-1.25-7.07-.26-14.54-.28-21.83,8-.09,9.93,6.34,13,11.75,3.6,6.43,7.42,12.73,11.21,19,1.72,2.88,3.53,6.9,7.52,5.1s1.93-5.68.94-8.87c-5.51-17.7-10.2-35.7-16.71-53-5.11-13.6-4.13-30.5-19.24-39.27a123,123,0,0,1-3.58-23.54c-2-50-2.63-100.25-7.64-150-2.39-23.75-.08-47.71-5.37-71.38-3.27-14.62-2-30.26-2.74-44.68,6.74,5.65,13.3,9.67,17.9,15.31,9.63,11.8,22.12,12,34.22,8a100.11,100.11,0,0,0,29.9-16.13c41.33-31.9,65.26-76.71,90.17-120.65,6.83-12,13-25.87,4.74-40.5,7.88-12.44,21.48-14.1,33.92-17.41,14.91-4,27.08-11.51,36.61-23.63,4.95-6.29,8.72-13.84,3.65-20.3-6.08-7.75-11.79.75-17.71,3.15-14.52,5.89-28.39,15.29-45.46,12,.3-8.05,8.78-9.51,8.17-16.15-22.14-2.61-39.72,12.83-55.14,48.22-11.63-1.43-18.76,3.69-23.56,14.32-5.62,12.45-11.66,25.09-21.14,35-20.73,21.72-41.85,22.58-53.55-4.76-5.26-12.3-7.59-24.87-9.67-37.74-4.89-30.26-9.17-60.66-22.42-88.83-8-17.1-52.95-43.14-72.11-41.48-1.06.09-2.06,1-3.07,1.45l1.26-.53c-1.79-4.07-3.07-1.12-4.46.33-6.75-5.45-7.06-17-17.74-18.72-2.13-5.47-5.9-10.56-3.88-17l6.17-1.26c8.56,1.26,17.94-6.55,25.06-1.36,21.71,15.81,36.19-2.33,52.75-9.85,6.89-3.13,7.6-10.52,7.55-17.85-.21-29.26-16.63-56.46-11-86.49.35-1.87-1-4.84-2.49-6.17-11.13-9.72-22.66-18.88-19.32-36.53.38-2-3.83-5.87-6.69-7.23-8.08-3.82-13.25-10.7-19.41-16.58-21.46-20.5-46.95-22.87-71.57-6.19-7.28,4.93-14.45,9.23-23.57,8.64-13.92-.9-21.32,5.2-22.57,19.46-.94,10.65-5.2,18.35-18.31,17.66-14-.75-17,9.28-13.68,19.54,5.35,16.58-.42,26.39-13.6,36.22C698,595.19,696.27,615.14,713,627.6,732.31,642,750.62,659,774.43,666.33c-3.64,10.82-9.73,19.4-20.05,24.44-7.17,2.39-8.57-10.46-17.66-5.79-13.54,6.95-27.43,12.44-38.64,23.72-27.44,27.61-43.53,61.59-60.71,95.91-21.83,43.61-33,89.18-36.08,136.75-1.46,22.65,5.05,45.16,28.81,57.45,7,3.6,12.46,9.92,19.08,14.32,6.77,4.51,8,8.73,4.27,16.62-4.56,9.57-9.66,18.91-12.09,29.73-6.91,30.7-7.61,61.92-10.9,93-7.5,70.8-8.1,141.86-12.47,212.76-1.61,26.21-.25,26.3,24.91,28.14,0,29.54,0,59.08-.18,88.62-.12,17.06,8.39,24.64,25,24,.57,12.46,1.5,24.92,1.63,37.38.5,47.86,4.25,95.43,9.42,143,5.24,48.31,17.46,97,.06,145.39-5,6.12-7.46,13.34-9.05,20.94h-191c39.58-22.07,52.6-55.16,49.68-96.95a292.75,292.75,0,0,1,0-36c1.5-27.88-6.89-51.53-28.12-70.21-2.94-2.59-6.49-4.95-6.38-9.63,23.76-49,20.86-97.75,0-147.1-12-28.44-12.67-57.09,4-85.23,13.18-22.23,12.35-47.05,7.36-71.6-6-29.45-6-59.26-3.48-88.8a129.28,129.28,0,0,0-5.18-50.29c-2.64-8.45-3.54-23.14-16.62-19.11-11.57,3.56-6,16.43-4.84,25.67,3.53,28.71,5.47,57.2-13.86,81.9-4.53,5.79-5.07,12.61-7.18,19-7.68,23.4-3.57,47.67-5.21,71.52-1.28,18.63-1.05,37.9-11.79,54.62a149.41,149.41,0,0,0-6.52-37.27c-7.1-24-5.92-48.1-3-72.81,3.57-30.3,10.36-61-1.26-91.44-4.07-10.67-9.44-16.68-21.35-14.5-1.53-20.09-16-21.21-31.18-21.3q0-5.13-.09-10.25c3.55-2.1,5.08-6.8,11.34-5.07,13.83,3.82,28.22,1.13,42.36,1.54,7.39.21,16.18.17,17.81-9.09,2-11.53-8.81-11.44-15.77-13.81-4.13-1.41-9-.59-13.48-1.09-16.54-1.84-32.6,3-49,3.39q-.07-8.55-.14-17.1c6.88-9.17,4.79-20.34,2.69-29.31C366.23,1097.92,370.28,1080.8,356.68,1069.44Zm841.76-437.25c0-45.31-37-79.71-83.18-82.16-49.7-2.64-87.65,35.22-87.79,90-.12,45.48,46,79.32,81.74,79C1162.29,718.7,1198.39,683.94,1198.44,632.18ZM998.73,1350c10.65-6,11.94-17.91,18.36-26.3,15.21-19.92,23-42.8,20-68.67-1.78-15.15-13.29-27.29-27.48-27.24-14.61.05-26.36,13.38-27.86,28.69-2.09,21.41,5,41.5,6.62,62.25C989.27,1330.45,991.69,1340.48,998.73,1350ZM549,835.29a59.08,59.08,0,0,0,0-6.87c-1.32-11.2-5.82-22.3-16.06-26-10.69-3.89-20,.24-29.35,10.44-15.37,16.71-6.07,38.14-15.75,55.63-4.81,8.69-3.06,21.09-4,31.84-.35,4.16.9,8.2,5.42,9.66,4,1.28,6.43-1.8,8.66-4.27,7.32-8.16,17.2-13.43,24.73-21C536.18,871.14,549.76,856.81,549,835.29Zm-117.15,10c5.31,35.38,18.08,69.77,31.74,103.9,1.11,2.76,2.77,5.66,5.89,5.22,4.67-.65,4.19-5,3.75-8.17-4.52-32.18-4.81-64.64-7-97-.29-4.34-2.83-8.58-4.57-12.77-4.57-11-14.29-7.58-22.31-7.14C429.54,829.89,433.09,838.31,431.83,845.29Zm68.29,131.3c25.77.28,47.11,1.68,67-7.32,12.29-5.57,12.68-12.55,3-21.87-13.11-12.69-27.73-9.23-42.95-5.54-20.8,5-36.52,21.66-58.06,24.79-3.13.45-5.52,2.13-5,5.56s3.4,4.34,6.41,4.36C481.94,976.63,493.38,976.59,500.12,976.59Zm18.47,30.92c-18.07-.09-37.56,1.15-55.7,7.73-7.31,2.65-21.67-1.66-21.1,8.93.47,8.67,13.87,1.59,20.83,4.88,25.64,12.12,53.73,3.39,80.15,9.17,2.39.52,5.47-1.3,8-2.46,8.71-4,9.67-8.67,4.23-17.4C545.95,1003.77,532.41,1008.45,518.59,1007.51Zm480.48,399.41c31.93-1.85,58.14-11.68,83.9-22.87,4.47-1.94,7.89-6.42,11.61-9.92,4.14-3.89,4.6-8.24-.66-11.2-6.37-3.59-12.66-9.26-20.37-7.83C1042.39,1360.86,1017.88,1376.59,999.08,1406.93Zm67.42,19.76c-27.55.85-50,15.63-73.44,27.59-2.73,1.39-4.4,3.77-3,7,1.76,4,5.84,4,8.85,3.25,24.22-6.13,49.76,1,73.91-8.47,10.33-4,25.69-9,23.9-17.07C1094.29,1428,1079.07,1425.63,1066.49,1426.68Zm-696-497.18a18.32,18.32,0,0,0,0,3.42c6.77,35,29.07,63.15,42,95.44a4.1,4.1,0,0,0,5.66,2.27c4.3-1.84,2.63-5.25,2.37-8.65-2.06-27.53-13.68-53-17-80.34-.91-7.43-6.15-14.75-10.73-21.17-3.34-4.67-9.32-6.71-15.43-4.92C370.2,917.64,370.33,923.68,370.47,929.5Zm137,167.5c4.9-1,14.13,2.53,13.71-8.6-.25-6.53,4.72-17.28-6.35-18.24-16.72-1.45-33-6.24-50.67-2.37-14,3.05-28.41,5.22-42.65,7.68-3.91.68-9.86-3.82-11.34,2.44-1.68,7.14,5.64,7.77,10.16,8.37C449,1090.09,477.63,1093.39,507.49,1097ZM397.15,885c3.18,32,25.21,57.86,39.88,87,1.33,2.64,4.18,4.63,7,2.41,2.51-2,.63-5.16.4-7.94-2.59-30.85-14.75-59.08-23.88-88.13-2.18-6.92-6.14-12.3-14.78-11.49C394.56,867.88,398.92,876.57,397.15,885Zm605.21,645.57c17.95-5.56,39.24-7.11,59.59-13.95,6.75-2.27,9.4-4.35,9.43-11.19,0-7.52-3.81-8.79-10.43-10.12-30.17-6.1-54.87,6.72-78.84,21.85-6.65,4.2-2.8,9.44,2.41,11.44C989.1,1530.39,994.56,1529.86,1002.35,1530.6ZM396.06,1117.79c-3.74.85-9.47-6.89-11.13,1.3-1.17,5.74,3.78,9.47,8.69,11.19,5.29,1.85,11.13,3.7,16.55,3.27,20.83-1.64,41.7,12.08,62.8-1.57,6.77-4.38,7.06-6.41,2.1-10.63-9.9-8.45-19.17-15.71-34.81-12.29C425.71,1112.22,410.41,1112.61,396.06,1117.79Zm579,460.79c16.74-1.53,33.56-7.54,51.24-9.12,4.5-.4,20.13-3.91,15.71-15.35-2.36-6.1-12.35-14.07-21.29-9.6-15.9,7.94-34.52,5.9-50,15.7-5.86,3.71-11.85,7.4-11,13.45C960.87,1581.66,969.22,1576.46,975,1578.58Zm-43.35,42.83c1,1.75,1.38,3.36,2.08,3.51,26.41,5.75,51.62-4,77.38-6.45,7.8-.75,5.86-10.2,7.06-15.69s-4.32-7.34-9.16-7.4a191.19,191.19,0,0,0-20.29,1.28C966.76,1598.75,952.48,1617,931.68,1621.41Zm243.1-22.64c-11.47,1.85-9,11.35-4.73,17.54,11.88,17.09,29.26,28.09,47.8,36.88,3,1.42,10,2.57,9.8-4.85-.23-9.34-40.1-48.73-49.55-49.56C1177.53,1598.73,1177,1598.78,1174.78,1598.78Zm8.52-55.22c-4.48.65-9.07-1.11-11.25,3.72-1.35,3,.37,5.39,2,7.84,11.82,18.25,28.18,32.3,43.73,47a26.07,26.07,0,0,0,12.08,6c5.61,1.19,6.5-3.48,6.25-7.72-.22-3.66.3-9.73-6.35-5.27-6.18,4.15-5.69-.35-7.47-4.16-4.74-10.17-9.24-20.75-15.85-29.68C1200.57,1553.42,1194.62,1543.94,1183.3,1543.56Zm59.85,144.85c-.89-3.11-.85-6.08-4.06-5.31-2.5.6-2.84,3.16-2.53,5.41s.51,5.16,3.61,4.15C1241.66,1692.17,1242.44,1689.5,1243.15,1688.41ZM991.34,1400.68c-.41,1-1.36,2.12-1.09,2.81s1.76.9,2.71,1.31c.42-1,1.37-2.12,1.1-2.8S992.31,1401.1,991.34,1400.68Z"/><path class="cls-2" d="M1665.83,1619.45c-28.35.9-54.07-12.58-82-14.93-11.52-1-18.61-18.06-14.91-28.5,4.75-13.41,13.56-17.4,26.88-11.71,4.46,1.91,9.91,5.22,13.46-1.46s-1.3-11-5.76-14.4c-8.49-6.47-18.79-7.52-29.09-8.17-5.68-.35-11.6,0-17-1.46-13.61-3.77-22.31-20.09-18.11-32.59,3.72-11.08,20.27-16.17,33.67-10.84,7,2.78,14.87,12.18,21.42,4.84,7-7.79-1.09-16.74-5-24.76-7-14.27-20.67-24.29-24.62-40.73a72.49,72.49,0,0,1-1.31-28.76c.7-4.37,2.84-9,8.28-9.83,6-.89,9.76,2.34,11.94,7.62s4,10.68,6.4,15.86c1.36,3,3,7.15,7.24,5.53s2.18-5.56,1.5-8.83c-4.08-19.37-12.18-37.92-12-58.18,0-2.86-.15-5.74.1-8.58,1.83-20.44,14.73-34.57,29.88-32.85,12.87,1.47,19.72,14.71,17.71,35.81-1.51,15.82-7.55,31-6.89,47.23.45,11,2.84,20.58,13.07,26.07,4.32,2.32,8.38.65,12-3.43,7.66-8.61,12.77-16.77,7.16-29.13a51.11,51.11,0,0,1-1.17-40.11c2.32-6.14,5.39-12.23,12.93-11.57,7.71.68,9.15,7.94,10.58,13.93,1,4.37.53,9.1.71,13.67s.17,10.83,5.68,10.94c6.92.14,4.42-6.71,4.5-10.68.31-16-.2-32,.28-48.06.41-14,4.24-27.25,15.77-36.14,15.09-11.64,33.17-2.44,35.24,17.61a45.48,45.48,0,0,1-6,28.05c-6.62,11-9.95,23-14,34.83-4.17,12.07,1.75,31.24,10.21,34.93,5.34,2.33,27.28-12.06,30.77-20.26,2.87-6.74,3.44-14.54,9.51-19.8,3.48-3,6.65-6.77,11.9-4.83,5,1.86,6.37,6.28,6.27,11.11-.18,9.11.76,18.3-2.4,27.2-.92,2.59-1.5,6,2.17,7.12,3.5,1.08,5.36-1.8,6.18-4.44,4-12.82,7.72-25.74,11.54-38.61,3.28-6.62,6.08-13.53,9.92-19.81,8.45-13.82,20.86-18,33.37-11.22,13.77,7.44,16.83,19.66,12.51,33.64-2.13,6.92-4.91,14.14-11.44,18.69l-2.8,2.84c-2.66,5.4-10.17,6.49-11.58,13l-3.36,3.71q-2,3.47-4,6.93c-13,8.11-10.65,20.22-6.94,31.47,5.1,15.5,18.34,9.07,29,9,7.32,3,11.43,9.34,16,15.18,2,35.22.48,37.09-34.46,44.48-9.17,1.94-15.45,7.8-16.28,17.37-.9,10.36,5.24,14.64,15,17.11,19.11,4.83,22.57,16.39,11.49,33-11.41,17.07-27.44,28.44-44.77,38.64-9.43,5.55-18.29,11.7-30,7.43,1.23-30.13,5.53-58.29,41.76-66.54,2.72-.62,5.41-2.66,4.53-6.15s-4.39-2.68-7-3.24c-13.07-2.76-17.61,10.84-28.69,15.86,1.22-32,11.88-60.39,17.22-89.89-20.82,41.93-26.95,87.82-35.6,134-8.58-20-10.29-42.88-27.15-60.08-4.46,8.92,1.51,11.87,3.52,16.2,6.8,14.67,13.43,29.36,10.52,46.23-9.1-1.28-8.06-17.09-20.16-14.06-1.2-2.45-3.14-4.81-3.48-7.38-5.52-41.54-12.4-83-10.56-125.16.24-5.57,1.9-12-3.07-17.49-5.76,5.6-3.34,11.55-3.52,16.83-1.53,44.94,6.76,89.15,10.08,133.73-15.37-2.72-27.5,1.28-34.19,16.52-8.92,2.26-9.65-6.3-13.75-10.4-5.73-28.88-3.68-56.46,13.59-81.88-18.18,6.68-17.62,25.25-24,40.26-12.87-26.76-18.08-54.28-27.63-80.46-2.13,2.53-3.32,4.88-2.79,6.75,7.36,26.17,12.76,53.22,23.4,78,5.31,12.38,3.42,28.95,17.37,37.4-2.7,11.31-8,5.25-13.46,2.35-11.83-6.24-20.87-18.44-39-19C1633.74,1599.85,1656.17,1602,1665.83,1619.45Z"/><path class="cls-2" d="M405,1214.43c11.9-2.19,17.28,3.82,21.35,14.49,11.62,30.47,4.83,61.13,1.26,91.44-2.91,24.71-4.1,48.77,3,72.81a149.41,149.41,0,0,1,6.52,37.27c10.74-16.72,10.51-36,11.79-54.62,1.64-23.85-2.47-48.12,5.21-71.52,2.11-6.43,2.65-13.24,7.18-19,19.33-24.7,17.39-53.19,13.86-81.9-1.14-9.23-6.73-22.11,4.84-25.67,13.08-4,14,10.66,16.62,19.11a129.28,129.28,0,0,1,5.18,50.29c-2.49,29.54-2.5,59.35,3.48,88.8,5,24.55,5.82,49.37-7.36,71.6-16.69,28.15-16.07,56.8-4,85.23,20.91,49.35,23.81,98.06,0,147.1-10.6.73-19.22-4.38-27.84-9.46.17-12.29,8.53-21.74,11.18-33.53,6.68-29.72.38-58.91-1.27-88.15-.94-16.58-7.93-32.81-12.19-49.2-1.42,10.45.24,20.31,1.24,30.22,3,29.64,9.58,58.63,6,89.28-2.09,17.72-11.24,33.13-11.35,50.77l-34.37-.33c1.77-7.16,2.89-14.57,5.43-21.44,5.81-15.71,11.37-31.79,7.61-48.42-5.07-22.43-12.22-44.38-19.1-68.76-3,23.21,1.62,43.34,4.44,63.63,3.51,25.3,3.12,50-12.21,72.17.68-5,1.32-10.05,2-15.07,3.06-21.22,7.75-42.37.93-63.79-9-28.18-14.15-56.84-9.86-86.56,8-1.09,10.32-8.11,13.11-13.79,6.4-13.06,3.72-27.34,4.07-41.18-8.26-28.1-20.39-55.52-15-86-12.61,30.9-2.43,58.72,11.49,86.05.84,12.82.28,25.17-6.68,36.81-3.25,5.44-8.47,10.69-6.93,18.17-12.45,11.34-9,26.36-7.48,39.79,4,34.45,21,67.4,11.06,103.5-2.22,8.09-2.44,16.73-3.58,25.12q-1.63.33-3.28.56l-3.77.24c-6.67-.17-13.2,3.48-20,.76-3.27-14.37-2.92-29.71-9.45-43.19-11.26-23.24-9.67-45.94-.92-69.53,6.85-18.48,12.69-37.66,3-57.3-2.9-26.28-14.13-51.22-12-78.41-1.66,14.27-3.51,28.7-1.11,42.39,2.17,12.36.6,27.09,13.1,36.06,1.06,14.32-1.43,28.1-5.2,41.91-8,29.39-16.11,58.44-2.66,89.2,5.21,11.91,6.34,26.41,4.28,40.19-24.67,9.92-23.59,9.39-27.34-16.39-5.21-35.84-3.76-70.27,9.68-104.3,8.19-20.74,3-41.85-3.53-62.08-14.6-44.91-2.39-86.85,13.12-128.54,1.15-3.1,2.29-7.09,6.38-7.29,4.71-.23,6.87,3.63,8.58,7.3,2.62,5.62,4.95,11.38,8.51,19.66,6.56-20.93,16.21-38.17,18.27-58,8-21.46,2.3-43.81,4.21-65.66A17.66,17.66,0,0,0,405,1214.43Zm-22.66,148.2c-7.84,20.11-6.39,38.83-4.09,57.12,1,8.12,3,22.71,11.89,21.29,7.25-1.16,8.74-16.13,6.68-25.47C393.09,1398.45,387.7,1381.69,382.38,1362.63Zm107.26-88.06c-15.68,41.6-6.72,87-22,128.61C494.24,1363.25,476.91,1316.62,489.64,1274.58ZM375.94,1533.8c-3.2,23.2,7.35,37.63,14.57,53C392.56,1568.92,388,1552.86,375.94,1533.8ZM413.8,1271c1.65,13.47-8.26,26.71-2,40.32C414.73,1297.89,422.31,1284.88,413.8,1271Zm49.74,149.87c-4.09,11.1-4.09,11.1,3.07,20.7C465.8,1434,468.37,1427.47,463.54,1420.82Z"/><path class="cls-1" d="M1731.2,1592c12.1-3,11.06,12.78,20.16,14.06,13.29,17.29,5.36,37.2,7,56.3,9.15-13,6.75-29.41,14-42.67,11.68,4.27,20.53-1.88,30-7.43,17.33-10.2,33.37-21.58,44.77-38.64,11.08-16.58,7.62-28.14-11.49-33-9.78-2.47-15.92-6.75-15-17.11.83-9.57,7.11-15.43,16.28-17.37,34.94-7.39,36.5-9.26,34.46-44.48,5.79,26.36,16.21,51.3,23.85,77a438.07,438.07,0,0,1,15.9,83.28c1.85,19.43,1.75,38.67,2.08,58,.56,32.57,1.58,65.24-.36,97.71-1.84,30.87-10.15,59.74-43.52,72.6-2.1.81-4.17,2.4-6.27,2.41-29.4.16-58.81.11-88.86-1.59,23.32-14.15,41.15-31.95,47.18-58.5,5.92-26.07,5.17-52.75-4.8-77.31-10.39-25.61-29.43-48.21-82.32-48.25C1732.85,1642,1729.22,1617.09,1731.2,1592Z"/><path class="cls-2" d="M1115.89,186.2c14.56,1.86,29.4-1.82,43.9,2.78,24.73,7.84,35.19,21.51,35.29,47.26,0,11.91.15,23.81.22,35.72-.09,5.15-.22,10.3-.25,15.45-.14,25-14.14,45-38.8,45.68-50.17,1.35-100.54,4.32-150.68-2-22.71,4.66-48-2.79-67.74,16.66-6.84,6.72-7.16-2.88-7.43-7.34-1.3-21.58-2.33-43.18-3.45-64.77q1.62-27.47,3.25-54.94a8.28,8.28,0,0,0,.77-3c8.9-19.38,23.42-27.62,45.31-29.13C1022.83,185.36,1069.39,188.64,1115.89,186.2ZM1059,231c28,0,56.06.08,84.09-.09,4.12,0,10.46,1.46,9.9-5.72-.43-5.47-5.85-4.46-9.63-4.46q-83.24-.12-166.47,0c-4.5,0-10.4,0-10,6.29.35,5.59,6.1,3.87,9.74,3.89C1004,231,1031.5,231,1059,231Zm93.2,19.14q0-1.88,0-3.76H967.23q0,1.88,0,3.76Z"/><path class="cls-1" d="M822.31,1851.9l-64.06.86c-.54-13.32-10.81-20.3-18.76-28.79-10.71-28.11-9.53-57.18-3.53-85.53,16.44-77.65,20.94-156.86,32.59-235.12l44.69.32c1.67,40.44,1.47,81.06,5.43,121.28,6.36,64.59,17.37,128.82,7.95,194C818.82,1829.08,819.82,1840.39,822.31,1851.9Z"/><path class="cls-3" d="M1153.79,1853c.53-2.21.4-5,1.7-6.54,10.77-13.07,10.5-22.83-7.53-28.2-4.07-1.21-4.88-4.63-3.1-8.23,2.19-4.43,5.66-4.81,10.05-2.86,5.5,2.44,10.86,7.09,18.62,1.75-10.27-9.54-24.83-7.54-35.18-14.58-4.51-3.07-14.51-2.85-11.23-12.06,3-8.32,10.28-4.45,16.18-3.22,16.49,3.44,22.41-.66,24.15-16.8.84-7.75,1.62-15.52,2.56-24.66-7.74,1.83-9.54,7.25-9.12,12.47,1,12.35-5.54,14.79-15.68,13.55-11.27-1.39-22.87-2.08-33.06-7.33-4.67-2.41-15.65-1.3-12-10.63,3.44-8.81,12.92-10.8,22-8.64,3.62.86,6.47,4.61,10.08,5.9,3.19,1.13,7.94,5.49,10.16-.32,2-5.32-2-8.77-7.08-9.48-12.31-1.7-23.39-6.59-31.74-15.33-4-4.14-14-8.68-8.34-16.07s13.25-2.05,19.71,2.17c6.13,4,12.78,14.57,19.1,9,7.57-6.66-4.6-12.12-7.73-18-7.18-13.43-15.4-26.42-23.33-39.36-7.68-12.53,1.06-18.74,6.41-22.72,8.42-6.27,13.14,4.12,15.66,10.09,2.19,5.2,5.51,9.88,7.16,15.05,2.16,6.79,3.63,10.91,11.07,5,5.12-4.09,9.57-1.6,13.51,2.52,4.25,4.44,4.35,8.87.64,13.77-5.75,7.61-4,15.74-2.3,23.86,6.44.52,4.91-4.67,6.87-6.94,2.55-3,4.56-7.61,9.16-6.18,5.07,1.57,3.46,6.92,3.05,10.45-1.43,12.44,4.2,16.81,15.82,15.08,14.54-2.16,25.13,5,34.89,14.42,4.47,4.31,9,9.42,16,7.45,1.3-.36,2-5,1.94-7.71,0-7.21-4.19-11.88-10.86-13.64a96.64,96.64,0,0,1-46.12-27.52c-3.51-3.68-7.18-7.4-9.78-11.7-3.34-5.55-1.71-10.8,2.72-15.55,4.8-5.14,9.41-2.79,13.82,0,15.11,9.4,24.58,24.45,36.49,37,2.68,2.83,3.91,7.29,6.91,9.5,8.7,6.42,17,12.13,21.4-5.16,2.48-9.82,10.15-17.67,18-24.53,3.78-3.3,8.23-5.17,12.52-2.49,4.82,3,3.47,8.12,1.33,12.28-4.38,8.5-7.29,17.64-16,23.77a66.4,66.4,0,0,0-22.47,27.62c-1.84,4.19-3.37,11,3.44,13,5.47,1.66,7.73-2.88,9.25-7.69a61.78,61.78,0,0,1,18.12-28.06c5.77-5.12,8.86-4,9.48,3.94,1.49,19-11.05,30.63-23.2,41.36-9.05,8-21.06,3.69-30.54-1-8.36-4.09-17.14-7.38-24.53-14.41-10.25-9.74-23.3-7.39-29.28,5.29-5.32,11.28-9.55,23.88-8.08,37,4,.57,4.72-1.34,5.51-3.65,3.11-9.08,1.57-21,16.8-21.75,16.7-.82,31,2.1,37.86,18.93,5,12.4,21.18,11.43,26.25,23.95,1.25,3.08,5.29-2.2,6.84-5,3.91-7,7.3-14.24,11.44-21.07,1.65-2.72,4.28-6,8.3-4.35,3.11,1.31,2.94,4.84,2.47,7.5-3,16.41-15,27.71-23.69,40.86-1.57,2.39-7.65,2-9-1.4-6.51-16-24.36-17.68-35.17-28.41-6.49-6.45-15.07-5.09-14.1,6.66.89,10.78-6.45,18-8.83,27.21-3.27,12.68-14.44.13-20.63,6.34.71,9.6,18.63,5.52,15.44,18.22Z"/><path class="cls-4" d="M411.53,485.15a11.48,11.48,0,0,0,7,7.07c.66,7.92-2,14.09-7.9,19.8-6,5.88-12.34,12.39-15.69,19.9-21.62,48.46-12.1,107.92,33.91,140.92,25.67,18.41,53.27,28.85,86.26,23.36,19.57-3.26,35.81-13.88,54.36-18.8,11.44,3.4,13.11,7.52,2.19,14.91-42.88,29-87.49,29-133.54,9-5.19-2.25-10.35-4.57-15.51-6.86-24.4-20.4-44.48-44-52.46-75.58-12.32-48.78-1-91.94,32.54-129.25C404.7,487.28,408.53,486.59,411.53,485.15Z"/><path class="cls-5" d="M822.31,1851.9c-2.49-11.51-3.49-22.82,4.3-33,13.34,4.7,26.59,9.66,40,14,28.28,9.24,31.81,7.51,44.59-20.53,4.92-6.43,9.76-3.88,14.54.17a108.67,108.67,0,0,0,35.62,20.08c9.34,3.18,13.42,10.12,12.92,19.87l-6.15,1.19-3.29-.05q-62-.27-124-.6C834.66,1853,828.49,1852.31,822.31,1851.9Z"/><path class="cls-5" d="M1424.67,1833c2,6.42,4.8,12.7,3.57,19.7l-157.17.07c-1.34-4.91,1.71-8.69,3.31-12.84,12.29-3.67,24.52-7.72,34.55-16,5.49-4.52,10.16-2.37,15.29-.3,9.17,21.2,18.79,24.86,35.3,11,8.64-7.25,17.49-9.57,27.83-9.81l8.33,1.78,5.53,2.29C1408.65,1832.48,1415.16,1841.37,1424.67,1833Z"/><path class="cls-1" d="M1686.46,1609c6.69-15.24,18.81-19.25,34.19-16.53,4.89,24.57,7.93,49.32,7.4,74.43l-31,.69c.68-11.15-4.5-20.89-7.78-31C1686.29,1627.49,1682.22,1618.76,1686.46,1609Z"/><path class="cls-5" d="M739.48,1824c7.95,8.49,18.22,15.47,18.76,28.79l-88.44-.08c1.59-7.6,4-14.83,9.06-20.94,4.92,10.9,11.52,2.73,16.7.87C709.83,1827.47,723.39,1819.61,739.48,1824Z"/><path class="cls-3" d="M1274.38,1839.94c-1.6,4.15-4.65,7.93-3.31,12.84l-62.35.09c-.6-9.22.88-18.11,3.35-27,4.83-17.41,13-19.44,26.61-6.67,5.73,5.37,8.78,13.7,17.38,15.94C1262.17,1836.72,1268.28,1838.34,1274.38,1839.94Z"/><path class="cls-3" d="M367.06,1158.74c16.38-.38,32.44-5.23,49-3.39,4.49.5,9.34-.32,13.48,1.09,7,2.37,17.81,2.28,15.77,13.81-1.64,9.27-10.43,9.31-17.81,9.09-14.14-.41-28.53,2.28-42.36-1.54-6.26-1.73-7.8,3-11.34,5.07C369,1175.54,367.73,1167.22,367.06,1158.74Z"/><path class="cls-1" d="M411.54,1626.62c15.33-22.15,15.72-46.87,12.21-72.17-2.82-20.29-7.41-40.42-4.44-63.63,6.88,24.37,14,46.33,19.1,68.76,3.76,16.63-1.79,32.71-7.61,48.42-2.54,6.88-3.67,14.28-5.43,21.44-5.59,5.48-11.56,4.38-17.65,1Z"/><path class="cls-4" d="M1728.05,1666.93c.53-25.11-2.51-49.87-7.4-74.43-3.32-44.58-11.61-88.79-10.08-133.73.18-5.28-2.24-11.23,3.52-16.83,5,5.51,3.31,11.92,3.07,17.49-1.83,42.19,5,83.62,10.56,125.16.34,2.57,2.28,4.92,3.48,7.38-2,25.12,1.65,50,2.94,75Z"/><path class="cls-3" d="M356.57,993.89c13.12-1.82,18.38,3.29,21.36,17,4.09,18.77,12.47,36.61,15.08,56,.56,4.16,3.8,9.86-2.78,11-4.65.82-4.69-4.85-6.27-8.42-7.5-16.9-14.28-34.29-27.34-48C350.24,1012.23,352.63,1003.06,356.57,993.89Z"/><path class="cls-6" d="M459.74,1629.78c.11-17.64,9.26-33,11.35-50.77,3.61-30.64-3-59.64-6-89.28-1-9.92-2.65-19.77-1.24-30.22,4.26,16.39,11.25,32.62,12.19,49.2,1.65,29.23,7.95,58.43,1.27,88.15-2.65,11.79-11,21.23-11.18,33.53Z"/><path class="cls-4" d="M411.54,1626.62l-3.82,3.83c-1-.25-2-.52-3-.8,1.14-8.39,1.36-17,3.58-25.12,9.91-36.1-7.06-69.05-11.06-103.5-1.56-13.43-5-28.45,7.48-39.79l0,0c-4.29,29.72.88,58.38,9.86,86.56,6.82,21.41,2.13,42.56-.93,63.79C412.86,1616.57,412.22,1621.6,411.54,1626.62Z"/><path class="cls-4" d="M370.32,1461.18c9.69,19.64,3.85,38.82-3,57.3-8.75,23.59-10.34,46.29.92,69.53,6.53,13.47,6.18,28.81,9.45,43.19l-11,1.33c2.06-13.79.93-28.29-4.28-40.2-13.46-30.75-5.37-59.8,2.66-89.2,3.77-13.81,6.26-27.59,5.2-41.91Z"/><path class="cls-1" d="M404.56,1217.22c-1.91,21.85,3.82,44.2-4.21,65.66-13.67-19.83-15.63-42.58-16.4-65.63Z"/><path class="cls-4" d="M1686.46,1609c-4.24,9.73-.18,18.46,2.78,27.58,3.28,10.12,8.46,19.87,7.78,31h-3.71c-3.08-8.59-6.81-17-9.07-25.8-2.73-10.6-7.8-18.6-18.42-22.37-9.66-17.47-32.09-19.6-45.69-37.37,18.15.54,27.19,12.74,39,19,5.49,2.9,10.76,9,13.46-2.35l.1-.09C1676.81,1602.72,1677.55,1611.28,1686.46,1609Z"/><path class="cls-1" d="M1855.22,1446.46c-10.68.06-23.91,6.48-29-9-3.71-11.25-6-23.36,6.94-31.47C1846.21,1416.36,1848.11,1432.83,1855.22,1446.46Z"/><path class="cls-3" d="M356.68,1069.44c13.59,11.37,9.54,28.48,12.92,42.89,2.1,9,4.19,20.14-2.69,29.31A240,240,0,0,1,356.68,1069.44Z"/><path class="cls-3" d="M404.56,1217.22l-20.61,0c-8.13-6-5.36-16.65-10.1-24.12,15.19.08,29.65,1.21,31.19,21.3A17.3,17.3,0,0,1,404.56,1217.22Z"/><path class="cls-1" d="M1837.18,1399l3.36-3.71Z"/><path class="cls-1" d="M397.65,1630.44l3.77-.24C400.25,1631.84,399,1632,397.65,1630.44Z"/><path class="cls-1" d="M931,217.7a8.28,8.28,0,0,1-.77,3C927.78,219,928.45,218.14,931,217.7Z"/><path class="cls-1" d="M1852.13,1382.33l2.8-2.84Z"/><path class="cls-1" d="M964.86,1853.68l3.29.05C967,1855.43,965.93,1855.36,964.86,1853.68Z"/><path class="cls-7" d="M1218.88,1406.37c2.52-16.64-3-32.73-3.24-49.26-1-59.41,5.55-117.84,17.91-175.93,6.11-28.72,8.7-58.19,12.88-87.32,11.62-7,16.4-17.61,16.12-30.85,3-13.56-.55-27.79,4.19-41.18,13.78.22,27-2.39,40.29-6.21,14.4-4.16,27.79-2.44,42.34,3.9,17.88,7.78,35.3,18.16,55.87,19.26,13.75.73,22-3.59,23.38-18.1,1.87-19.06-5.73-33.89-18.42-37.22-19.11-5-38.59-2.05-57.84-3.73,1.54-8.08,8.13-14.61,7.22-23.44,12.23,4.44,23.53,4.4,31.58-7.66,7-10.56-.2-18-4.6-27.43-5.81-12.49-13.51-25.14-13.08-40-3.63-10.72-5.51-22.53-11.36-31.86-6.83-10.89-10.52-25.92-26.62-28.59,4.51-9,6.76-21.09,14-26.32,14.33-10.37,10.62-18.7,1.9-28.91,3.27-5.57,6.18-11.21,2.92-17.85,17.59-9.66,37.79-15.84,47.76-35.69,2.87,2.15,3.71,6.71,8.19,7-5.76,15.52-12.78,30.71-17,46.64-8.84,33.3-6.52,65.88,10.27,99.83,5.57-11.14,6.64-20.15,8.32-29,5.32-28,6.6-56.85,15.78-84.16,6.57-19.54,23.42-34,40.62-34.54,20.25-.65,28.81,13.31,35.9,29.13a200.71,200.71,0,0,1,10.67,30.72c20.47,77.07,16,154.09,1.15,231.41-3.45,18-11,29.68-29.43,32.56-6.51,1-9.41,2.77-6.1,9.85,7,15,13.54,30.12,20.27,45.2,13.16,42.86,16.78,87.45,16.12,131.47-.79,52.67-7.11,105.4-17.78,157.26-5.61,27.26-12.49,54.26-18.38,81.47-1.34,6.18-3,11-10.1,11.68l-97.11,3.26c-10.36-4.29-20.67-4.73-30.91.37l-100-.34c-8.45-2.7-13.33-6.82-14.8-17.18-1.1-7.74,1.09-17.1-5.41-23.86q-.4-10.41-.8-20.82C1222.1,1415.11,1223.77,1410.09,1218.88,1406.37Z"/><path class="cls-8" d="M642.9,1393.33c-25.16-1.84-26.52-1.93-24.91-28.14,4.36-70.89,5-142,12.47-212.76,3.29-31,4-62.25,10.9-93,2.43-10.81,7.53-20.16,12.09-29.73,3.76-7.89,2.5-12.11-4.27-16.62-6.61-4.41-12.12-10.72-19.08-14.32-23.76-12.3-30.27-34.8-28.81-57.45,3.07-47.57,14.25-93.14,36.08-136.75,17.18-34.32,33.27-68.3,60.71-95.91,11.21-11.28,25.1-16.77,38.64-23.72,9.09-4.67,10.49,8.18,17.63,5.78,9.44,26.61-.71,54.41,4.71,81.3.35,1.72-1.55,4.06-2.76,5.89-17.51,26.59-16.09,56.22-13.3,85.84,1,10.63,7.15,19.07,16.63,24.62-.07,7.31-1.43,15.16,10.6,8.28a47.42,47.42,0,0,1,26-5.91l.3,37.79c-14.51,10.44-25.17,24.57-36.6,38-16.7,19.61-15.11,25.88,9.56,35.59,3.14,1.24,6.69,1.39,9.92,2.43,13.48,4.35,20.41,12.05,13.17,26.69-5,10.23-14.09,18.68-14,31.22-12.43,6.6-24.54,2.65-36.28-1.76-9-3.39-18.21-7.15-26.21-12.43-13.8-9.12-24.25-6.74-33.62,6.23-3,4.13-6.93,7.65-10.83,11-6.46,5.54-5.44,10.2.49,15.44,29.92,26.43,60.09,52.6,89.32,79.78,9.15,8.51,14.86,8,21.24-1.68-2.81,75.75-9.4,151.24-15.08,226.8-2.13,2-2.29,4.42-1.51,7l-.18.21c-19.56,0-39.19-2.79-58.65,1.38Zm61.75-537.51A94.32,94.32,0,0,0,689,886.58c-4.08,13.93-8.2,29.29-2.75,44.74,1.85,5.25,4,7.62,9.39,7.48,4.72-.13,6.89-2.24,7.92-7C708.83,907.52,711,883.24,704.65,855.82Z"/><path class="cls-9" d="M767.63,1385.86c5.69-75.56,12.27-151.05,15.08-226.8,11-11.58,17.93-27,32.58-35.24,31.69,1.5,62.61-5.81,94-8,0,8,.49,16-.17,23.95-5.49,66.62-8.28,133.34-6.68,200.16.42,17.51-2.21,35.41,3.95,52.54,8.68,6.31,18.05,2.91,27.25,2l7.65.34c.77,29-3.15,57.76-5.11,86.62-1.34,19.77-9,28.53-28.89,25.4a571,571,0,0,0-94.05-3.18l-44.68-.32c-33.72-3.58-67.16,3.39-100.8,2.62-16.64.67-25.14-6.92-25-24,.21-29.54.13-59.08.18-88.62l64.39,1.17c19.59,1.09,39.24,4.94,58.66-1.38l.17-.21C768.43,1390.95,768.61,1388.53,767.63,1385.86Z"/><path class="cls-5" d="M1500.72,1096.61c-6.73-15.08-13.27-30.25-20.27-45.2-3.31-7.07-.41-8.83,6.1-9.85,18.45-2.88,26-14.53,29.43-32.56,14.81-77.32,19.32-154.33-1.15-231.41a200.71,200.71,0,0,0-10.67-30.72c-7.09-15.83-15.64-29.79-35.9-29.13-17.21.56-34.05,15-40.62,34.54-9.18,27.31-10.46,56.12-15.78,84.16-1.68,8.86-2.75,17.87-8.32,29-16.79-34-19.11-66.54-10.27-99.83,4.23-15.93,11.25-31.12,17-46.64,5.6-11.93,8.32-24.73,11.87-37.34,10-35.48-6.42-72.44,6.49-107.66a4.12,4.12,0,0,0-.07-1.7c-.69-6.56-2.24-13.26-10-13.76-7.3-.47-12.2,4.83-12.46,11.64-.49,12.89-9.08,14.38-18.63,15-20.07,1.28-36.89-6-51.07-20-2.47-2.42-5.28-5.64-8.67-3.33-4.11,2.81-.53,6,1.21,8.67,5.68,8.58,4.85,16-3.51,22.31-20.79,9.82-26.4,6.83-31.62-15.7-2.3-9.91-1.93-19.75,1.59-28.73,16.21-41.34,47.28-65.58,90.61-72.11,37.61-5.67,66.55,11.14,88.42,41.14,13,17.85,18.24,38.72,17.36,60-2.08,50.42,18.78,92,46.27,131.71,9.75,14.09,18.68,28.76,27.86,43.24,33.31,52.53,41.84,109.29,27.94,169.48C1578.48,988.37,1548.4,1047.23,1500.72,1096.61Z"/><path class="cls-8" d="M906.38,1392.49c-6.15-17.14-3.53-35-3.95-52.54-1.6-66.83,1.18-133.55,6.68-200.16.65-7.93.14-16,.17-23.93,5.82-74.92,6-149.94,3.57-225-.2-52.58-10.7-103.21-28.73-152.42-1.58-4.31-3.38-8.61-8.38-10.19l-3.36-11.06c-.54-3.62-3.81-6.78-1.8-10.82,1-.5,2-1.36,3.08-1.45,19.16-1.65,64.07,24.39,72.11,41.48,13.25,28.17,17.53,58.57,22.42,88.83,2.08,12.87,4.41,25.44,9.67,37.74,11.7,27.34,32.82,26.48,53.55,4.76,9.48-9.93,15.52-22.57,21.14-35,4.8-10.63,11.93-15.76,23.55-14.32,11.89,4.93,21.32,16.16,36,14.09,8.3,14.62,2.09,28.45-4.74,40.5-24.91,43.94-48.85,88.75-90.17,120.65a100.11,100.11,0,0,1-29.9,16.13c-12.1,4-24.59,3.77-34.22-8-4.6-5.63-11.16-9.66-17.9-15.31.73,14.43-.53,30.06,2.74,44.68,5.29,23.67,3,47.63,5.37,71.38,5,49.76,5.67,100,7.64,150a123,123,0,0,0,3.58,23.54c1.9,21.71-3.85,43.81,3.31,65.26,0,7.29-1,14.75.28,21.83,2.47,14-3.5,20.41-16.77,21.73l-7.65-.34C924.8,1390.35,915.45,1393.34,906.38,1392.49Z"/><path class="cls-10" d="M569.43,677.4c-18.54,4.92-34.79,15.54-54.36,18.8-33,5.5-60.58-4.95-86.26-23.36-46-33-55.53-92.47-33.91-140.92,3.35-7.5,9.68-14,15.69-19.9,5.85-5.72,8.56-11.88,7.9-19.8,6.39.32,12.55-.27,17.9-4.28,32.35-24.27,66.24-23.11,103.81-11.61,60.71,18.58,83.39,87.86,69.64,139.57-5.09,19.16-17.34,35.23-31.37,49.56C575,669,569.93,671.54,569.43,677.4ZM504.21,531.71h-.07c0-15.42.07-30.85-.05-46.27,0-3.86.36-9.14-5.2-9s-4.86,5.42-5,9.3c-.14,4.56.12,9.14.11,13.71-.05,19.42-.1,38.84-.27,58.26,0,3.18,1.3,7.67-3.06,8.6-2.07.44-5-1.94-7.19-3.53-2.76-2-4.91-4.88-7.77-6.69-3.45-2.18-7.86-3.64-11-.14-3.4,3.79-.85,7.61,2.28,10.34,7.71,6.73,15.64,13.21,23.48,19.79,2.59,2.17,5,5.3,8.87,3.71,4.32-1.79,4.86-5.93,4.86-10.09Q504.2,555.71,504.21,531.71ZM403.28,578.18c-4.57.76-11.79-1.65-11.31,6.19s7.71,6.79,13.2,6.89c5,.1,11.85.38,11.47-6.47C416.2,577.07,408.62,578.84,403.28,578.18ZM504.59,678.46c-2.06-3.94,2.69-12.57-5.55-13-7-.36-5.16,7.46-5.09,12.06s-2.64,11.83,4.22,12.76C506.23,691.38,503.31,683.66,504.59,678.46Zm88.53-89.62c4.27-1.24,12,2.51,12.09-4.79.11-6.37-7.08-5.85-12-5.62-4.66.22-12.07-1.85-12.16,5.08C581,590.71,588.47,588,593.12,588.84Z"/><path class="cls-5" d="M759.65,888.42c-9.48-5.55-15.63-14-16.63-24.62-2.79-29.62-4.21-59.25,13.3-85.84,1.2-1.83,3.1-4.17,2.76-5.89-5.43-26.9,4.72-54.69-4.71-81.3,10.35-5,16.43-13.62,20.08-24.43C750.62,659,732.31,642,713,627.6c-16.7-12.46-14.94-32.4,2.18-45.16,13.18-9.82,19-19.64,13.6-36.22-3.31-10.26-.31-20.29,13.68-19.54,13.1.7,17.37-7,18.31-17.66,1.25-14.25,8.65-20.36,22.57-19.46,9.12.59,16.28-3.71,23.57-8.64,24.62-16.68,50.11-14.31,71.57,6.19,6.16,5.88,11.34,12.76,19.41,16.58,2.86,1.36,7.07,5.25,6.69,7.23-3.35,17.64,8.19,26.81,19.32,36.53,1.52,1.33,2.84,4.29,2.49,6.17-5.67,30,10.74,57.22,11,86.49.05,7.33-.66,14.72-7.55,17.85-16.57,7.52-31,25.65-52.75,9.85-7.12-5.18-16.5,2.62-25.06,1.36l-6.3-1.53c-2.71-7.39-3.37-12.85,7.32-14.32,13-1.78,21.19-11,26.15-22.47a157.41,157.41,0,0,0,12.83-68.74c-15,6.5-26.58-4.54-39.69-6.32-35.88-4.88-48.15,3.32-48.7,39.38-.35,23.53-7.31,44.59-19.2,64.85-10.67,18.18-20.07,37.35-20,59.39a3,3,0,0,0-.65,3.1c-.41,22.12-9.83,47.42,20.69,58.62,10.22,21.93,25.37,42.38,23.25,72.8-7.58-14.56-5.4-27.85-14.9-36.72a85.12,85.12,0,0,0-9.31-23.72c-4.22-7.18-9-14.86-17.55-14-9.25.9-10.65,11-12.85,18.28-5,16.54-4.9,33.72-5.15,50.86-.25,16.94,3.35,31.27,21.43,37.31C766.33,891.35,762.59,887.49,759.65,888.42Z"/><path class="cls-4" d="M1005.56,331.12c50.14,6.29,100.51,3.33,150.68,2,24.67-.66,38.66-20.67,38.8-45.68,0-5.15.16-10.3.25-15.45,9.69.1,19.38.37,29.07.28,25.5-.23,48.62,21.68,46.87,47.51-2.2,32.34-.71,64.95-.55,97.44.06,13.51-4.62,16.87-16.31,9.05-10.71-7.16-22.66-9.93-35.6-9.69-20.51.37-41,.08-61.56.07v0l-3.34-3.6-1.84-4.23-5.16,7.74c-32.57.05-65.15.26-97.72.1-24.55-.12-41.5-16.57-42.94-41.06h0c33.21,0,66.43.34,99.63-.22,16.59-.28,30.89,2.22,38,19.58,1.21,3,3.22,5.12,6.47,3.74,4.19-1.77,3.66-5.44,1.92-8.61-7.77-14.16-19.43-21.79-36-21.74-36.64.1-73.29-.08-109.93-.14a16.84,16.84,0,0,0-.48-3Z"/><path class="cls-11" d="M1242.56,1481.77l100,.34c11.7,48.83,35.66,93.78,45.29,143.26,13.44,66.39,10.51,131.55-12.83,196.56,2.38,1.91,8.76-2,12.34,2.92-10.34.24-19.18,2.55-27.83,9.81-16.51,13.85-26.13,10.19-35.3-11,3.14-6,9.61-7.79,14.64-11.25,28.06-19.32,33.59-35.89,18.93-66.63-17.09-35.84-30.47-73.4-50.34-107.93-2.27-3.94-4.63-7.83-6.95-11.74-9.32-20.76-17.28-42.28-32.9-59.56.39-2.56.22-4.9-2.54-6.18-2.12-10.82-7.12-20.52-11.85-30.32,1.13-7.81-2.41-14.42-5.44-21.16Q1245.16,1495.33,1242.56,1481.77Z"/><path class="cls-11" d="M813.23,1503.63a571,571,0,0,1,94.05,3.18l-11.49,135.62a152.83,152.83,0,0,0-5.66,41.86l-1,14c-4.21,6.44-3.09,13.56-2.67,20.6l-.72,6.94c-4.94,9.88-3.31,20.5-3.48,30.92q0,3.45.07,6.9c-2,15.31,4.18,26.51,17.17,34.31l0,0a8,8,0,0,0,7.1,5.64q2.28,4.41,4.58,8.83c-12.77,28-16.3,29.77-44.58,20.52-13.43-4.39-26.68-9.35-40-14,9.41-65.18-1.59-129.42-8-194C814.69,1584.69,814.89,1544.07,813.23,1503.63Z"/><path class="cls-12" d="M1387.35,1824.86c-3.58-5-10-1-12.34-2.92,23.34-65,26.28-130.18,12.83-196.56,5.36-8.5,2.16-17.37,1-26.11q-7.65-58.77-15.4-117.52l97.11-3.26c3.94,61.54,7.44,123-7.51,183.84-6.16,25.07-17.08,48.38-26.25,72.27-12.3,32.07-17.72,64.42-12.15,98.41-9.52,8.36-16-.53-23.46-4.09l-5.53-2.29Z"/><path class="cls-12" d="M667.74,1505.92c33.64.77,67.09-6.2,100.8-2.62-11.64,78.26-16.15,157.47-32.59,235.12-6,28.35-7.18,57.42,3.53,85.53-16.09-4.35-29.65,3.51-43.93,8.64-5.18,1.86-11.78,10-16.7-.87,17.39-48.45,5.17-97.08-.07-145.4-5.16-47.6-8.92-95.17-9.42-143C669.24,1530.84,668.31,1518.38,667.74,1505.92Z"/><path class="cls-6" d="M1335.52,820.76c16.09,2.67,19.79,17.7,26.62,28.59,5.85,9.33,7.72,21.14,11.36,31.85-4.2-1.71-8.49-3.2-12.58-5.15-7.74-3.68-16.09-5.26-22.06,1.51a17.94,17.94,0,0,0-.73,22.42c12.74,16.87,23.61,34,21.46,56.29.91,8.84-5.68,15.36-7.21,23.45-11.6,1-22.54-4.45-33.76-4.33-30.72.35-61.77-21.62-92.64,7.32-13.22,12.4-6,14.38.74,20.32,5.31,4.68,12.75,5.21,20.72,5.36-3.77,4-9.3,1.6-11,6.34l-16.33.62c-8.61-14-17.91-15.06-33.9-3.85-20.83-29.64-6.42-76.37,27.53-87.11,14.7-4.65,27.26-9.21,21.85-28.48q.38-19.71.75-39.44c7.14-9.77,6.51-23.82,17.36-31.54,22.85,16.45,46.19,20.12,70.45,2.9C1327.77,825.26,1331.72,823.11,1335.52,820.76Z"/><path class="cls-13" d="M764.31,719.42c0-22,9.38-41.21,20.05-59.4,11.89-20.26,18.84-41.32,19.2-64.85.54-36.07,12.82-44.27,48.7-39.38,13.1,1.78,24.69,12.82,39.69,6.32a157.41,157.41,0,0,1-12.83,68.74c-5,11.43-13.14,20.69-26.15,22.47-10.69,1.46-10,6.93-7.33,14.32a3.07,3.07,0,0,0,.13,2.8c-2,6.42,1.76,11.51,3.87,17,6.18,11,8.78,24.72,22.74,29.75l3.36,11.06q-.2,5.53-.4,11.07c-3,1.58-2.57,4.44-2.72,7.1-24.25,24-70.08,17.48-91.64-10.85-3.46-4.54-5.64-10.18-12.79-9.47h.59C768.71,722.91,768.36,719.93,764.31,719.42Zm105.53-95.27c-.59-4.41-4.33-4.63-7.45-4.15-5.74.89-13.74-3.61-16.69,4-2,5.23,3.68,7.66,8.32,8.3C860.75,633.21,866.27,630.92,869.84,624.15Zm-50-41.62c-4.82,1.89-6.49,5.66-6,10.53.63,5.93,4.16,8.87,10.1,8.79,5.06-.07,6.93-3.26,6.42-7.72C829.72,588.07,826.27,584.1,819.87,582.54Z"/><path class="cls-4" d="M1198.44,632.18c0,51.75-36.15,86.52-89.23,86.92-35.74.27-81.86-33.57-81.74-79,.14-54.81,38.09-92.67,87.79-90C1161.43,552.47,1198.48,586.87,1198.44,632.18Zm-86.22,65.61c14.28,2.48,22.15,0,21.37-16.95-1.22-26.68-.14-26.56,26.78-27.19,5.72-.13,14.76,3.53,16.19-4.78,1.81-10.49,2.78-22.43-.57-32.12-2.92-8.44-14.39-2.46-21.88-4a9.28,9.28,0,0,0-3.42,0c-15,2.62-18.84-4.74-17.76-18.39.56-7.05,4-17.27-2.78-21-10-5.48-22.63-4.07-33.41-1-8.47,2.4-4.31,11.91-4.45,18.22-.5,22.2-.24,22-22.52,22.36-7,.12-16.73-3.67-20.29,4.64-4.27,10-3.95,22-.46,32,3,8.56,13.23,4,20.12,4.2,22.88.67,23.81.37,22.67,22.83C1091,692.87,1093.83,702.81,1112.22,697.79Z"/><path class="cls-13" d="M1325.4,592.86c8.36-6.31,9.18-13.73,3.51-22.31-1.75-2.64-5.32-5.86-1.21-8.67,3.39-2.32,6.2.91,8.67,3.33,14.18,13.91,31,21.23,51.07,20,9.55-.61,18.14-2.09,18.63-15,.26-6.82,5.15-12.11,12.46-11.64,7.81.5,9.35,7.2,10,13.76a4.12,4.12,0,0,1,.07,1.7c-12.91,35.22,3.5,72.18-6.49,107.66-3.55,12.6-6.27,25.41-11.87,37.34-4.48-.28-5.31-4.83-8.19-7-1.43-8.27-.73-16.62-3.81-25-4.87-13.2-4-30.22-27.33-19.46-8.73,4-14.6-9.35-10-23.21,1.34-1.07,2.53-2.26.47-3.6-.3-.19-1.56,1.1-2.37,1.7-20.65-2.19-31.72-13.31-32.7-32.78C1326.11,604.09,1325.74,598.48,1325.4,592.86Zm65.29,17.48c0-7.33-3.14-11.51-10.15-11.28-7.89.26-12.61,4.93-13.33,12.63-.63,6.74,3,10.94,10,10.75C1385.13,622.22,1389.21,617.24,1390.69,610.34Z"/><path class="cls-13" d="M1335.52,820.76c-3.8,2.35-7.75,4.49-11.39,7.07-24.26,17.23-47.61,13.55-70.45-2.9-7.68-10.91-10.6-24.67-22.73-33.12-7.83-5.45-1-13.47.88-20.27,5.81,3.89,10.82,3.05,17.2-.31,28.15-14.83,57.52-16.57,86.82-3.88,6.68,2.9,10.64.89,15.56-1.83,8.72,10.22,12.43,18.55-1.9,28.91C1342.29,799.67,1340,811.77,1335.52,820.76Zm-21-8.41c.16-4.08-1.07-6.44-4.44-7-13.21-2-25.94,2.37-38.7,4.15-7.16,1-3,8.18.72,11.86,4.58,4.54,35.17,1.13,39.12-4.1C1312.54,815.53,1313.68,813.6,1314.5,812.35Z"/><path class="cls-5" d="M1351.41,765.53c-4.92,2.72-8.88,4.73-15.56,1.83-29.29-12.7-58.66-11-86.82,3.88-6.38,3.36-11.4,4.2-17.2.31-9.53-24.34,5.69-38.78,21.31-53,.82-.74,2.28-1.8,3-1.52,19.35,7.69,41.88-13.6,59.84,6.51.75.84,1.88,2.17,2.64,2.05,18.36-3,26.42,10.59,35.75,22.12C1357.59,754.33,1354.69,760,1351.41,765.53Z"/><path class="cls-3" d="M998.73,1350c-7-9.48-9.47-19.52-10.37-31.27-1.59-20.75-8.71-40.84-6.62-62.25,1.49-15.31,13.25-28.64,27.86-28.69,14.19-.05,25.69,12.1,27.48,27.24,3,25.87-4.78,48.75-20,68.67C1010.68,1332.06,1009.39,1344,998.73,1350Z"/><path class="cls-3" d="M1005.78,365.12a16.62,16.62,0,0,1,.48,3q0,3.7,0,7.38h0c-10.55,2.12-21.08,4.31-31.64,6.36-12.89,2.5-16.37,10.18-17.18,23.13-1.14,18.15.49,36.07.34,54.07-.12,13.7-1.54,26.39,18.79,16.46,3.73-1.82,9-.55,13.59-.56q60.91,0,121.81,0c11.76,0,20.22-3,28.21-14.05,10.66-14.78,4.52-29.75,6.75-44.45l5.16-7.74,1.84,4.23,3.34,3.6v0c2.18,15-2.76,29.44-3.71,44.21-.81,12.62-18.35,24.41-34.67,24.46-38.37.12-76.74-.15-115.11.13-15.7.11-31.57-.92-44.68,11.55-5.14,4.89-10,1.69-11.55-6.18a209.91,209.91,0,0,1-1.08-74.87c2.13-12.83-1.75-26.84,11.29-37.92C972.41,365.52,988.5,364.63,1005.78,365.12Z"/><path class="cls-3" d="M549,835.29c.77,21.52-12.81,35.85-26.33,49.42-7.53,7.56-17.41,12.83-24.73,21-2.22,2.48-4.71,5.56-8.66,4.27-4.52-1.47-5.77-5.51-5.42-9.66.9-10.75-.85-23.14,4-31.84,9.68-17.49.38-38.92,15.75-55.63,9.38-10.2,18.66-14.33,29.35-10.44,10.23,3.73,14.74,14.82,16.06,26A59.08,59.08,0,0,1,549,835.29Z"/><path class="cls-12" d="M1112.06,842.43c-14.64,2.07-24.07-9.16-36-14.09,15.42-35.39,33-50.83,55.15-48.22.61,6.64-7.87,8.09-8.17,16.15,17.06,3.28,30.94-6.12,45.46-12,5.92-2.4,11.63-10.9,17.71-3.15,5.07,6.46,1.29,14-3.65,20.3-9.53,12.12-21.7,19.66-36.61,23.63C1133.54,828.34,1119.94,830,1112.06,842.43Z"/><path class="cls-3" d="M431.83,845.29c1.26-7-2.29-15.4,7.51-15.93,8-.44,17.74-3.87,22.31,7.14,1.74,4.19,4.28,8.43,4.57,12.77,2.16,32.33,2.46,64.79,7,97,.44,3.16.92,7.52-3.75,8.17-3.11.43-4.78-2.46-5.89-5.22C449.91,915.06,437.15,880.67,431.83,845.29Z"/><path class="cls-3" d="M500.12,976.59c-6.74,0-18.18,0-29.62,0-3,0-5.91-1-6.41-4.36s1.88-5.1,5-5.56c21.53-3.12,37.26-19.74,58.06-24.79,15.22-3.69,29.84-7.15,42.95,5.54,9.63,9.32,9.25,16.3-3,21.87C547.23,978.27,525.9,976.87,500.12,976.59Z"/><path class="cls-3" d="M518.59,1007.51c13.81.94,27.35-3.74,36.45,10.85,5.45,8.74,4.48,13.43-4.23,17.4-2.56,1.17-5.64,3-8,2.46-26.43-5.78-54.51,2.94-80.15-9.17-7-3.29-20.37,3.79-20.83-4.88-.57-10.59,13.79-6.28,21.1-8.93C481,1008.67,500.53,1007.42,518.59,1007.51Z"/><path class="cls-3" d="M999.08,1406.93c18.8-30.34,43.32-46.07,74.48-51.82,7.72-1.43,14,4.24,20.37,7.83,5.26,3,4.8,7.31.66,11.2-3.72,3.5-7.14,8-11.61,9.92C1057.22,1395.24,1031,1405.07,999.08,1406.93Z"/><path class="cls-3" d="M1267.6,1566.54c15.62,17.29,23.57,38.8,32.9,59.56-3.09.91-8.09-4.56-9.21,3-3.46,23.31-26.17,30.86-38.68,46.79-1.63,2.08-5.3,2.24-7.64-.28a5.69,5.69,0,0,1-.05-7.83c12.52-12.78,15.25-31.63,28.06-44.34,5.94-5.89,10.93-13.23,5.14-25-8,9.3-15.4,17.52-24.36,24-2.36,1.71-4.27,4.06-7.35,2.58-3.91-1.87-3.63-5.71-2.7-8.9,3.07-10.54,9-19.83,15.91-28C1265.22,1581.5,1267.91,1574.84,1267.6,1566.54Z"/><path class="cls-3" d="M1066.49,1426.68c12.57-1.05,27.8,1.34,30.23,12.28,1.79,8-13.56,13-23.9,17.07-24.16,9.43-49.7,2.34-73.91,8.47-3,.76-7.09.72-8.85-3.25-1.42-3.2.25-5.58,3-7C1016.52,1442.32,1038.95,1427.53,1066.49,1426.68Z"/><path class="cls-3" d="M370.47,929.5c-.14-5.83-.27-11.86,6.84-13.94,6.11-1.79,12.09.24,15.43,4.92,4.59,6.42,9.82,13.74,10.73,21.17,3.36,27.33,15,52.81,17,80.34.25,3.4,1.92,6.82-2.37,8.65a4.1,4.1,0,0,1-5.66-2.27c-12.91-32.3-35.21-60.46-42-95.44A18.32,18.32,0,0,1,370.47,929.5Z"/><path class="cls-3" d="M507.49,1097c-29.86-3.61-58.53-6.92-87.14-10.72-4.51-.6-11.84-1.22-10.16-8.37,1.47-6.27,7.43-1.77,11.34-2.44,14.25-2.47,28.69-4.63,42.65-7.68,17.71-3.87,33.95.92,50.67,2.37,11.07,1,6.1,11.71,6.35,18.24C521.63,1099.53,512.39,1096,507.49,1097Z"/><path class="cls-12" d="M1236.32,856.48q-.38,19.73-.75,39.44c-12.16,2.37-24.52,3.77-35.44,10.66-8.06,5.08-13.69.59-20.27-4.89-10-8.34-8.84-16.77-4.52-27,4-9.57,10.38-5.75,16.94-4.29,9.39,2.08,17.78-1,25.82-5.87C1223.77,861.1,1228.69,855.62,1236.32,856.48Z"/><path class="cls-3" d="M397.15,885c1.78-8.46-2.59-17.15,8.58-18.19,8.64-.81,12.6,4.57,14.78,11.49,9.13,29,21.29,57.28,23.88,88.13.23,2.78,2.11,5.93-.4,7.94-2.78,2.23-5.63.23-7-2.41C422.36,942.89,400.32,917,397.15,885Z"/><path class="cls-3" d="M1002.35,1530.6c-7.8-.74-13.26-.21-17.84-2-5.22-2-9.06-7.25-2.41-11.44,24-15.13,48.67-28,78.84-21.85,6.62,1.34,10.46,2.61,10.43,10.12,0,6.84-2.67,8.92-9.43,11.19C1041.6,1523.48,1020.3,1525,1002.35,1530.6Z"/><path class="cls-9" d="M1220.09,1015.36l16.33-.62a55.41,55.41,0,0,0,30.31,7.09c-4.74,13.39-1.19,27.62-4.17,41.17-13.16-4.43-26.63-10.49-35.87,6.57-14.31-7.31-8.62-21.71-11.7-33C1219.47,1030.19,1219.17,1022.63,1220.09,1015.36Z"/><path class="cls-3" d="M1242.56,1481.77q2.61,13.55,5.22,27.1c-3.32.72-8.09,1.31-6.59,5.79,5.46,16.2-9.09,28.66-6.57,44.22-20.77-38-24.54-77.32-12.28-118.15,6.5,6.77,4.31,16.13,5.41,23.87C1229.23,1475,1234.11,1479.07,1242.56,1481.77Z"/><path class="cls-3" d="M396.06,1117.79c14.35-5.18,29.65-5.57,44.2-8.74,15.64-3.42,24.91,3.85,34.81,12.29,5,4.23,4.67,6.25-2.1,10.63-21.1,13.65-42-.07-62.8,1.57-5.42.43-11.26-1.43-16.55-3.27-4.91-1.72-9.86-5.44-8.69-11.19C386.6,1110.89,392.32,1118.64,396.06,1117.79Z"/><path class="cls-3" d="M975,1578.58c-5.81-2.12-14.16,3.08-15.29-4.92-.86-6,5.13-9.74,11-13.45,15.44-9.79,34.06-7.75,50-15.7,8.94-4.47,18.93,3.5,21.29,9.6,4.42,11.44-11.21,14.94-15.71,15.35C1008.59,1571,991.78,1577,975,1578.58Z"/><path class="cls-3" d="M931.68,1621.41c20.8-4.39,35.08-22.66,57.07-24.75a191.19,191.19,0,0,1,20.29-1.28c4.84.06,10.38,1.83,9.16,7.4s.74,14.94-7.06,15.69c-25.77,2.47-51,12.21-77.38,6.45C933.06,1624.77,932.67,1623.16,931.68,1621.41Z"/><path class="cls-13" d="M1220.09,1015.36c-.93,7.27-.62,14.83-5.09,21.23-10.94,4.29-20.95,11.22-33.17,11.84-5.27.26-10.47-.48-12.83-6s2.11-8.42,5.72-10.84c7.26-4.88,8.4-13,11.47-20.07C1202.19,1000.3,1211.48,1001.35,1220.09,1015.36Z"/><path class="cls-3" d="M957.77,1351.24c-7.16-21.45-1.41-43.55-3.31-65.26,15.12,8.77,14.13,25.67,19.24,39.27,6.51,17.32,11.19,35.33,16.71,53,1,3.18,3.14,7-.94,8.87s-5.8-2.23-7.52-5.1c-3.79-6.32-7.61-12.62-11.21-19C967.7,1357.58,965.73,1351.16,957.77,1351.24Z"/><path class="cls-3" d="M902.93,1681.14c-.62,12.62,2.79,16.7,16,10.46,10.48-5,21.4-10.43,33.72-10.48,7.48,0,16.77-1.14,17.4,8.8.57,8.91-7,13.94-15.53,15.05-12.91,1.69-25.92,3.27-38.9,3.35-6.61,0-11.45,3.89-19.56,5.61v-32.79h6.87Z"/><path class="cls-3" d="M902.94,1681.15c-.83-8.68.74-17.27,10.49-18.57,17.66-2.35,31.79-13.5,48.56-17.6a41.35,41.35,0,0,1,13.4-1.34c7.1.67,13.53,2.9,13.37,12.13-.14,8.3-6.11,10.47-12.46,11.32-19.57,2.63-39.16,5.3-58.83,6.88-6.41.51-10.5,3.16-14.55,7.18Z"/><path class="cls-3" d="M1174.78,1598.78c2.18,0,2.75,0,3.32,0,9.45.83,49.32,40.22,49.55,49.56.18,7.42-6.81,6.27-9.8,4.85-18.54-8.79-35.92-19.79-47.8-36.88C1165.75,1610.13,1163.31,1600.62,1174.78,1598.78Z"/><path class="cls-3" d="M1183.3,1543.56c11.32.38,17.27,9.86,23.1,17.74,6.61,8.93,11.11,19.5,15.85,29.68,1.78,3.82,1.3,8.31,7.47,4.16,6.64-4.47,6.13,1.6,6.35,5.27.25,4.23-.64,8.91-6.25,7.72a26.07,26.07,0,0,1-12.08-6c-15.55-14.75-31.91-28.8-43.73-47-1.59-2.45-3.31-4.85-2-7.84C1174.23,1542.45,1178.83,1544.21,1183.3,1543.56Z"/><path class="cls-12" d="M1226.7,1069.57c9.24-17.06,22.71-11,35.87-6.57.26,13.24-4.52,23.83-16.14,30.85-7.85.58-13.7,7.1-22.22,6.63-9.67-.53-12.63-3.39-7-12C1221.14,1082.55,1227.72,1078,1226.7,1069.57Z"/><path class="cls-3" d="M882.28,1756.74c.18-10.42-1.45-21,3.49-30.92,3.63,9.52,11.13,8.86,18.16,5.73,8.83-3.92,17.64-2.29,26.42-1.53,3.54.3,8.45,1.66,8.75,6.51.27,4.41-3.47,7.21-7.07,8.59-6.26,2.39-12.59,5.82-19.54,4.64-11.95-2-18.89,3.59-23.29,13.87l0,0c-.81-3.51,2.14-7.84-1.85-10.43C886.69,1752.76,884,1755.47,882.28,1756.74Z"/><path class="cls-3" d="M1253.21,1530c4.73,9.8,9.72,19.5,11.85,30.32a69.77,69.77,0,0,0-26.52,26.2C1240.61,1566.75,1245.11,1547.95,1253.21,1530Z"/><path class="cls-3" d="M899.51,1797.95c-13-7.8-19.19-19-17.17-34.31l6.84,0,0,0c1,5.6-3.46,14.9,9.64,11.3,7.52-2.07,8.76,3.69,5.27,9.1C901.27,1788.44,899,1792.62,899.51,1797.95Z"/><path class="cls-9" d="M872.38,717.16c-14-5-16.56-18.76-22.74-29.75,10.7,1.72,11,13.27,17.77,18.72a2.89,2.89,0,0,0,4.45-.33l-1.26.53C868.56,710.38,871.84,713.54,872.38,717.16Z"/><path class="cls-3" d="M890.13,1684.29a152.83,152.83,0,0,1,5.66-41.86q.14,19.35.27,38.71Z"/><path class="cls-3" d="M886.48,1718.88c-.42-7-1.54-14.16,2.67-20.6C893.17,1705.78,897.21,1713.29,886.48,1718.88Z"/><path class="cls-3" d="M1218.88,1406.37c4.9,3.72,3.22,8.74,2.66,13.54C1213,1416.89,1214.56,1411.9,1218.88,1406.37Z"/><path class="cls-3" d="M1243.15,1688.41c-.71,1.09-1.49,3.76-3,4.25-3.1,1-3.32-2.05-3.61-4.15s0-4.81,2.53-5.41C1242.3,1682.33,1242.26,1685.29,1243.15,1688.41Z"/><path class="cls-3" d="M991.35,1400.68c1,.42,2.43.63,2.71,1.33s-.68,1.84-1.1,2.8c-1-.42-2.44-.63-2.71-1.31S990.93,1401.63,991.35,1400.68Z"/><path class="cls-3" d="M906.63,1803.6a8,8,0,0,1-7.1-5.64C903.32,1798,905.87,1799.7,906.63,1803.6Z"/><path class="cls-9" d="M845.77,670.43a3.07,3.07,0,0,1-.13-2.8l6.31,1.53Z"/><path class="cls-8" d="M871.85,705.81a2.89,2.89,0,0,1-4.45.33C868.78,704.68,870.06,701.73,871.85,705.81Z"/><path class="cls-4" d="M1772.3,1619.65c-7.21,13.27-4.81,29.72-14,42.67-1.61-19.1,6.32-39-7-56.3,2.91-16.87-3.73-31.56-10.53-46.23-2-4.33-8-7.28-3.52-16.2,16.86,17.2,18.58,40,27.15,60.08,8.65-46.17,14.78-92.05,35.6-134-5.34,29.51-16,57.86-17.22,89.89,11.08-5,15.62-18.62,28.69-15.86,2.65.56,6.13-.4,7,3.24s-1.81,5.53-4.53,6.15C1777.83,1561.36,1773.53,1589.52,1772.3,1619.65Z"/><path class="cls-4" d="M1672.61,1598.71c-13.95-8.45-12.05-25-17.37-37.4-10.64-24.79-16-51.84-23.4-78-.53-1.87.67-4.22,2.79-6.75,9.55,26.18,14.75,53.7,27.63,80.46,6.42-15,5.85-33.57,24-40.26-17.27,25.42-19.32,53-13.59,81.88Z"/><path class="cls-10" d="M382.38,1362.63c5.32,19.06,10.7,35.82,14.48,52.94,2.06,9.34.57,24.31-6.68,25.47-8.9,1.42-10.87-13.16-11.89-21.29C376,1401.47,374.54,1382.74,382.38,1362.63Z"/><path class="cls-6" d="M489.64,1274.58c-12.73,42,4.61,88.68-22,128.61C482.92,1361.53,474,1316.18,489.64,1274.58Z"/><path class="cls-6" d="M418.3,1406.25c-13.92-27.33-24.1-55.16-11.49-86.05-5.36,30.52,6.77,57.94,15,86Z"/><path class="cls-3" d="M375.94,1533.8c12.07,19.06,16.61,35.12,14.57,53C383.29,1571.42,372.75,1557,375.94,1533.8Z"/><path class="cls-6" d="M370.27,1461.23c-12.5-9-10.93-23.7-13.1-36.06-2.4-13.69-.55-28.12,1.11-42.39-2.1,27.19,9.14,52.13,12,78.41Z"/><path class="cls-4" d="M418.3,1406.25h3.54c-.35,13.84,2.32,28.12-4.07,41.18-2.78,5.68-5.08,12.7-13.11,13.79l0,0c-1.54-7.49,3.68-12.73,6.93-18.17C418.58,1431.42,419.14,1419.07,418.3,1406.25Z"/><path class="cls-6" d="M413.8,1271c8.51,13.93.93,26.94-2,40.32C405.54,1297.66,415.45,1284.42,413.8,1271Z"/><path class="cls-6" d="M463.54,1420.82c4.83,6.64,2.27,13.16,3.07,20.7C459.45,1431.93,459.45,1431.93,463.54,1420.82Z"/><path class="cls-3" d="M1059,231c-27.46,0-54.92,0-82.38-.09-3.64,0-9.38,1.7-9.74-3.89-.4-6.26,5.51-6.29,10-6.29q83.24-.11,166.47,0c3.78,0,9.2-1,9.63,4.46.56,7.18-5.78,5.7-9.9,5.72C1115,231.06,1087,231,1059,231Z"/><path class="cls-8" d="M1152.17,250.12H967.22q0-1.88,0-3.76h184.94Q1152.17,248.25,1152.17,250.12Z"/><path class="cls-11" d="M1395.68,1826.63l5.53,2.29Z"/><path class="cls-12" d="M1266.74,1021.83a55.41,55.41,0,0,1-30.31-7.09c1.72-4.74,7.25-2.29,11-6.34-8-.15-15.41-.68-20.72-5.36-6.74-5.94-14-7.92-.74-20.32,30.87-28.95,61.92-7,92.64-7.32,11.22-.13,22.15,5.37,33.76,4.33,19.24,1.68,38.72-1.28,57.83,3.73,12.69,3.33,20.28,18.17,18.42,37.22-1.42,14.51-9.63,18.83-23.38,18.1-20.58-1.1-38-11.48-55.87-19.26-14.56-6.34-27.95-8.06-42.34-3.9C1293.78,1019.44,1280.52,1022.05,1266.74,1021.83Z"/><path class="cls-12" d="M1359.59,956.28c2.15-22.34-8.73-39.42-21.46-56.29a17.94,17.94,0,0,1,.73-22.42c6-6.77,14.32-5.19,22.06-1.51,4.08,1.94,8.38,3.44,12.58,5.15-.43,14.85,7.27,27.5,13.08,40,4.4,9.45,11.65,16.87,4.6,27.43C1383.12,960.68,1371.82,960.72,1359.59,956.28Z"/><path class="cls-1" d="M1373.47,1481.75q7.71,58.76,15.4,117.52c1.14,8.74,4.34,17.61-1,26.11-9.62-49.49-33.58-94.44-45.28-143.26C1352.8,1477,1363.11,1477.46,1373.47,1481.75Z"/><path class="cls-14" d="M875.33,739.29q.2-5.53.4-11.07c5,1.58,6.8,5.88,8.38,10.19,18,49.21,28.53,99.85,28.73,152.42-34.92,3.47-69.84,7-104.77,10.31-5.82.55-7.94,3.44-8,8.79-.08,6.27-.24,12.54-.36,18.81q-1.59,0-3.17-.17-.15-18.9-.3-37.79c2.46-24.7-3.19-49-3.51-73.58,9.5,8.87,7.32,22.16,14.9,36.72,2.12-30.43-13-50.87-23.25-72.79q-8.09-27.52-16.17-55.07c7.15-.71,9.33,4.93,12.79,9.47,21.56,28.32,67.39,34.85,91.63,10.85,3.59,15,4.19,30-.79,44.92-9.82,5-16.37,11.52-8.21,22.56,4.87,6.6,12.91,6.86,18.08,1.78,7.32-7.2,5.95-15.29-3.13-21.18C878.21,776,882.38,757.34,875.33,739.29Z"/><path class="cls-7" d="M815.28,1123.81c-14.64,8.25-21.53,23.66-32.57,35.25-6.38,9.64-12.09,10.19-21.24,1.68-29.24-27.17-59.4-53.35-89.32-79.78-5.93-5.24-7-9.9-.49-15.44,3.9-3.34,7.85-6.86,10.83-11,9.37-13,19.82-15.35,33.62-6.23,8,5.28,17.17,9,26.21,12.43,11.74,4.41,23.85,8.36,36.29,1.76,4.21,1.49,9.2,2,12.48,4.65,14,11.28,35.54,14.6,39.64,36.6A71.55,71.55,0,0,0,815.28,1123.81Z"/><path class="cls-7" d="M796.53,928.58q1.58.15,3.17.17l26,24.38c-7,8.28-4.76,14.51,3.43,20.74,8.53,6.5,16.91,13.5,24.07,21.44,7.69,8.53,13.76,7.2,20.42-.41,2.65,2.92,5,6.19,8,8.7,20.88,17.55,21,17.59,3.82,38.34-6.17,7.44-13,14.31-19.57,21.44-4.68-.74-8.23-3.27-11.71-6.44-17.45-15.86-39.16-21.7-61.62-25.66,7.24-14.63.3-22.33-13.17-26.69-3.23-1-6.78-1.2-9.92-2.43-24.67-9.71-26.26-16-9.56-35.59C771.36,953.15,782,939,796.53,928.58Z"/><path class="cls-10" d="M792.71,817.21c.32,24.57,6,48.88,3.51,73.58a47.41,47.41,0,0,0-26,5.91c-12,6.88-10.67-1-10.6-8.28,2.94-.93,6.68,2.93,9.63-2.52-18.08-6-21.68-20.37-21.43-37.31.25-17.14.17-34.32,5.15-50.86,2.2-7.32,3.6-17.37,12.85-18.28,8.54-.83,13.33,6.85,17.55,14A85.12,85.12,0,0,1,792.71,817.21Z"/><path class="cls-12" d="M792.58,1031.28c22.46,4,44.17,9.8,61.62,25.66,3.48,3.17,7,5.7,11.71,6.44,0,2.26-.5,4.64,0,6.78,5.3,22.22,4.18,24-17.32,28.4-6.06,1.25-11.92,3.44-17.87,5.19-4.09-22-25.61-25.32-39.64-36.6-3.28-2.64-8.27-3.15-12.48-4.65C778.49,1050,787.53,1041.51,792.58,1031.28Z"/><path class="cls-1" d="M704.65,855.82c6.36,27.43,4.18,51.7-1.11,76-1,4.75-3.2,6.87-7.92,7-5.36.14-7.53-2.23-9.39-7.48-5.46-15.44-1.33-30.81,2.75-44.74A94.32,94.32,0,0,1,704.65,855.82Z"/><path class="cls-1" d="M765.94,1393.12c-19.41,6.32-39.07,2.47-58.66,1.38C726.75,1390.32,746.38,1393.12,765.94,1393.12Z"/><path class="cls-1" d="M767.63,1385.86c1,2.67.8,5.09-1.52,7C765.34,1390.28,765.5,1387.86,767.63,1385.86Z"/><path class="cls-15" d="M830.73,1103.75c6-1.76,11.81-3.94,17.87-5.19,21.5-4.44,22.63-6.18,17.32-28.4-.51-2.14,0-4.52,0-6.78,6.55-7.12,13.4-14,19.57-21.43,17.21-20.75,17.06-20.79-3.82-38.34-3-2.52-5.35-5.78-8-8.7-12.54-17.86-27.87-32.53-47.93-41.78l-26-24.38c.12-6.27.28-12.54.36-18.81.06-5.35,2.18-8.24,8-8.79,34.94-3.29,69.85-6.85,104.77-10.31,2.41,75.06,2.25,150.09-3.57,225-31.36,2.16-62.29,9.47-94,8A71.33,71.33,0,0,1,830.73,1103.75Z"/><path class="cls-1" d="M906.38,1392.49c9.07.85,18.42-2.14,27.25,2C924.43,1395.4,915.05,1398.8,906.38,1392.49Z"/><path class="cls-6" d="M504.21,531.71q0,24,0,48c0,4.16-.54,8.3-4.86,10.09-3.83,1.59-6.28-1.54-8.87-3.71C482.64,579.51,474.71,573,467,566.3c-3.13-2.74-5.69-6.56-2.28-10.34,3.15-3.5,7.56-2,11,.14,2.86,1.8,5,4.68,7.77,6.69,2.19,1.59,5.12,4,7.19,3.53,4.36-.93,3-5.42,3.06-8.6.18-19.42.22-38.84.27-58.26,0-4.57-.25-9.15-.11-13.71.12-3.88-.43-9.14,5-9.3s5.17,5.12,5.2,9c.12,15.42.05,30.85.05,46.27Z"/><path class="cls-6" d="M403.28,578.18c5.34.66,12.93-1.11,13.36,6.62.38,6.85-6.43,6.57-11.47,6.47-5.49-.11-12.72.85-13.2-6.89S398.71,578.95,403.28,578.18Z"/><path class="cls-6" d="M504.59,678.46c-1.29,5.19,1.64,12.92-6.42,11.82-6.86-.93-4.14-8.2-4.22-12.76S492,665.1,499,665.46C507.29,665.89,502.53,674.53,504.59,678.46Z"/><path class="cls-6" d="M593.12,588.84c-4.65-.87-12.17,1.87-12.08-5.33.09-6.93,7.51-4.87,12.16-5.08,4.93-.23,12.12-.75,12,5.62C605.09,591.36,597.4,587.6,593.12,588.84Z"/><path class="cls-10" d="M768.19,726.07q8.08,27.54,16.17,55.07c-30.53-11.21-21.1-36.51-20.69-58.62l5.1,3.56Z"/><path class="cls-14" d="M768.78,726.08l-5.1-3.56a3,3,0,0,1,.64-3.11C768.36,719.93,768.71,722.91,768.78,726.08Z"/><path class="cls-1" d="M1146.86,416.51c-2.23,14.7,3.91,29.67-6.75,44.45-8,11.09-16.45,14.06-28.21,14.05q-60.91,0-121.81,0c-4.57,0-9.86-1.27-13.59.56-20.32,9.93-18.91-2.76-18.79-16.46.16-18-1.48-35.92-.34-54.07.82-13,4.3-20.64,17.18-23.13,10.56-2,21.09-4.24,31.64-6.36,1.44,24.5,18.39,40.94,42.94,41.06C1081.71,416.77,1114.29,416.56,1146.86,416.51Z"/><path class="cls-1" d="M1006.22,375.54q0-3.69,0-7.38c36.65.06,73.29.24,109.94.14,16.57,0,28.23,7.58,36,21.74,1.74,3.18,2.27,6.84-1.92,8.61-3.25,1.38-5.26-.77-6.47-3.74-7.07-17.36-21.37-19.86-38-19.58C1072.64,375.88,1039.43,375.52,1006.22,375.54Z"/><path class="cls-1" d="M1157.2,416.6l-3.34-3.6Z"/><path class="cls-1" d="M889.18,1763.6l-6.84,0q0-3.45-.07-6.9c1.74-1.27,4.41-4,5.06-3.56C891.33,1755.76,888.37,1760.09,889.18,1763.6Z"/><path class="cls-5" d="M871.82,791.31c5-14.89,4.38-29.88.79-44.92.15-2.66-.25-5.53,2.72-7.1,7,18,2.88,36.75,3.22,55.18-3.68,1.77-.82,8.1-6.73,8.94Z"/><path class="cls-10" d="M869.84,624.15c-3.57,6.77-9.1,9.05-15.82,8.14-4.64-.63-10.35-3.06-8.32-8.3,2.94-7.61,10.95-3.1,16.69-4C865.52,619.52,869.26,619.74,869.84,624.15Z"/><path class="cls-11" d="M819.87,582.54c6.4,1.57,9.85,5.53,10.55,11.6.51,4.45-1.36,7.64-6.42,7.72-5.94.08-9.47-2.85-10.1-8.79C813.38,588.2,815,584.43,819.87,582.54Z"/><path class="cls-8" d="M1112.22,697.79c-18.39,5-21.23-4.93-20.4-21.27,1.15-22.45.22-22.15-22.67-22.83-6.89-.2-17.13,4.36-20.12-4.2-3.49-10-3.81-22,.46-32,3.56-8.31,13.25-4.52,20.29-4.64,22.29-.39,22-.16,22.52-22.36.14-6.31-4-15.82,4.45-18.22,10.78-3,23.4-4.45,33.41,1,6.73,3.69,3.34,13.91,2.78,21-1.08,13.65,2.72,21,17.76,18.39a9.28,9.28,0,0,1,3.42,0c7.49,1.58,19-4.4,21.88,4,3.35,9.69,2.38,21.63.57,32.12-1.43,8.31-10.47,4.65-16.19,4.78-26.92.63-28,.51-26.78,27.19C1134.37,697.83,1126.5,700.28,1112.22,697.79Z"/><path class="cls-11" d="M1390.69,610.34c-1.48,6.89-5.56,11.88-13.49,12.09-7,.19-10.62-4-10-10.75.72-7.7,5.44-12.37,13.33-12.63C1387.55,598.83,1390.67,603,1390.69,610.34Z"/><path class="cls-1" d="M1359.09,642.49c.81-.6,2.07-1.89,2.37-1.7,2.05,1.34.87,2.53-.47,3.6Z"/><path class="cls-14" d="M1314.5,812.35c-.83,1.25-2,3.18-3.3,5-4,5.24-34.55,8.64-39.12,4.1-3.71-3.68-7.88-10.86-.72-11.86,12.77-1.78,25.5-6.16,38.7-4.15C1313.43,805.91,1314.66,808.27,1314.5,812.35Z"/><path class="cls-7" d="M871.82,791.31v12.1c5.91-.84,3.06-7.18,6.73-8.94,9.08,5.89,10.45,14,3.13,21.18-5.17,5.08-13.21,4.82-18.08-1.78C855.45,802.83,862,796.27,871.82,791.31Z"/><path class="cls-5" d="M825.74,953.13c20.05,9.25,35.39,23.92,47.93,41.78-6.67,7.6-12.74,8.94-20.43.41-7.16-7.94-15.53-14.94-24.07-21.44C821,967.63,818.7,961.4,825.74,953.13Z"/></g></svg>