<svg xmlns="http://www.w3.org/2000/svg" viewBox="0 0 2100 2100"><defs><style>.cls-1{fill:#d1f2f9;}.cls-2{fill:#87c8de;}.cls-3{fill:#89c9dd;}.cls-4{fill:#b8e1e8;}.cls-5{fill:#2a2e4e;}.cls-6{fill:#a5d9e7;}.cls-7{fill:#eb6c51;}.cls-8{fill:#d5533f;}.cls-9{fill:#f8c4b8;}.cls-10{fill:#fcfcfc;}.cls-11{fill:#5698b5;}.cls-12{fill:#f2f3f4;}.cls-13{fill:#db8c74;}.cls-14{fill:#f09c7f;}.cls-15{fill:#ec987d;}</style></defs><title>mom2</title><g id="Layer_1" data-name="Layer 1"><path class="cls-1" d="M1189.67,1839c-47.32.4-94.64,1-142,1.14-35.93.13-71.87-.24-107.8-.39-3.62-14.06-34.64-30.84-54.06-29.25-4.06-6.57-11.35-9-17.16-13.27-21.57-15.9-27.52-35.06-17-59.63q17.49-40.73,36.55-80.79c29.11-61.43,66.75-119.17,80.52-187.2,12.35-1.76,15.6-9.05,17-21.19,3.85-34.53,5.21-69.14,7.58-103.72a533.06,533.06,0,0,0-6.68-127c-3-17.87-9.17-35.29-8.48-53.75-3-13.84,9.45-27.45.59-41.37L976,1119l-.31-6.11c3.27-3.89,6.16-8.18,9.86-11.6,34.25-31.58,38.15-72.4,33-114.76-1.4-11.48-4.74-23.82-11.61-35-14.3-23.26-34.36-39-57.75-51.56,3.3-27-2.56-37.6-25.12-45.28,1-6.13,1.34-12.47,3.17-18.35,13.55-43.57-8.56-71.45-44-87.71-26-11.91-50.92-24.84-74.31-41,.75-13.64,3.2-26.9,6.16-40.31s7.57-18,20.44-12.38c6,2.58,11.11.82,15.39-3.88,3.5-3.84,4.38-7.78.89-12.21-2-2.54-5-5-2.21-8.83,17.15,2.09,31.92-10,33.07-26.57.51-7.33,1.83-14.59,2.78-21.89,21.46,10.15,27.88,7.1,31.92-16.76,5.22-30.78-11.48-52.32-32.2-71.52-57.12-52.92-142.37-29.84-161.61,44.18-4,15.28-4.7,31.65-5.1,47.56-.68,27-7.22,51.84-21.72,74.65-15.63,24.57-30.95,49.34-46.63,73.88-29.58,46.3-44.48,96-36.58,151.41,11,77.16,44.71,143.19,96.92,200.34.73,5.81-.9,11.18-2.42,16.75a334.83,334.83,0,0,0-11.31,72.24c-4.34,88.92,8.16,175.92,29.17,261.87,2.51,10.27-.13,25.14,14.82,30.08-3.78,32.87-2.08,65.89-2.71,98.85-.92,48.1,10.6,93.28,29.16,137.25,16.25,38.49,28.3,77.94,19,120.6-3.64,5.18-3.32,11-2.69,16.85h-304c22.84-17.21,44.48-33.72,47.73-62.59,4.15-36.89,6.15-74.46-25.34-102.76-8.36-7.51-18.55-13-27.9-19.39,2.5-16.17,9.61-30.56,17.21-44.77,2.75-.2,5.35-.7,6.85-3.41,28.62,2.65,54-12.65,82-14.66,11.17-.81,21-20.49,16.61-30.06-5.19-11.26-14.21-15.5-26.82-10.8-4.57,1.7-10.78,6.9-14.46-1.74-3.89-9.16,3.07-12.52,9.22-15.28,11-4.94,22.81-6.25,34.92-6.73,15.69-.61,25.43-11.81,25.78-26.15.38-15.72-10.8-18.48-22.21-21-6.64-1.45-11.94,3-17.65,5.48-5,2.18-10,7.25-15.52,1.68-6-6-1.41-11.95,1.72-17.07,6.82-11.17,14.7-21.71,21.42-32.94,7.69-12.86,13.69-26.55,9.87-42.06-1.32-5.36-3.61-11.63-10.86-11.44-5.71.15-9.29,4.51-11.07,9.46-2.62,7.26-4.52,14.75-12.51,21.67-4.86-19.38,6.06-33.95,7.15-49.84,1.43-20.8,7.24-42.76-14.56-57.62-14-9.56-27.52-3.19-28.55,14a158.69,158.69,0,0,0,1.57,35.79c2.19,13.15,8.28,26.36,2.32,40.28-3.52,8.23-7.62,17-17.38,15.9-9-1-13.18-10.11-16.56-18.12-2.26-5.36,1.37-10,2.82-14.77a74.12,74.12,0,0,0,.8-42.1c-1.59-5.75-5.46-10.28-12.47-9.53-6.5.7-7.77,6.2-8.9,11.13-1.65,7.2-2.62,14.56-3.92,21.85-.54,3.06-2.21,5.82-5.4,5.45s-4.32-3.51-4.38-6.51a129.48,129.48,0,0,1,1.5-23.82c3.24-19.57,0-38.59-9-56.33-5.27-10.4-15.18-14.56-25.78-12.33-11.37,2.4-15.54,11.16-15.7,23.22-.22,16.2,4.91,30.29,12.83,43.73,5.67,9.62,8.74,20,7.92,30.91-1.38,18.43-12.78,23.49-29,15.1-8.47-4.39-11.83-11-15.82-18.69-4.27-8.24-5.38-23.67-19.52-19-13.09,4.36-7,17.06-5.4,26.71,1.18,7.21,3.26,14.36-3.42,23.13-9.19-17.13-10.71-34.77-16.12-51.05,10.09-2,11.88-12.28,15.58-18.7,47.63-82.79,92-167.21,110.77-262.13,10.64-53.68,17-108.06,14.24-162.79-2.3-45.45-12.42-90-24.54-133.77-14.45-52.19-19.26-105.15-15.93-158.81,2.19-35.28,12.49-69.11,22.71-102.91,16.93-56,43-107.47,73.49-157,39.76-64.61,88-121.2,153.12-161.91,59.55-37.24,124.26-55.11,194.44-49.75,50,3.81,98.1,16.6,145,34.27,3.14,1.19,4.28,3.45,4.74,6.41-8.57.14-17.14.31-25.71.42-33.64.45-52.87,19.54-53.18,52.85q-.15,16.29-.27,32.58c-10.26.06-20.55-.26-30.79.24-20.5,1-43.06,18.54-43.65,38.4-1.13,38-4,76.23,2.25,114.19,1.16,7,3.31,10.22,9.34,4.42,12.64-12.16,28-13.59,44.41-13.07,18.8.6,37.63.27,56.45.34,0,5.7-.66,11.48,0,17.09,4.47,36,14.43,53.93,53.92,51.67,34.09-2,68.38-.13,102.58-.55,14.62-.18,28.18,2,40.58,10.26,10.59,7.06,15.58,3.72,15.5-8.9-.18-28.5-.06-57,0-85.5,0-4.61-1.55-8.3-3.91-12.51-12.31-22-32.7-23.72-54.29-23.21l-.41-31.15c20.34,1.85,42.24-5.7,60.29,10.14,3.15,2.76,5.77,8.15,11.24,5.05,4.65-2.63,3.93-7.79,4-12.27q.32-34,.52-68c8.1,10.38,20.65,14.11,31.71,18.88,49.82,21.51,98.1,46.17,147,69.48,42.9,20.42,84.7,42.87,123.52,70.26,15.23,10.74,28.37,24.47,42.29,37,5.27,4.75,8.35,7.09,17.09,2.75,46.53-23.06,93.29-24.84,139.21,3.26,6.08,3.72,9.36,7.73,10.23,14.34.5,5.08-1.06,9.64-3.51,14-12.45-14.85-29.47-22.65-47.33-27.21-46.69-11.92-101.8,1.24-132.52,55.24-26.78,47.08-13.36,110.31,25.34,141.36,3.09,2.48,7,4.07,7.12,8.85-4.86.53-9.1,2.19-9.83,7.66-.88,6.51,4.35,8.53,8.85,11,49.3,26.91,97.73,26.18,145.22-4.54,4.33,12.12,8.11,24.48,13.1,36.33,22.33,53,36.65,108,45.53,164.89,5.2,33.26,8.76,66.57,9.39,100,1.5,80-8.87,158.69-28.09,236.41-5.93,24-16.82,47.42-13.08,73.26-10.12-23.42-5.77-48.17-6.62-72.44-.24-6.74,1.21-14.76-8.12-16.48-8.88-1.64-12.43,6.18-14.36,12-6.23,19-10,38.32-6.92,58.7,2.75,18,3.73,36.18,5.76,54.25,3.51,31.27-7.57,60.59-11.76,91-4.29-2.1-4.6-6.21-5.65-10-6.2-22.45-2.59-45.43-3.75-68.15-1.38-26.87-3.53-53.81-19.22-76.87-8.8-12.94-11.84-26.81-11.21-41.78.6-14.18,2.28-28.32,3.14-42.49.34-5.62.88-12.26-6.5-14s-10.09,4.39-12,9.64c-4.68,12.81-9.06,25.54-9,39.73.1,38.53,4.6,77.34-3.56,115.5-4.73,22.08-4.47,43.34,7,62.88,17.71,30.2,17.73,60.81,3.68,91.67-14.21,31.21-16.36,64-13.22,97.11,1.65,17.42,3.52,36.78,23.47,45.74-32.16,15-43.91,42.16-44.49,75.7-.27,16,.79,32-.2,47.93-2.56,41.27,19.36,69.05,53,89.06H1493.1c-.15-7.37-3-13.81-6.87-19.89-8.92-27.84-13.89-56-9.22-85.41,3.47-21.85,6.19-43.82,8.93-65.77,7.25-58.14,6.79-116.69,9.27-175.09,13.76-.29,25-3.5,25.06-20.6,0-30.78,2-61.57-.54-92.33,24.93-1.4,24.74-1.4,25-26.4.43-44.95-3.37-89.63-6.41-134.43-2.88-42.47-2.72-85.2-7.74-127.52-2.58-21.78-5.08-44.15-14.19-64.33-6.58-14.57-7.69-23.56,8.26-33.41s34.29-20.79,36.58-42.53c1.67-15.79,2.35-32.27-.25-47.82-12-71.86-40.31-137.19-83.25-196-19-26-43.13-36.27-63.74-28.21-4-5.49-9.36-7.49-16-6.32-1.34-7.22-8.3-12.31-7.9-20.23,11.33-1.92,59.77-33.36,66.07-42.91,8.84-13.42,8.4-27-4.5-36.49-15-11-22.62-22.68-16.76-41.82,2.44-8-.15-17.1-11.41-16.56-14,.67-19.41-5.89-20.64-18.9-1.1-11.6-6.75-19.06-20.06-18.07-9.46.71-17.34-3.26-25.23-8.65-25.81-17.59-51.93-14.51-74.17,7.78q-6,6-12.21,11.88c-15.87,15-16.51,39.64-33.83,53.76a2,2,0,0,0-.24,1.65c7.37,26.1-8.17,49.42-9.15,74.74-.83,21.34,26.05,50.5,45.85,41.91,15.58-6.77,29.66-3.52,44.43-4.47.72,15.6-8.28,25.55-19.76,34.06-6.15.84-12.67.65-18.38,2.71-28.82,10.39-58.4,19.18-68.14,54.62a662.26,662.26,0,0,0-18.13,91c-1.4,10.85-6.85,21.59-12.24,31.39s-13.71,14-25.86,9.45c-16.62-6.28-27.12-17.94-34-33.56-13.2-30-16.73-33.23-33.91-30-8.55-20.83-17.93-41-42.05-48.12-3.51-1-6.54-6.86-10.39-2.87-4.12,4.27-.36,8.33,2.75,11.8,1.85,2.07,4.35,3.81,3.45,8.07-19,1.65-34.58-7.88-50.5-16-4.25-2.17-8-5.08-12.33-1.33-4.76,4.08-3.26,8.92-1.39,14.06,6.95,19.19,24.47,24.32,40.83,30.4,12.8,4.76,26.24,7.81,36,18.41-7.66,9.48-7,18.21-1.2,29.27,15.42,29.66,30.58,59.28,50.28,86.5,18,24.86,39.51,45.11,67.1,58.68,15.9,7.82,29.81,2.65,43.1-6.78,5.57-4,5.32-12.6,11.68-15.1,0,25.21,1.28,50.43-.26,75.48-3.63,58.92-10.55,117.7-12.37,176.66-1.25,40.43-3.31,80.85-4.86,121.26-.52,13.43-2.42,23.39,14,25.78a688,688,0,0,0,6.82,85.94c3.5,24.52,3.2,24.56,27.14,24.8,7.65,71.37,14.34,142.86,23.38,214.06,4.32,34,9,66.29-25.47,88.32-.8.51-1,2-1.45,3.05-2-1.15-4.7-3.79-5.73-3.23-17.82,9.6-35.66,19.24-52.86,29.88C1190.64,1828.08,1190.85,1834.68,1189.67,1839ZM1050.55,539.6c-52.73-.1-87.16,37.65-84.64,97.47,1.16,27.59,37.18,70.63,85.34,71.86,38.89,1,85.89-41.72,85.6-84.85C1136.53,575.5,1094.75,535.55,1050.55,539.6Z"/><path class="cls-2" d="M353.59,1342.86c5.41,16.28,6.93,33.92,16.12,51.05,6.69-8.76,4.6-15.92,3.42-23.13-1.58-9.66-7.7-22.35,5.4-26.71,14.14-4.71,15.25,10.72,19.52,19,4,7.7,7.35,14.29,15.82,18.69,16.18,8.38,27.58,3.32,29-15.1.82-11-2.25-21.29-7.92-30.91-7.92-13.44-13.05-27.52-12.83-43.73.17-12.07,4.33-20.82,15.7-23.22,10.6-2.24,20.5,1.93,25.78,12.33,9,17.73,12.22,36.75,9,56.33a129.48,129.48,0,0,0-1.5,23.82c.06,3,1.23,6.15,4.38,6.51s4.86-2.4,5.4-5.45c1.3-7.29,2.26-14.64,3.92-21.85,1.13-4.92,2.4-10.43,8.9-11.13,7-.75,10.87,3.78,12.47,9.53a74.12,74.12,0,0,1-.8,42.1c-1.45,4.77-5.08,9.41-2.82,14.77,3.38,8,7.53,17.09,16.56,18.12,9.75,1.11,13.85-7.66,17.38-15.9,6-13.92-.14-27.13-2.32-40.28a158.69,158.69,0,0,1-1.57-35.79c1-17.19,14.53-23.57,28.55-14,21.79,14.86,16,36.82,14.56,57.62-1.09,15.9-12,30.46-7.15,49.84,8-6.92,9.9-14.41,12.51-21.67,1.78-4.95,5.36-9.3,11.07-9.46,7.25-.19,9.54,6.07,10.86,11.44,3.82,15.51-2.18,29.2-9.87,42.06-6.72,11.23-14.59,21.77-21.42,32.94-3.13,5.13-7.69,11-1.72,17.07,5.51,5.57,10.55.5,15.52-1.68,5.7-2.5,11-6.93,17.65-5.48,11.4,2.49,22.58,5.25,22.21,21-.35,14.34-10.08,25.53-25.78,26.15-12.12.47-23.9,1.78-34.92,6.73-6.15,2.76-13.12,6.12-9.22,15.28,3.67,8.64,9.89,3.44,14.46,1.74,12.6-4.7,21.63-.46,26.82,10.8,4.41,9.57-5.44,29.25-16.61,30.06-28,2-53.38,17.31-82,14.66,12.71-12.26,26.58-22.85,42.89-30,3.17-1.39,9.45-1,6.29-7.21-2.4-4.71-6.75-3.09-10.4-1-8.77,5.13-17.53,10.29-26.21,15.56-3.31,2-6.66,6.08-10.47,3.21-3.6-2.71-2.15-7.31-.27-11,16.31-32.16,22.3-67.63,32.47-101.75,1.24-4.15,7-11.45.19-13.13-7.61-1.87-6.41,7.29-7.7,12.34-4.65,18.13-8.93,36.36-13.86,54.41-1.28,4.7-2.84,11.61-8.67,11.42-6.48-.21-3.79-7.07-4.23-11.13a27.18,27.18,0,0,0-6.59-15.5c-3-3.4-4.62-11.85-10.9-7.72-5.73,3.76,1.54,7.63,3.34,11.11,15.28,29.53,14.21,63.54-3,83.36-9.76-12-18.26-26.37-37.75-19.57l-.2-.86c8-49.25,14.32-98.62,10.74-148.73-9.81,49.16-6.56,99.74-17.38,148.72a28.84,28.84,0,0,0-.1,3.29c-13.81-8.52-16.16,7-23.86,11.35-2-18.55,6.74-34,14.1-49.9,1.58-3.41,5.06-8.54.58-10.64-6-2.83-6.69,3.66-8.33,7.71-7,17.26-14.74,34.24-16,53.47-13.55-45.74-15.74-93.58-36.34-136.72,4.61,29.67,14.26,58.3,17.56,89.24-22.76-16.68-24.89-17.33-38.45-12.33,44.63,32,49.37,38.95,49.55,72.14-36.5,2.78-56.71-22-76.06-46.54-12.85-16.29-8.82-25.58,10.63-33,7.34-2.8,17.3-5.16,15.73-15-1.65-10.42-8-20.05-20.74-18.67-15.37,1.67-24.56-6.11-32.37-17.43.23-16.11-3.13-33.64,16.68-42,29.78,1.94,39.53-10.5,28.13-36.06-1.78-4-3.1-8.53-7.48-10.82-8.38-9.9-20.13-16.61-26.07-28.89-8.84-18.26-5.85-37.11,7.57-43.77,14.24-7.07,27.89-.4,38.09,18.67C350.82,1336.61,352.14,1339.77,353.59,1342.86Z"/><path class="cls-3" d="M1678.39,1627.44c-19.95-9-21.82-28.32-23.47-45.74-3.14-33.09-1-65.89,13.22-97.11,14.06-30.86,14-61.47-3.68-91.67-11.46-19.55-11.71-40.8-7-62.88,8.17-38.16,3.66-77,3.56-115.5,0-14.19,4.34-26.92,9-39.73,1.92-5.25,4.55-11.43,12-9.64s6.84,8.41,6.5,14c-.86,14.18-2.54,28.31-3.14,42.49-.63,15,2.41,28.84,11.21,41.78,15.69,23.06,17.84,50,19.22,76.87,1.17,22.72-2.45,45.7,3.75,68.15,1,3.8,1.37,7.91,5.65,10,4.19-30.37,15.27-59.69,11.76-91-2-18.07-3-36.29-5.76-54.25-3.13-20.38.69-39.74,6.92-58.7,1.93-5.87,5.48-13.68,14.36-12,9.33,1.72,7.89,9.73,8.12,16.48.85,24.27-3.5,49,6.62,72.44.62,13.53,11.48,22.7,13.88,37.9,6.24-11,5.32-26.71,16.14-26.52,12,.21,10.28,15.72,13.69,24.78,15.09,40.11,18.51,80.32,3.4,121.77-7.19,19.73-3.68,40.68,3.61,60.39,13.19,35.67,8.42,71.9,3.89,108.15-1.06,8.46-5.58,10.33-13.25,7.23-5.24-2.12-10.8-3.47-16.22-5.16q-.37-1.44-.72-2.88c2.87-10.36,5.23-20.9,8.7-31.06,9.68-28.34,11.21-56.4.24-84.89-6.79-17.63-9.25-35.64-3.38-54.61,2.08-6.73,7-14.27,1.53-26.17-9.08,27-14.53,50.46-5.9,75.39,8.69,25.09,14.15,50.6,3.82,76.5-5.78,14.5-7.34,29.54-8.55,44.77l.38,1.09-27.82-.83c-5.18-26.37-13.68-52.41-6.69-79.87,4.31-16.94,8-34,12-51.05,3.3-13.92,3.1-27-8.67-37.39-13.32-27.76-12-55.28-.66-83.56,6.38-15.94,4.76-33.26,2-50.3,1.14,28.45-9.48,54.19-17.19,80.66-5.52,18.93,2.33,43.27,15.81,53.26,2.77,17.9,5.44,35.6.32,53.77-2.4,8.51-6.08,16.46-7.81,25.51-5.51,28.86-2.62,57.15.62,85.66-16.55-26-12.62-54.34-8.67-82.28a199.43,199.43,0,0,0,.27-51.17c-2.5,18.8-8.78,36.39-15,54-4.83,13.81-4.86,27.56-1.17,41.94,3.52,13.71,12.1,26,11.26,40.9l-31.13.46-3.8,0,.05-.59c.9-8.78-1.45-16.61-5.08-24.7-7.05-15.71-7.17-32.5-6.37-49.61,1.36-28.83,8.48-56.85,11-85.34,3.14-34.93,2.45-70.07-14.08-102.77-6.21-12.29.07-26.47-5.08-39.15,1.73,22.19-5.48,44.51,5.69,66.66,13.78,27.34,11.8,56.83,5.84,86.18-6.49,32-13.28,63.57-10,97.09,1.82,18.51,10.23,34.62,12.06,52.58l-8,5.15a12.89,12.89,0,0,0-2.94.4Zm103.59-278c-6.18,21.93-17.58,42.56-14.42,66.43.71,5.35-1.09,13.35,6.12,14,6.74.59,7-7.82,9.12-12.6C1793,1394.78,1784.62,1372.22,1782,1349.46Zm3.73,174.71c-7.64,16.59-18.94,32.2-12.63,54.58C1782.3,1559.87,1790.63,1543.61,1785.71,1524.18Z"/><path class="cls-3" d="M1236,258.25q-.25,34-.52,68c0,4.48.68,9.64-4,12.27-5.47,3.09-8.09-2.29-11.24-5.05-18.05-15.84-39.95-8.3-60.29-10.14-47.37.06-94.74,0-142.11.25-13.82.07-24.25-5.35-35.27-13.9-17.25-13.38-14.09-30.79-14.59-48.07q.14-16.29.27-32.58c.31-33.31,19.54-52.41,53.18-52.85,8.57-.11,17.14-.28,25.71-.42,45.45.24,90.91.39,136.36.76,34.07.27,51.93,18.47,52.17,52.74C1235.78,238.93,1235.9,248.59,1236,258.25Zm-130.53-37.83c26.2,0,52.4.13,78.6-.12,4.61,0,12.23,2.63,12.71-4.46.52-7.69-7.26-5.37-11.79-5.39q-81.16-.27-162.32,0c-4.57,0-12.36-2.07-11.93,5.35.4,6.93,8.09,4.51,12.72,4.55C1050.79,220.57,1078.13,220.44,1105.47,220.42Zm-94,15.64q0,1.83,0,3.67h184.67q0-1.83,0-3.67Z"/><path class="cls-1" d="M292.29,1476.44c7.81,11.32,17,19.11,32.37,17.43,12.71-1.38,19.08,8.25,20.74,18.67,1.57,9.88-8.39,12.24-15.73,15-19.45,7.41-23.48,16.69-10.63,33,19.35,24.54,39.56,49.32,76.06,46.54l3.41,6.66c-1.93,13.95,2.8,27.33,3.54,41-35.57,13-60.33,43.35-58.53,80.5.66,13.65-.91,27.61,1.38,40.93,4.6,26.75,18.14,42.31,48.32,60-2.06,6.31-7.48,3.81-11.38,3.86-20.55.29-41.23-1.35-61.62.45-43.65,3.86-62-34.18-65.55-63.55-5.4-44.77-3.94-89.86-3.58-134.84.37-45.72,11.25-89.43,25.42-132.65C280.42,1497.54,284,1486,292.29,1476.44Z"/><path class="cls-1" d="M1404.75,1839.73l-63.26.13c1.48-10.89,3.22-21.81-2.68-32.08-1.95-17.46-6.88-34.41-6.14-52.39,3.64-88.12,20.37-175.37,17.32-263.91a260,260,0,0,1,46.78-.29c6.33,55.4,12.34,110.83,19.09,166.18,6.16,50.5,23.91,100.12,10.9,152C1417.07,1817.77,1407.38,1826.2,1404.75,1839.73Z"/><path class="cls-4" d="M1743.6,488.22c2.45-4.34,4-8.9,3.51-14,20.37,1,26.51,18.92,34,32.18,30.34,53.93,22.52,124.29-31.5,166.57-3.12,2.44-6.1,5.05-9.15,7.59-47.49,30.72-95.92,31.44-145.22,4.54-4.5-2.46-9.73-4.47-8.85-11,.74-5.47,5-7.14,9.83-7.66,3.38.31,6.6.49,9.56,2.86,18.83,15.12,42.27,19.33,64.17,17,55.46-5.89,91.44-32.47,106.74-89.74,1.89-7.09,3.5-14.62-3-20.72q0-1.91,0-3.83c7.47-9.79,4.8-20.16,1.61-30.47C1769,521.27,1757.69,503.92,1743.6,488.22Z"/><path class="cls-5" d="M1338.81,1807.78c5.9,10.28,4.16,21.19,2.68,32.08-50.61.24-101.23,1.94-151.82-.84,1.18-4.35,1-11,3.77-12.69,17.2-10.65,35-20.28,52.86-29.88,1-.56,3.78,2.08,5.74,3.24,15.86,29.41,18.18,30.18,49.08,19.5C1313.52,1814.91,1326.24,1811.56,1338.81,1807.78Z"/><path class="cls-1" d="M443.21,1580.37c19.49-6.81,28,7.58,37.75,19.56q.06,3.44.12,6.88l-17.23,48-24.4-.26C437.56,1629.63,443.73,1605.17,443.21,1580.37Z"/><path class="cls-5" d="M1404.75,1839.73c2.64-13.54,12.32-22,22-30.37,15.19-.08,29.11,4.66,42.5,11.24,5.8,2.85,11.42,5.75,16.94-.37,3.88,6.08,6.72,12.52,6.87,19.88Z"/><path class="cls-6" d="M1696.36,1618.26c-1.83-18-10.24-34.07-12.06-52.58-3.29-33.51,3.5-65.1,10-97.09,6-29.35,7.93-58.84-5.84-86.18-11.16-22.15-4-44.47-5.69-66.66,5.15,12.68-1.13,26.86,5.08,39.15,16.53,32.7,17.22,67.84,14.08,102.77-2.56,28.49-9.69,56.51-11,85.34-.8,17.1-.69,33.89,6.37,49.61,3.63,8.09,6,15.92,5.08,24.7Z"/><path class="cls-7" d="M783.51,1839.83c-.64-5.86-1-11.67,2.69-16.85,18,.78,32.85-14.24,51.49-10.43,10.56,2,16.42,10.64,24,16.84,1.79,13.57,15.55,3.1,20.55,10.24Z"/><path class="cls-1" d="M1737.19,1617.42c.84-14.86-7.75-27.19-11.26-40.9-3.69-14.38-3.66-28.13,1.17-41.94,6.18-17.64,12.45-35.24,15-54a199.43,199.43,0,0,1-.27,51.17c-3.95,27.95-7.88,56.32,8.67,82.28q-.06,1.64-.14,3.28Z"/><path class="cls-1" d="M412.41,1594.13c7.7-4.32,10-19.88,23.86-11.36l-10,71.72-14.1.24-6.85-41C403.2,1605.55,409.84,1600.58,412.41,1594.13Z"/><path class="cls-8" d="M882.25,1839.63c-5-7.13-18.76,3.33-20.55-10.23,14,1.34,22.57-4.29,24.15-18.86,19.41-1.59,50.43,15.19,54.05,29.25Z"/><path class="cls-6" d="M1750.31,1617.27q.09-1.64.14-3.28c-3.23-28.51-6.13-56.8-.62-85.66,1.73-9,5.41-17,7.81-25.51,5.12-18.18,2.44-35.88-.32-53.77l.05,0c11.77,10.41,12,23.47,8.67,37.39-4,17-7.7,34.11-12,51.05-7,27.46,1.51,53.5,6.69,79.87Z"/><path class="cls-1" d="M329.62,1387.59c4.38,2.29,5.7,6.84,7.48,10.82,11.4,25.56,1.64,38-28.13,36.06C312.73,1417.47,327.14,1405.16,329.62,1387.59Z"/><path class="cls-4" d="M426.25,1654.49l10-71.72a29.13,29.13,0,0,1,.1-3.29H443l.2.86c.52,24.82-5.65,49.28-3.75,74.15Z"/><path class="cls-4" d="M463.86,1654.76l17.22-48c3.71.19,7.71-.44,10.1,3.53-7.6,14.21-14.7,28.6-17.21,44.77Z"/><path class="cls-4" d="M405.3,1613.7l6.85,41-10.1.09c-.73-13.72-5.46-27.1-3.53-41Z"/><path class="cls-1" d="M1702.26,1617.9l3.8,0Q1704.17,1620.2,1702.26,1617.9Z"/><path class="cls-1" d="M1685.39,1623.81a12.89,12.89,0,0,1,2.94-.4C1687.71,1626.18,1686.74,1626.36,1685.39,1623.81Z"/><path class="cls-1" d="M1791.69,1617.12q.36,1.44.72,2.88l-3.88-1.87-.38-1.09Z"/><path class="cls-9" d="M949.15,900c23.4,12.53,43.45,28.3,57.75,51.56,6.87,11.17,10.21,23.51,11.61,35,5.16,42.36,1.26,83.18-33,114.76-3.7,3.41-6.59,7.71-9.86,11.59-18.55-19.14-34.93-40.17-53.67-59.24-19.37-19.71-37.83-41-48.88-67-18.83-44.23-23.31-45.33-60.19-16.64-10.12,7.87-10.66,13.21-4.33,23.79,19.53,32.67,46.68,57.08,78.71,76.62,11.2,6.83,19.72,16.13,22.11,28.89,3.77,20.15,13.49,37.21,25,53.4,3.62,5.08,4.47,16.49,12.52,13.5,8.82-3.28-5.44-11.16.51-18.31,8.29,9,15.77,20.28,30.67,16.06-.69,18.46,5.43,35.88,8.48,53.75a533.06,533.06,0,0,1,6.68,127c-2.37,34.59-3.72,69.2-7.58,103.72-1.36,12.14-4.61,19.43-17,21.19l-100.05.09-30.87-.12c-32.44.42-64.66-5.48-97.16-3.32-14.95-4.94-12.31-19.81-14.82-30.08-21-85.95-33.51-172.94-29.17-261.87A334.83,334.83,0,0,1,708,1102.1c1.52-5.58,3.15-10.94,2.43-16.75,14.39-32.14,29-64.16,43.07-96.46,12.14-28,11.68-54.82-6.18-81.2-17.61-26-31-54.27-41.9-84-11.13-30.33-7.71-59.48,2.49-88.57,4.83-13.75,12.7-25.86,29.15-28.14,16.61-2.3,28.42,6,38.24,18.09S787.1,752,790.13,766.51c5.9,28.16,6.26,57.47,17.12,87.22,2.27-3.92,3.48-5.57,4.23-7.41,1.94-4.74,4-9.47,5.45-14.36,13.44-43.75,3-84.46-15.94-124.07l7.93-.23c23.4,16.18,48.37,29.1,74.32,41,35.4,16.25,57.52,44.14,44,87.71-1.83,5.88-2.15,12.22-3.17,18.35a70.41,70.41,0,0,0-32.93,7.51c-3.88,2-9.83,1.63-10.67,7.08-1,6.67,8.2,4.58,9.76,9.51-13.08,13.05-13,13-10.35,29.74.26,1.69-1.68,4-3.08,5.64-4.67,5.4-3,6.51,3,10.63,10.9,7.53,24.48-2.27,29.68,2,16,13,18.35-2.51,24.86-8.85C939.8,912.56,941.42,903.74,949.15,900Z"/><path class="cls-10" d="M1414,680.35c20.61-8.06,44.74,2.17,63.74,28.21,42.93,58.84,71.2,124.18,83.25,196,2.61,15.55,1.92,32,.25,47.82-2.3,21.74-20.62,32.67-36.58,42.53s-14.84,18.85-8.26,33.41c9.12,20.18,11.61,42.55,14.19,64.33,5,42.32,4.86,85,7.74,127.52,3,44.8,6.84,89.48,6.41,134.43-.24,25-.05,25-25,26.4-35.93.91-71.87,1.52-107.78,2.94-10.36.41-15.82-1.41-16.09-13.31-.36-15.92-2.71-31.79-3.77-47.71q-5.82-87.83-11.34-175.67c6.53,9,12.31,9.5,21.15,1.33,24.23-22.4,49.54-43.63,74.35-65.41,22.54-19.79,22.24-19.63,3.06-42.46-7.62-9.07-14.5-12.35-26.2-6.21-13.51,7.09-27.19,14.26-42.2,18.28-10,2.68-19.14,3.49-26.3-5.82-3.65-9.82-6.53-20-14.44-27.63-2.45-14.74.06-25.77,18-28.11,5.86-.76,11.16-5.4,16.86-7.94,12.65-5.64,14.15-11.42,3.78-22.37-15.74-16.61-33.47-32-42.36-54.14l-1-13.79q.13-8.53.26-17.06l7.07-79.08c1.32-4.3,1.79-9.15,4.13-12.78,4.88-7.58,10.44-16.67,20.54-15.61s11.35,11.67,13.48,19.75c4.86,18.38,5.58,37.24,4.71,56.12-.78,16.84-7.67,28.87-29.42,29.19,17.78,5.84,29.91.38,33.1-15.81,5.61-28.39,5.83-57.63-7.71-83.69-5.83-11.23-7.46-20.59-5.4-31.89,1.9-12.19,3.43-24.36-2.16-36.1v.11l.3-11.56C1409.67,691.27,1412.16,686,1414,680.35Zm46.32,167.79c-7.14,20-5.59,39.86-1.66,60,1.49,7.6-.36,18.62,10.08,18.41,11.05-.23,9.66-11.87,10.58-19.81C1481.84,884.65,1469.53,867.09,1460.29,848.13Z"/><path class="cls-5" d="M801,707.89c18.93,39.61,29.38,80.33,15.94,124.07-1.5,4.88-3.51,9.62-5.45,14.36-.75,1.84-2,3.48-4.23,7.41C796.39,824,796,794.67,790.13,766.51c-3-14.49-5.06-29.34-14.81-41.39S753.71,704.73,737.09,707c-16.46,2.28-24.33,14.39-29.15,28.14-10.21,29.08-13.62,58.23-2.49,88.57,10.89,29.68,24.29,57.95,41.9,84,17.87,26.38,18.32,53.24,6.18,81.2-14,32.3-28.68,64.32-43.07,96.46C658.24,1028.2,624.52,962.16,613.53,885c-7.9-55.42,7-105.11,36.58-151.41,15.68-24.54,31-49.31,46.63-73.88,14.5-22.8,21-47.68,21.72-74.65.4-15.91,1.13-32.28,5.1-47.56,19.25-74,104.49-97.11,161.61-44.18,20.72,19.19,37.42,40.74,32.2,71.52-4,23.86-10.46,26.91-31.92,16.76-15.08-11.28,1.7-24.27-1.12-37C863,567.54,844.27,576.65,823,574c-7.57-.95-16.57-1.05-17.1-12.47-.4-8.51-4.48-15-13.61-13.76-9.68,1.3-9.12,10.11-9.52,17.47-.28,5.17-.21,10.46,3.17,14.7,4.85,6.09,3.59,12.51,2.53,19.42C782.74,636.63,785.4,673,801,707.89Z"/><path class="cls-11" d="M1380.75,1147.29q5.65,87.84,11.34,175.67c1.05,15.92,3.41,31.78,3.77,47.71.27,11.9,5.73,13.72,16.09,13.31,35.91-1.43,71.85-2,107.78-2.94,2.57,30.77.58,61.56.54,92.34,0,17.1-11.3,20.32-25,20.6-32.8-.83-65.49-6.27-98.43-2.76a260.69,260.69,0,0,0-46.79.28c-31.58-2.69-63,1.3-94.42,2.78-23.94-.24-23.63-.28-27.14-24.8a687.88,687.88,0,0,1-6.82-85.94l21.17-.79c6-.44,14.37,5.88,16.53-5.72,2.41-34.2,4.82-68.42,3.33-102.72-2.45-56.45-5.33-112.89-8-169.33,31.67-.7,62.58,8.86,94.33,7A157.47,157.47,0,0,1,1380.75,1147.29Z"/><path class="cls-10" d="M1254.62,1105c2.7,56.44,5.58,112.88,8,169.33,1.49,34.3-.92,68.52-3.33,102.72l-16.53,5.72-21.17.79c-16.41-2.38-14.51-12.35-14-25.78,1.55-40.41,3.61-80.83,4.86-121.26,1.82-59,8.74-117.73,12.37-176.66,1.54-25,.26-50.27.26-75.48-6.37,2.5-6.11,11.14-11.68,15.1-13.3,9.43-27.2,14.6-43.1,6.78-27.59-13.57-49.11-33.82-67.1-58.68-19.7-27.23-34.86-56.85-50.28-86.5-5.75-11.06-6.46-19.79,1.2-29.27,13.18-.23,22.8-8.79,33.67-14.4,17.18-3.24,20.71,0,33.91,30,6.87,15.63,17.37,27.29,34,33.56,12.15,4.59,20.53.23,25.86-9.45s10.84-20.54,12.24-31.39a662.26,662.26,0,0,1,18.13-91c9.75-35.44,39.32-44.23,68.14-54.62,5.71-2.06,12.23-1.86,18.38-2.72,3.1,11.26-14.76,16.8-7.95,29.08-8.45-.82-9.95,5.53-12.21,11.48-18.37,48.43-26.11,98.8-27.68,150.31l-.27,14.15a3,3,0,0,0-.24,3.17C1248.73,968.32,1249.13,1036.7,1254.62,1105Z"/><path class="cls-12" d="M1773.68,575.88c6.49,6.11,4.88,13.64,3,20.72-15.3,57.27-51.27,83.85-106.74,89.74-21.9,2.33-45.34-1.89-64.17-17-3-2.37-6.19-2.56-9.56-2.86-.11-4.78-4-6.38-7.11-8.85-38.69-31-52.12-94.27-25.34-141.36,30.72-54,85.83-67.17,132.52-55.24,17.86,4.56,34.89,12.36,47.33,27.21,14.1,15.69,25.43,33,31.72,53.36,3.19,10.31,5.86,20.68-1.6,30.45-8.48-6.52-17.56-6.42-26.55-1.66a4.07,4.07,0,0,0,0,7.06C1756.08,582.1,1765.17,582.24,1773.68,575.88Zm-112.54-1.74v.07c9.26,2.14,38.32-17.48,37.15-25.61s-7-6.18-11.35-3.16c-5.87,4-10,10.9-18.28,10.83q-.11-27.27-.21-54.54c-2.18-8.07,3.32-15.22,2.8-23.07-.35-5.37,1-13.13-7-12.59-7.47.51-6.43,8.28-5.9,13.56.74,7.37,6.32,14.15,2.64,22.1q0,34.22-.08,68.43C1658.92,571.61,1658.72,573,1661.14,574.14Zm-90.38,6.48c5.15-.57,13,1.39,13.11-6.61s-7.77-6.77-13.19-6.71c-5.9.07-14.69-1.5-14.21,7.39C1556.85,581.74,1565,580.25,1570.76,580.62Zm92.43,71c-1.68,11.14-6.68,18.83-1,26.92,1.38,2,4.84,1.38,6-.61C1672.9,669.75,1672.15,661.9,1663.19,651.65Z"/><path class="cls-5" d="M1318.24,657.66c-14.78,1-28.86-2.29-44.44,4.47-19.79,8.59-46.68-20.57-45.85-41.91,1-25.32,16.53-48.65,9.15-74.74a2,2,0,0,1,.24-1.65c17.32-14.12,18-38.73,33.83-53.76q6.18-5.86,12.21-11.88c22.23-22.28,48.35-25.37,74.17-7.78,7.9,5.38,15.77,9.36,25.23,8.65,13.31-1,19,6.47,20.06,18.07,1.23,13,6.69,19.57,20.64,18.9,11.27-.54,13.85,8.58,11.41,16.56-5.85,19.14,1.8,30.81,16.76,41.82,12.89,9.48,13.34,23.07,4.5,36.49-6.3,9.55-54.74,41-66.07,42.91-.4,7.92,6.56,13,7.89,20.22-1.34,2.16.56,6.53-4.29,6.29-.85-2.67-1.31-5.55-2.61-8-17.45-32.49-33.37-65-32.69-103.74.32-18.41-12.9-27.75-31.37-25-13.85,2.07-29.26-.88-41.5,9.37-1.24,1-4.87.74-6.37-.35-2.91-2.11,7.16-10-2.72-8.8-6.26.79-2.08,8.71-3.22,13.27-1,4.19.23,9,.48,13.46-.31,8.21-1.07,16.48,3.42,24,5.25,21.56,9.51,43.53,37.08,48.5C1322.45,644.56,1321.51,651.47,1318.24,657.66Z"/><path class="cls-13" d="M868.73,1469.73l100.05-.09c-13.76,68-51.4,125.77-80.52,187.2q-19,40.06-36.55,80.79c-10.55,24.57-4.6,43.73,17,59.63,5.82,4.29,13.1,6.7,17.16,13.27-1.58,14.58-10.14,20.21-24.15,18.87-7.59-6.2-13.45-14.87-24-16.84-24.42-65.24-26.74-132-14.21-199.91,0-5.12,1.34-9.88,2.67-14.89C837.67,1554.18,859,1513.87,868.73,1469.73Z"/><path class="cls-13" d="M1255.58,1494.26c31.46-1.48,62.84-5.47,94.42-2.78,3,88.55-13.68,175.8-17.32,263.92-.74,18,4.19,34.93,6.14,52.39-12.58,3.77-25.29,7.12-37.69,11.4-30.91,10.69-33.22,9.92-49.08-19.5.46-1,.64-2.54,1.44-3.05,34.48-22,29.79-54.3,25.47-88.32C1269.91,1637.13,1263.23,1565.64,1255.58,1494.26Z"/><path class="cls-14" d="M823.48,1612.65c-12.53,67.86-10.21,134.67,14.21,199.91-18.64-3.82-33.46,11.2-51.49,10.42,9.27-42.66-2.78-82.1-19-120.6-18.56-44-30.08-89.15-29.16-137.25.63-33-1.07-66,2.71-98.85,32.49-2.16,64.71,3.74,97.15,3.32-4.07,30.41-8.94,60.75-11.9,91.27C824.3,1578,816.9,1595.08,823.48,1612.65Z"/><path class="cls-14" d="M1396.79,1491.2c32.94-3.51,65.62,1.93,98.43,2.76-2.49,58.4-2,117-9.28,175.09-2.74,22-5.46,43.93-8.93,65.77-4.67,29.4.3,57.57,9.22,85.41-5.52,6.13-11.13,3.23-16.93.38-13.39-6.58-27.32-11.32-42.5-11.24,13-51.86-4.76-101.49-10.92-152C1409.13,1602,1403.12,1546.6,1396.79,1491.2Z"/><path class="cls-6" d="M968,261.62c.49,17.28-2.66,34.69,14.59,48.07,11,8.55,21.45,14,35.27,13.9,47.37-.25,94.74-.19,142.11-.25q.2,15.57.41,31.15h0a28.24,28.24,0,0,1-19.86,3c-26.47-5.65-53.21-2.38-79.8-2.75-36.27-.51-51.17,14.75-51.67,51a21.39,21.39,0,0,0-3,.44c-18.82-.07-37.65.26-56.45-.34-16.4-.52-31.77.91-44.41,13.07-6,5.8-8.18,2.6-9.34-4.42-6.28-38-3.38-76.18-2.25-114.19.59-19.86,23.15-37.38,43.65-38.4C947.47,261.36,957.75,261.68,968,261.62Z"/><path class="cls-15" d="M1273.7,570.57c-.25-4.51-1.53-9.28-.48-13.46,1.14-4.56-3-12.48,3.22-13.27,9.88-1.24-.19,6.68,2.72,8.8,1.5,1.09,5.12,1.39,6.37.35,12.24-10.25,27.65-7.3,41.5-9.37,18.48-2.76,31.7,6.58,31.37,25-.68,38.78,15.24,71.24,32.69,103.74,1.3,2.43,1.76,5.31,2.61,8q-.25,17.19-.49,34.39l.84,3.79c-8.26.76-12.17,7.56-17.25,12.61-18,17.88-48.62,24.57-71.16,14.21-9.73-4.47-23.39-8.21-15.11-24.52-6.81-12.28,11.05-17.82,7.95-29.08,11.48-8.5,20.48-18.46,19.76-34.05,3.27-6.19,4.22-13.1-4-14.59-27.57-5-31.83-26.94-37.08-48.5,11.33-7.7,4.93-22.05,12.24-31.8C1284,565.87,1280.86,572.37,1273.7,570.57ZM1349,583.29c-.54-4.47,1.83-11.06-5.52-12.06-8.43-1.14-10.31,5.68-11.2,12-.81,5.67,1.6,10.52,8,10.69S1348.67,589.23,1349,583.29Zm-40.79,24.94c-3.39,3.27-11.94-3.57-12.81,5.43-.6,6.19,5.73,7.51,10.95,7.78,6.06.31,12.45-1.62,13-7.91C1320,606.59,1312.74,610.15,1308.18,608.24Z"/><path class="cls-6" d="M1050.55,539.6c44.2-4.06,86,35.89,86.3,84.48.29,43.13-46.71,85.84-85.6,84.85-48.16-1.22-84.18-44.27-85.34-71.86C963.4,577.26,997.82,539.5,1050.55,539.6Zm-.26,147c15.74,3.55,22.12-1.37,21.25-18.26-1.31-25.25-.14-26.76,26.35-25.07,19.34,1.23,17.44-9.39,18.08-22,.71-14-1.92-20.61-18.33-19.9-29.16,1.26-27.28,3.63-26.1-24.42.67-15.91-6.51-17.8-19.36-17.13-12.12.63-23.88-2.32-22.5,17.54,1.68,24.15.18,25.37-23.09,24-16.22-.92-19.19,5.67-18.53,19.85.6,12.79-1,23.3,18.13,22,25-1.65,24.63-3.8,23.64,23.62C1029.26,682.86,1032.86,691.57,1050.29,686.62Z"/><path class="cls-14" d="M978.16,1164c-14.9,4.21-22.38-7.07-30.67-16.06-6,7.15,8.31,15-.51,18.31-8,3-8.89-8.43-12.52-13.5-11.55-16.2-21.27-33.26-25-53.4-2.39-12.76-10.92-22.06-22.11-28.89-32-19.55-59.18-44-78.71-76.62-6.32-10.58-5.79-15.92,4.33-23.79,36.87-28.69,41.36-27.59,60.19,16.64,11.05,26,29.51,47.3,48.88,67,18.74,19.07,35.12,40.1,53.67,59.24q.16,3.06.31,6.12l2.78,3.59C987.61,1136.54,975.18,1150.15,978.16,1164Z"/><path class="cls-15" d="M801,707.89c-15.6-34.86-18.25-71.26-12.54-108.54,1.06-6.91,2.33-13.33-2.53-19.42-3.38-4.24-3.45-9.53-3.17-14.7.4-7.36-.16-16.18,9.52-17.47,9.13-1.22,13.21,5.25,13.61,13.76.53,11.42,9.53,11.52,17.1,12.47,21.29,2.66,40-6.44,61.35-29.42,2.82,12.77-14,25.76,1.12,37-1,7.29-2.28,14.56-2.78,21.89-1.15,16.6-15.92,28.67-33.07,26.57-2.84,3.82.21,6.29,2.21,8.83,3.48,4.42,2.61,8.36-.89,12.21-4.28,4.7-9.44,6.46-15.39,3.88-12.87-5.57-17.49-1.05-20.44,12.38s-5.41,26.66-6.16,40.31Zm43.07-106.33c-2.66-5.65-3.55-13.86-12.6-13-5.68.51-11.49,3.3-10.49,10.69,1,7.6,5.84,12.19,13.74,12.23C840.67,611.46,844.1,608.21,844.07,601.56Z"/><path class="cls-12" d="M1006,406.14a21.13,21.13,0,0,1,3-.44l7.14-3.29,3.3,3.76q0,12,.08,23.92c.08,24,9.88,34.1,33.57,34.15,41,.08,82,0,123,0,5.1,0,11.39-1.38,15.09,1,15.54,10.11,16.08-2.69,16.69-11.28,1.17-16.43.51-33,.41-49.51-.15-25-6-31.25-30-37.23-6.72-1.67-19.07,1.19-17.91-12.8h0c21.6-.5,42,1.24,54.29,23.21,2.36,4.21,3.91,7.9,3.91,12.51,0,28.5-.13,57,0,85.5.08,12.62-4.91,16-15.5,8.9-12.4-8.27-26-10.44-40.58-10.26-34.2.42-68.49-1.4-102.58.55-39.49,2.26-49.45-15.66-53.92-51.67C1005.37,417.62,1006,411.84,1006,406.14Z"/><path class="cls-14" d="M949.15,900c-7.73,3.73-9.34,12.55-14.88,17.94-6.51,6.33-8.81,21.88-24.86,8.85-5.2-4.23-18.78,5.57-29.68-2-6-4.12-7.64-5.22-3-10.63,1.4-1.62,3.34-3.94,3.08-5.64-2.61-16.7-2.72-16.69,10.35-29.74-1.56-4.92-10.79-2.84-9.76-9.51.85-5.45,6.79-5.09,10.67-7.08A70.41,70.41,0,0,1,924,854.74C946.59,862.41,952.45,873,949.15,900Z"/><path class="cls-14" d="M1087.82,817.37c-10.88,5.62-20.5,14.17-33.67,14.4-9.72-10.6-23.15-13.65-36-18.4-16.37-6.08-33.88-11.21-40.83-30.4-1.86-5.15-3.37-10,1.39-14.06,4.38-3.75,8.08-.84,12.33,1.33,15.92,8.14,31.55,17.67,50.5,16,.9-4.26-1.6-6-3.45-8.07-3.11-3.47-6.88-7.53-2.75-11.8,3.86-4,6.88,1.82,10.39,2.87C1069.88,776.41,1079.27,796.55,1087.82,817.37Z"/><path class="cls-6" d="M491.18,1610.33c-2.39-4-6.39-3.34-10.1-3.53q-.06-3.44-.12-6.88c17.16-19.82,18.23-53.83,3-83.36-1.8-3.48-9.07-7.34-3.34-11.11,6.28-4.13,7.89,4.32,10.9,7.72a27.18,27.18,0,0,1,6.59,15.5c.43,4.06-2.25,10.92,4.23,11.13,5.83.19,7.39-6.71,8.67-11.42,4.92-18.05,9.21-36.28,13.86-54.41,1.29-5.05.09-14.21,7.7-12.34,6.84,1.68,1,9-.19,13.13-10.17,34.12-16.16,69.59-32.47,101.75-1.88,3.71-3.33,8.3.27,11,3.81,2.87,7.16-1.19,10.47-3.21,8.68-5.28,17.44-10.44,26.21-15.56,3.65-2.14,8-3.76,10.4,1,3.16,6.22-3.12,5.82-6.29,7.21-16.31,7.14-30.18,17.73-42.89,30C496.53,1609.63,493.93,1610.13,491.18,1610.33Z"/><path class="cls-13" d="M1393.2,714.7q.25-17.19.49-34.39c4.86.24,3-4.13,4.3-6.29,6.63-1.17,12,.83,16,6.32-1.81,5.69-4.3,10.92-9.6,14.26-6.49,3.69-5.48,7.57-.3,11.56v-.11c-4.35,1.88-3.23,6.16-4.19,9.53a3.06,3.06,0,0,0-2.65-.83c-.47-1.35-.78-3.76-1.43-3.86C1393,710.49,1393.91,713.26,1393.2,714.7Z"/><path class="cls-9" d="M978.75,1122.62,976,1119Z"/><path class="cls-6" d="M405.3,1613.7l-6.79.07-3.41-6.66c-.18-33.19-4.92-40.09-49.55-72.14,13.57-5,15.69-4.35,38.45,12.33-3.3-30.94-13-59.57-17.56-89.24,20.6,43.13,22.78,91,36.34,136.72,1.24-19.23,9-36.21,16-53.47,1.63-4.05,2.28-10.54,8.33-7.71,4.48,2.1,1,7.23-.58,10.64-7.36,15.89-16.15,31.34-14.1,49.9C409.84,1600.58,403.2,1605.55,405.3,1613.7Z"/><path class="cls-6" d="M443,1579.49h-6.64c10.82-49,7.57-99.55,17.38-148.72C457.32,1480.87,451,1530.24,443,1579.49Z"/><path class="cls-6" d="M1791.69,1617.12l-3.53-.07c1.21-15.23,2.77-30.27,8.55-44.77,10.32-25.9,4.86-51.41-3.82-76.5-8.63-24.93-3.18-48.37,5.9-75.39,5.51,11.9.56,19.44-1.53,26.17-5.88,19-3.41,37,3.38,54.61,11,28.49,9.44,56.55-.24,84.89C1796.92,1596.22,1794.56,1606.76,1791.69,1617.12Z"/><path class="cls-12" d="M1782,1349.46c2.64,22.76,11,45.31.82,67.82-2.16,4.77-2.38,13.19-9.12,12.6-7.2-.64-5.41-8.64-6.12-14C1764.4,1392,1775.8,1371.4,1782,1349.46Z"/><path class="cls-6" d="M1757.33,1449c-13.48-10-21.32-34.32-15.81-53.26,7.71-26.46,18.34-52.21,17.19-80.66,2.76,17,4.38,34.37-2,50.3-11.33,28.28-12.66,55.8.66,83.56Z"/><path class="cls-1" d="M1785.71,1524.18c4.92,19.43-3.41,35.69-12.63,54.58C1766.77,1556.37,1778.07,1540.76,1785.71,1524.18Z"/><path class="cls-12" d="M1105.47,220.43c-27.34,0-54.68.13-82-.11-4.63,0-12.32,2.38-12.72-4.55-.43-7.42,7.37-5.34,11.93-5.35q81.16-.24,162.32,0c4.52,0,12.31-2.3,11.79,5.39-.48,7.08-8.11,4.41-12.71,4.46C1157.87,220.55,1131.67,220.42,1105.47,220.43Z"/><path class="cls-10" d="M1011.46,236.07h184.67q0,1.83,0,3.67H1011.45Q1011.46,237.9,1011.46,236.07Z"/><path class="cls-3" d="M1773.68,575.88c-8.51,6.36-17.59,6.22-26.55,1.56a4.07,4.07,0,0,1,0-7.06c9-4.77,18.08-4.86,26.55,1.66C1773.7,573.33,1773.69,574.6,1773.68,575.88Z"/><path class="cls-1" d="M823.48,1612.65c-6.57-17.57.83-34.64,2.49-51.77,3-30.52,7.83-60.85,11.9-91.27l30.87.12c-9.76,44.14-31.07,84.45-42.59,128C824.82,1602.77,823.52,1607.53,823.48,1612.65Z"/><path class="cls-8" d="M1250.37,896.73q.13-7.07.27-14.15c3-3,5.67-9.16,10.7-5.25,11.26,8.76,24,3.89,36,5.56,22.74,3.17,45.42,6.73,68.12,10.13l1,13.79c-1.37,18.33-17.25,24.7-28.66,34.75-18.17,6.16-27.81,23.35-43,33.37-3,2-3.94,5.34-2.62,9-7.38,6.09-14.63,12.35-22.19,18.21s-8.06,11.1-1.19,18c9.89,10,19.14,20.6,28.66,30.94-.87,6-2.9,12.15-2.39,18,1.33,15.28,9.15,18.87,35,17.37,4.42,9.88,15.21,15,18.92,25.44-31.76,1.87-62.66-7.69-94.33-7-5.49-68.27-5.89-136.65-4.49-205.07.38-.29,1.13-.64,1.09-.85A13,13,0,0,0,1250.37,896.73Z"/><path class="cls-7" d="M1365.48,893c-22.7-3.4-45.38-7-68.12-10.13-12-1.67-24.77,3.2-36-5.56-5-3.91-7.69,2.23-10.7,5.25,1.57-51.51,9.32-101.88,27.69-150.31,2.26-6,3.75-12.3,12.21-11.48-8.29,16.31,5.37,20.05,15.11,24.52,22.55,10.36,53.15,3.67,71.16-14.21,5.08-5,9-11.85,17.25-12.61l.1.09c-1.23,16.48-12.84,30.63-10.72,47.86l.17-.28c-3,.28-2.91,2.67-3.28,4.75l-.26,7.1c-2-.6-2.72,0-2,2l-.33,1.14-1.17.22c-20.93-1.23-16.12,19.55-23.67,29.4-5.91,7.71-3.16,22-1,31.15,2.6,11.24-17.79,34.69,13.9,34Zm-75-112.89c-1.75-10.22.36-21.09-5.72-34.61v35c-10,13.79-9.87,23.13.72,25.94,6.81,1.81,14.58,2,17.33-6.21C1306.46,789.46,1301.15,782.82,1290.51,780.13Z"/><path class="cls-9" d="M1349,1112c-3.72-10.41-14.5-15.56-18.91-25.45,17.15-14.63,35.72-27.28,54.59-39.51,7.14,9.3,16.26,8.5,26.29,5.82,15-4,28.69-11.19,42.2-18.28,11.7-6.14,18.58-2.85,26.2,6.21,19.18,22.83,19.48,22.67-3.06,42.46-24.81,21.78-50.12,43-74.35,65.41-8.84,8.17-14.63,7.69-21.15-1.33A157.38,157.38,0,0,0,1349,1112Z"/><path class="cls-9" d="M1337.78,941.56c11.41-10.05,27.29-16.42,28.66-34.75,8.89,22.1,26.62,37.53,42.36,54.14,10.38,10.95,8.87,16.73-3.78,22.37-5.7,2.54-11,7.18-16.86,7.94-17.92,2.34-20.42,13.36-18,28.11a101.1,101.1,0,0,0-22.47,5.46c-18.24,6.36-32.53,19.54-50.29,26.27-9.52-10.35-18.77-21-28.66-30.94-6.87-6.94-6.23-12.3,1.19-18s14.81-12.12,22.18-18.2c4.85,6.16,9.38,9,16.42,1.79a221.82,221.82,0,0,1,26.9-23.67C1344.32,955.47,1345,949.3,1337.78,941.56Z"/><path class="cls-14" d="M1297.42,1051.1c17.77-6.73,32.06-19.91,50.29-26.27a101.1,101.1,0,0,1,22.47-5.46c7.92,7.58,10.8,17.8,14.44,27.63-18.86,12.23-37.43,24.87-54.58,39.51-25.87,1.51-33.68-2.08-35-17.36C1294.52,1063.25,1296.55,1057.12,1297.42,1051.1Z"/><path class="cls-5" d="M1380.07,778q.13-3.55.25-7.1c2.09-.89,3.51-2.25,3.28-4.75l-.17.28c19.27-2.83,16.41-18.14,17.59-31.18l5.21,6.91c-2.05,11.3-.43,20.66,5.4,31.89,13.54,26.05,13.32,55.3,7.71,83.69-3.2,16.19-15.32,21.65-33.1,15.81,21.75-.33,28.64-12.35,29.42-29.19.88-18.87.16-37.74-4.71-56.12-2.13-8.07-3.26-18.67-13.48-19.75s-15.65,8-20.54,15.61c-2.34,3.64-2.81,8.49-4.13,12.78,2.33-4.9,4.48-9.83,3.74-15.46l1.17-.22s.33-1.14.31-1.14C1379.81,780.47,1380.49,779.79,1380.07,778Z"/><path class="cls-8" d="M1376.56,781.41c.74,5.63-1.42,10.56-3.74,15.46q-3.54,39.55-7.07,79.08c-31.69.7-11.3-22.75-13.9-34-2.12-9.15-4.87-23.44,1-31.15C1360.44,801,1355.63,780.18,1376.56,781.41Z"/><path class="cls-1" d="M1460.29,848.13c9.24,19,21.55,36.52,19,58.55-.92,7.94.47,19.59-10.58,19.81-10.44.21-8.59-10.8-10.08-18.41C1454.7,888,1453.16,868.09,1460.29,848.13Z"/><path class="cls-11" d="M1406.23,742.17l-5.22-6.9-1.14-19.67c1-3.37-.16-7.65,4.19-9.53C1409.66,717.81,1408.13,730,1406.23,742.17Z"/><path class="cls-11" d="M1404.07,706.18c-5.18-4-6.19-7.88.3-11.56Z"/><path class="cls-1" d="M1242.79,1382.74l16.53-5.72C1257.16,1388.61,1248.81,1382.3,1242.79,1382.74Z"/><path class="cls-7" d="M1250.37,896.73a13,13,0,0,1,.85,2.33c0,.21-.71.56-1.09.85A3,3,0,0,1,1250.37,896.73Z"/><path class="cls-6" d="M1668.65,556.27c8.31.07,12.41-6.79,18.28-10.83,4.39-3,10.19-4.84,11.35,3.16s-27.88,27.75-37.15,25.61C1669.9,570.85,1667.72,562.91,1668.65,556.27Z"/><path class="cls-2" d="M1668.65,556.27c-.93,6.64,1.26,14.58-7.52,17.94v-.07q-.12-2-.24-4,0-34.22.08-68.43h7.46Q1668.54,529,1668.65,556.27Z"/><path class="cls-6" d="M1668.44,501.73H1661c3.68-8-1.9-14.74-2.64-22.11-.53-5.28-1.57-13,5.9-13.56,8-.54,6.65,7.21,7,12.59C1671.76,486.52,1666.26,493.66,1668.44,501.73Z"/><path class="cls-6" d="M1570.76,580.62c-5.73-.37-13.9,1.13-14.29-5.93-.49-8.89,8.3-7.32,14.21-7.39,5.43-.06,13.26-1.21,13.19,6.71S1575.9,580,1570.76,580.62Z"/><path class="cls-3" d="M1663.19,651.65c9,10.25,9.72,18.11,5,26.32-1.15,2-4.61,2.58-6,.61C1656.5,670.48,1661.51,662.79,1663.19,651.65Z"/><path class="cls-6" d="M1660.9,570.16q.12,2,.24,4C1658.72,573,1658.92,571.61,1660.9,570.16Z"/><path class="cls-13" d="M1273.7,570.57c7.16,1.81,10.26-4.69,15.66-7.8-7.31,9.75-.91,24.1-12.24,31.8C1272.63,587,1273.39,578.77,1273.7,570.57Z"/><path class="cls-1" d="M1016.18,402.42,1009,405.7c.5-36.23,15.4-51.5,51.67-51,26.59.37,53.32-2.9,79.8,2.75a28.24,28.24,0,0,0,19.86-3c-1.16,14,11.18,11.13,17.91,12.8,24.06,6,29.9,12.25,30,37.23.1,16.51.75,33.08-.41,49.51-.61,8.6-1.15,21.4-16.69,11.28-3.69-2.4-10-1-15.09-1-41-.06-82,0-123,0-23.69,0-33.49-10.13-33.57-34.15q0-12-.08-23.92c32-.09,64-.31,95.94-.2,17.84.06,30.34-8.3,38.67-23.47,6.25-11.38,3.15-17.42-9.44-17.56-29.12-.31-58.29-1-87.36.19C1035.83,366.05,1018.11,371.56,1016.18,402.42Z"/><path class="cls-13" d="M1349,583.29c-.3,5.93-2.28,10.75-8.72,10.58s-8.81-5-8-10.69c.89-6.27,2.77-13.09,11.2-12C1350.8,572.23,1348.43,578.82,1349,583.29Z"/><path class="cls-12" d="M1308.18,608.24c4.56,1.92,11.8-1.64,11.16,5.3-.58,6.29-7,8.22-13,7.91-5.22-.27-11.55-1.59-10.95-7.78C1296.24,604.67,1304.79,611.5,1308.18,608.24Z"/><path class="cls-7" d="M1393.2,714.7c.71-1.44-.2-4.21,2.6-3.8.65.1,1,2.51,1.43,3.86l-3.09,3.82-.1-.09Z"/><path class="cls-10" d="M1050.29,686.62c-17.43,4.95-21-3.76-20.47-19.74,1-27.41,1.31-25.27-23.64-23.62-19.12,1.27-17.54-9.24-18.13-22-.66-14.17,2.31-20.77,18.53-19.85,23.27,1.32,24.76.1,23.09-24-1.38-19.85,10.38-16.91,22.5-17.54,12.85-.67,20,1.22,19.36,17.13-1.18,28-3.05,25.67,26.1,24.42,16.41-.71,19,5.89,18.33,19.9-.64,12.65,1.26,23.27-18.08,22-26.49-1.69-27.67-.18-26.35,25.07C1072.42,685.25,1066,690.17,1050.29,686.62Z"/><path class="cls-13" d="M844.07,601.56c0,6.65-3.4,9.9-9.35,9.87-7.9,0-12.72-4.63-13.74-12.23-1-7.39,4.81-10.18,10.49-10.69C840.52,587.71,841.41,595.91,844.07,601.56Z"/><path class="cls-6" d="M1016.18,402.42c1.93-30.85,19.65-36.36,41.12-37.28,29.07-1.24,58.24-.5,87.36-.19,12.58.14,15.69,6.18,9.44,17.56-8.33,15.17-20.84,23.53-38.67,23.47-32-.11-64,.11-95.94.2Z"/><path class="cls-12" d="M1394.15,718.58l3.09-3.82a3.05,3.05,0,0,1,2.65.83l1.14,19.67c-1.18,13,1.69,28.35-17.59,31.17C1381.3,749.21,1392.91,735.05,1394.15,718.58Z"/><path class="cls-5" d="M1337.78,941.56c7.19,7.74,6.54,13.91-2.33,20.48a221.82,221.82,0,0,0-26.9,23.67c-7,7.25-11.57,4.37-16.42-1.79-1.31-3.64-.39-7,2.63-9C1310,964.92,1319.61,947.73,1337.78,941.56Z"/><path class="cls-9" d="M1290.51,780.13c10.64,2.69,16,9.33,12.33,20.08-2.75,8.17-10.52,8-17.33,6.21-10.59-2.81-10.72-12.15-.73-25.94Z"/><path class="cls-5" d="M1290.51,780.13l-5.73.34c0-10.33,0-20.66,0-35C1290.87,759,1288.76,769.91,1290.51,780.13Z"/><path class="cls-12" d="M1383.6,766.15c.23,2.5-1.19,3.86-3.28,4.75C1380.69,768.82,1380.62,766.43,1383.6,766.15Z"/><path class="cls-8" d="M1380.07,778c.42,1.79-.26,2.47-2,2C1377.35,778,1378.09,777.4,1380.07,778Z"/></g></svg>